<svg width="36" height="36" viewBox="0 0 36 36" fill="none" xmlns="http://www.w3.org/2000/svg">
<path d="M18.0001 0.0749512C8.05903 0.0749512 0 8.13398 0 18.0751C0 26.991 6.48939 34.375 14.998 35.8048V21.8304H10.6559V16.8015H14.998V13.0935C14.998 8.79103 17.6258 6.44646 21.4645 6.44646C23.3029 6.44646 24.8829 6.58345 25.3415 6.64379V11.141L22.6792 11.1423C20.592 11.1423 20.1896 12.1339 20.1896 13.5895V16.799H25.1697L24.5202 21.8278H20.1896V35.9251C29.0955 34.8411 36 27.2691 36 18.0699C36 8.13398 27.941 0.0749512 18.0001 0.0749512Z" fill="#6969FF"/>
</svg>
