<svg width="363" height="389" viewBox="0 0 363 389" fill="none" xmlns="http://www.w3.org/2000/svg">
<circle opacity="0.2" cx="295.5" cy="67.9" r="67" fill="url(#paint0_radial)"/>
<ellipse cx="291.328" cy="64.9452" rx="22.7162" ry="22.6264" fill="#6232D6"/>
<path d="M289.047 97.0722C288.231 97.0722 287.49 96.517 287.292 95.6917C286.087 90.6784 287.888 82.7484 287.967 82.4124C288.189 81.4433 289.159 80.8395 290.132 81.061C291.105 81.2826 291.711 82.2492 291.489 83.2183C291.465 83.323 289.802 90.6736 290.807 94.8517C291.039 95.8183 290.44 96.7897 289.472 97.021C289.328 97.0551 289.186 97.0722 289.047 97.0722Z" fill="#7A75F5"/>
<path d="M303.464 96.1884C302.753 96.1884 302.078 95.7672 301.792 95.0708C299.428 89.3345 299.631 83.8538 299.641 83.6225C299.683 82.6291 300.528 81.8572 301.523 81.9011C302.518 81.9425 303.293 82.78 303.251 83.771C303.249 83.8245 303.083 88.7258 305.134 93.7025C305.513 94.6228 305.07 95.6722 304.149 96.0496C303.926 96.1445 303.694 96.1884 303.464 96.1884Z" fill="#7A75F5"/>
<path d="M323.529 70.5745C323.023 70.5745 322.485 70.5501 321.925 70.4917C318.889 70.1703 314.599 68.7508 311.392 63.8131C310.918 63.0826 311.128 62.1087 311.862 61.6364C312.595 61.164 313.573 61.3734 314.047 62.1038C318.843 69.4861 326.482 67.0927 326.804 66.988C327.631 66.7178 328.525 67.1633 328.799 67.9863C329.073 68.8092 328.63 69.6979 327.807 69.9731C327.716 70.0023 325.973 70.5745 323.529 70.5745Z" fill="#7A75F5"/>
<ellipse cx="296.167" cy="64.6019" rx="22.7162" ry="22.6264" fill="#8E88FF"/>
<path d="M316.804 74.0707C314.998 77.9664 312.108 81.285 308.491 83.6151L275.532 55.133C277.339 51.2373 280.228 47.9187 283.846 45.5886L316.804 74.0707Z" fill="#AFADFF"/>
<ellipse cx="296.168" cy="64.6019" rx="17.0353" ry="16.968" fill="#6969FF"/>
<path d="M265.094 84.5817C264.571 84.5817 264.058 84.3236 263.757 83.8488C263.29 83.1135 263.51 82.142 264.246 81.677C269.291 78.4923 270.369 71.037 270.381 70.9615C270.499 70.102 271.296 69.4982 272.158 69.6151C273.021 69.7319 273.63 70.5208 273.513 71.3827C273.464 71.7479 272.242 80.3598 265.937 84.3382C265.676 84.5038 265.382 84.5817 265.094 84.5817Z" fill="#7A75F5"/>
<path d="M289.998 60.8255C288.639 60.8255 287.512 59.7177 287.461 59.6666C287.248 59.4547 287.248 59.109 287.463 58.8972C287.676 58.6854 288.023 58.6854 288.236 58.8972C288.251 58.9118 289.226 59.8589 290.184 59.725C290.683 59.6544 291.128 59.2794 291.504 58.6123C291.651 58.3494 291.986 58.2568 292.247 58.4029C292.511 58.549 292.604 58.8826 292.457 59.1431C291.905 60.1267 291.189 60.6867 290.328 60.8036C290.216 60.8182 290.106 60.8255 289.998 60.8255Z" fill="#160649"/>
<path d="M300.473 59.7396C299.114 59.7396 297.987 58.6318 297.936 58.5806C297.723 58.3688 297.723 58.0231 297.938 57.8112C298.151 57.5994 298.498 57.5994 298.71 57.8112C298.72 57.821 299.696 58.773 300.659 58.6391C301.157 58.5685 301.602 58.1959 301.979 57.5264C302.125 57.2634 302.46 57.1709 302.722 57.317C302.986 57.4631 303.079 57.7966 302.932 58.0572C302.38 59.0408 301.663 59.6008 300.803 59.7177C300.693 59.7323 300.583 59.7396 300.473 59.7396Z" fill="#160649"/>
<ellipse cx="296.65" cy="64.731" rx="2.82822" ry="2.81704" fill="#421FBF"/>
<path opacity="0.5" d="M313.159 63.4015C312.499 54.1274 304.474 47.1274 295.183 47.6631C303.594 48.1598 310.534 54.8043 311.145 63.4015C311.81 72.7486 304.743 80.8638 295.359 81.526C295.285 81.5309 295.212 81.5358 295.139 81.5382C295.872 81.582 296.618 81.5796 297.373 81.526C306.757 80.8638 313.824 72.7511 313.159 63.4015Z" fill="#421FBF"/>
<circle opacity="0.4" cx="171" cy="218.4" r="170.5" fill="url(#paint1_radial)"/>
<ellipse cx="161.008" cy="215" rx="69.4773" ry="69.3458" fill="#008F99"/>
<path d="M185.194 314.426C183.451 314.426 181.735 313.605 180.661 312.068C171.6 299.118 167.824 274.484 167.667 273.44C167.216 270.429 169.293 267.622 172.313 267.168C175.33 266.715 178.142 268.791 178.597 271.802C178.632 272.032 182.154 294.926 189.726 305.749C191.474 308.248 190.863 311.685 188.359 313.429C187.388 314.101 186.287 314.426 185.194 314.426Z" fill="#00ACA5"/>
<path d="M222.477 301.202C221.024 301.202 219.57 300.631 218.485 299.501C205.314 285.776 199.74 269.917 199.509 269.248C198.514 266.371 200.045 263.231 202.929 262.238C205.812 261.244 208.95 262.773 209.949 265.643C210 265.784 215.03 279.954 226.461 291.872C228.573 294.07 228.494 297.562 226.293 299.669C225.227 300.694 223.848 301.202 222.477 301.202Z" fill="#00ACA5"/>
<path d="M253.156 215.77C244.044 215.77 231.884 212.927 220.848 201.044C219.034 199.089 219.152 196.036 221.107 194.225C223.065 192.415 226.125 192.528 227.939 194.483C235.621 202.757 244.761 206.655 255.107 206.061C263.083 205.604 268.896 202.558 268.955 202.526C271.302 201.256 274.228 202.124 275.501 204.466C276.775 206.808 275.901 209.74 273.554 211.011C273.257 211.175 266.111 214.992 256.118 215.664C255.173 215.735 254.186 215.77 253.156 215.77Z" fill="#00ACA5"/>
<ellipse cx="175.408" cy="211.426" rx="69.4773" ry="69.3458" fill="#00DBB7"/>
<path d="M242.582 229.17C239.201 241.878 232.248 253.416 222.583 262.351L108.23 193.685C111.611 180.978 118.565 169.439 128.229 160.504L242.582 229.17Z" fill="#00F0D7"/>
<ellipse cx="175.409" cy="211.426" rx="52.0992" ry="52.0006" fill="#00BCB7"/>
<path d="M184.571 200.169C186.46 199.699 187.611 197.791 187.141 195.903L186.46 193.173C185.99 191.289 184.078 190.139 182.186 190.608C180.297 191.077 179.146 192.986 179.616 194.874L180.297 197.603C180.768 199.488 182.683 200.638 184.571 200.169Z" fill="url(#paint2_linear)"/>
<path d="M166.072 205.514C167.961 205.045 169.112 203.136 168.642 201.248L167.961 198.519C167.491 196.634 165.579 195.484 163.687 195.953C161.798 196.423 160.647 198.331 161.117 200.219L161.798 202.949C162.269 204.837 164.18 205.983 166.072 205.514Z" fill="url(#paint3_linear)"/>
<path d="M91.5145 288.146C90.1982 288.146 88.8898 287.614 87.9339 286.566C86.1397 284.596 86.2846 281.542 88.2591 279.751C101.778 267.489 101.085 244.411 101.077 244.181C100.979 241.522 103.056 239.281 105.723 239.176C108.391 239.078 110.632 241.139 110.738 243.801C110.785 244.927 111.651 271.571 94.7621 286.891C93.8376 287.731 92.6741 288.146 91.5145 288.146Z" fill="#00CBB9"/>
<path d="M173.477 220.787C173.34 220.787 173.203 220.787 173.07 220.783C164.69 220.681 158.07 217.592 157.792 217.459C156.409 216.806 155.821 215.156 156.475 213.776C157.13 212.399 158.779 211.809 160.162 212.462C160.22 212.489 166.105 215.211 173.309 215.254C182.586 215.32 189.719 211.023 194.53 202.511C195.282 201.181 196.971 200.712 198.307 201.459C199.639 202.21 200.109 203.895 199.36 205.228C192.121 218.034 181.371 220.787 173.477 220.787Z" fill="#006C89"/>
<path d="M225.964 198.874C219.018 171.003 190.753 154.033 162.829 160.962C152.197 163.601 143.151 169.326 136.405 176.942C142.477 171.586 149.893 167.566 158.304 165.478C186.228 158.545 214.493 175.519 221.439 203.39C225.741 220.65 220.851 238.038 209.878 250.425C223.974 237.991 230.818 218.351 225.964 198.874Z" fill="#00ACA5"/>
<defs>
<radialGradient id="paint0_radial" cx="0" cy="0" r="1" gradientUnits="userSpaceOnUse" gradientTransform="translate(295.501 67.8992) scale(66.9999)">
<stop stop-color="#A08DFF"/>
<stop offset="0.0969" stop-color="#9A87F6" stop-opacity="0.9031"/>
<stop offset="0.2559" stop-color="#8977DD" stop-opacity="0.7441"/>
<stop offset="0.4572" stop-color="#6D5CB5" stop-opacity="0.5428"/>
<stop offset="0.693" stop-color="#46377D" stop-opacity="0.307"/>
<stop offset="0.955" stop-color="#160837" stop-opacity="0.045"/>
<stop offset="1" stop-color="#0D002A" stop-opacity="0.01"/>
</radialGradient>
<radialGradient id="paint1_radial" cx="0" cy="0" r="1" gradientUnits="userSpaceOnUse" gradientTransform="translate(171 218.399) scale(170.5)">
<stop offset="0.00896991" stop-color="#00ACA5"/>
<stop offset="0.1214" stop-color="#01A39F" stop-opacity="0.8865"/>
<stop offset="0.3059" stop-color="#038A8D" stop-opacity="0.7004"/>
<stop offset="0.5394" stop-color="#066270" stop-opacity="0.4647"/>
<stop offset="0.8101" stop-color="#0A2B49" stop-opacity="0.1916"/>
<stop offset="1" stop-color="#0D002A" stop-opacity="0.01"/>
</radialGradient>
<linearGradient id="paint2_linear" x1="178.748" y1="189.905" x2="177.678" y2="202.225" gradientUnits="userSpaceOnUse">
<stop stop-color="#3D3C3E"/>
<stop offset="0.0787" stop-color="#313032"/>
<stop offset="0.2595" stop-color="#1B1B1C"/>
<stop offset="0.4575" stop-color="#0C0C0C"/>
<stop offset="0.6836" stop-color="#030303"/>
<stop offset="1"/>
</linearGradient>
<linearGradient id="paint3_linear" x1="157.598" y1="192.924" x2="154.666" y2="212.677" gradientUnits="userSpaceOnUse">
<stop stop-color="#3D3C3E"/>
<stop offset="0.0787" stop-color="#313032"/>
<stop offset="0.2595" stop-color="#1B1B1C"/>
<stop offset="0.4575" stop-color="#0C0C0C"/>
<stop offset="0.6836" stop-color="#030303"/>
<stop offset="1"/>
</linearGradient>
</defs>
</svg>
