<svg width="393" height="238" viewBox="0 0 393 238" fill="none" xmlns="http://www.w3.org/2000/svg">
<g clip-path="url(#clip0)">
<path d="M18.2241 217.916C24.63 217.916 29.8231 212.166 29.8231 205.074C29.8231 197.982 24.63 192.232 18.2241 192.232C11.8181 192.232 6.625 197.982 6.625 205.074C6.625 212.166 11.8181 217.916 18.2241 217.916Z" fill="white"/>
<path d="M9.97309 201.006C9.78507 201.315 9.5756 201.742 9.42793 202.077H9.42466L9.34152 202.28C9.21662 202.585 9.1097 202.895 9.02148 203.21L8.90511 203.625H9.3362H9.84545H9.85371H9.86202H9.87028H9.87859H9.88685H9.89516H9.90342H9.91173H9.91999H9.9283H9.93656H9.94487H9.95313H9.96144H9.9697H9.97801H9.98627H9.99458H10.0028H10.0112H10.0194H10.0277H10.036H10.0443H10.0525H10.0608H10.0691H10.0774H10.0857H10.0939H10.1023H10.1105H10.1188H10.1271H10.1354H10.1437H10.152H10.1602H10.1685H10.1768H10.1851H10.1934H10.2017H10.2099H10.2183H10.2265H10.2348H10.2431H10.2514H10.2597H10.268H10.2762H10.2845H10.2928H10.3011H10.3094H10.3177H10.3259H10.3342H10.3425H10.3508H10.3591H10.3674H10.3756H10.384H10.3922H10.4005H10.4088H10.4171H10.4254H10.4337H10.4419H10.4502H10.4585H10.4668H10.4751H10.4833H10.4916H10.4999H10.5082H10.5165H10.5248H10.533H10.5413H10.5496H10.5579H10.5662H10.5745H10.5827H10.5911H10.5993H10.6076H10.6159H10.6242H10.6325H10.6408H10.649H10.6573H10.6656H10.6739H10.6822H10.6905H10.6987H10.7071H10.7153H10.7236H10.7319H10.7402H10.7484H10.7568H10.765H10.7733H10.7816H10.7899H10.7982H10.8065H10.8147H10.823H10.8313H10.8396H10.8479H10.8561H10.8644H10.8728H10.881H10.8893H10.8976H10.9058H10.9142H10.9224H10.9307H10.939H10.9473H10.9556H10.9639H10.9721H10.9804H10.9887H10.997H11.0053H11.0136H11.0218H11.0301H11.0384H11.0467H11.055H11.0633H11.0715H11.0799H11.0881H11.0964H11.1047H11.113H11.1213H11.1296H11.1378H11.1461H11.1544H11.1627H11.171H11.1793H11.1875H11.1958H11.2041H11.2124H11.2207H11.229H11.2372H11.2455H11.2538H11.2621H11.2704H11.2786H11.287H11.2953H11.3036H11.3118H11.3201H11.3284H11.3367H11.3449H11.3532H11.3615H11.3699H11.3781H11.3864H11.3947H11.4029H11.4112H11.4195H11.4278H11.4361H11.4443H11.4527H11.461H11.4692H11.4775H11.4858H11.4941H11.5024H11.5106H11.5189H11.5273H11.5355H11.5438H11.5521H11.5603H11.5687H11.5769H11.5852H11.5935H11.6018H11.6101H11.6184H11.6266H11.6349H11.6432H11.6515H11.6598H11.6681H11.6764H11.6846H11.6929H11.7012H11.7095H11.7177H11.726H11.7344H11.7427H11.7509H11.7592H11.7675H11.7758H11.784H11.7923H11.8006H11.8089H11.8172H11.8255H11.8338H11.842H11.8503H11.8586H11.8669H11.8752H11.8834H11.8917H11.9001H11.9083H11.9166H11.9249H11.9332H11.9415H11.9498H11.958H11.9663H11.9746H11.9829H11.9912H11.9994H12.0077H12.0161H12.0243H12.0326H12.0409H12.0492H12.0574H12.0657H12.074H12.0823H12.0906H12.0988H12.1072H12.1155H12.1238H12.132H12.1403H12.1486H12.1569H12.1651H12.1734H12.1818H12.19H12.1983H12.2066H12.2149H12.2231H12.2314H12.2397H12.248H12.2562H12.2646H12.2729H12.2812H12.2894H12.2977H12.306H12.3143H12.3226H12.3308H12.3391H12.3474H12.3557H12.364H12.3723H12.3805H12.3889H12.3971H12.4054H12.4137H12.422H12.4303H12.4386H12.4468H12.4551H12.4634H12.4717H12.48H12.4883H12.4966H12.5048H12.5131H12.5214H12.5297H12.5379H12.5462H12.5546H12.5629H12.5711H12.5794H12.5877H12.596H12.6042H12.6125H12.6208H12.6292H12.6374H12.6457H12.654H12.6623H12.6705H12.6788H12.6871H12.6954H12.7036H12.7119H12.7203H12.7285H12.7368H12.7451H12.7534H12.7617H12.7699H12.7782H12.7865H12.7948H12.8031H12.8114H12.8197H12.8279H12.8363H12.8445H12.8528H12.8611H12.8694H12.8777H12.8859H12.8942H12.9025H12.9108H12.9191H12.9274H12.9357H12.9439H12.9522H12.9605H12.9688H12.9771H12.9853H12.9936H13.002H13.0103H13.0185H13.0268H13.0351H13.0433H13.0516H13.0599H13.0682H13.0764H13.0848H13.0931H13.1014H13.1096H13.1179H13.1262H13.1345H13.1428H13.151H13.1593H13.1677H13.1759H13.1842H13.1925H13.2008H13.2091H13.2173H13.2256H13.2339H13.2422H13.2505H13.2588H13.267H13.2753H13.2836H13.2919H13.3002H13.3085H13.3168H13.3251H13.3333H13.3416H13.3499H13.3582H13.3664H13.3748H13.3831H13.3913H13.3996H13.4079H13.4162H13.4244H13.4327H13.441H13.4494H13.4576H13.4659H13.4742H13.4825H13.4907H13.499H13.5073H13.5156H13.5238H13.5322H13.5405H13.5488H13.557H13.5653H13.5736H13.5819H13.5901H13.5984H13.6067H13.615H13.6233H13.6316H13.6399H13.6481H13.6565H13.6647H13.673H13.6813H13.6896H13.6979H13.7062H13.7144H13.7227H13.731H13.7393H13.7476H13.7559H13.7641H13.7724H13.7807H13.789H13.7973H13.8055H13.8138H13.8222H13.8305H13.8387H13.847H13.8553H13.8636H13.8718H13.8801H13.8884H13.8968H13.905H13.9133H13.9216H13.9299H13.9381H13.9464H13.9547H13.9629H13.9712H13.9796H13.9879H13.9961H14.0044H14.0127H14.021H14.0293H14.0375H14.0458H14.0541H14.0624H14.0707H14.079H14.0873C18.3088 203.625 22.5305 203.625 26.7517 203.625H27.1827L27.0664 203.21C26.886 202.566 26.6298 201.952 26.3119 201.368C26.1104 200.997 25.9082 200.688 25.6496 200.417L25.6495 200.416C25.3896 200.144 25.0821 199.919 24.6801 199.706L24.68 199.706C23.9845 199.337 23.1405 199.122 22.2367 199.122H19.2444L19.9495 192.41C26.6346 193.338 31.7819 199.075 31.7819 206.016C31.7817 213.603 25.6311 219.753 18.0438 219.753C10.4566 219.753 4.30566 213.603 4.30566 206.015C4.30566 199.075 9.45309 193.337 16.1382 192.41L16.8432 199.122H13.851C12.98 199.122 12.1646 199.321 11.4842 199.666H11.4825L11.4108 199.704C10.7994 200.027 10.296 200.474 9.97314 201.006H9.97309ZM18.1137 216.166C18.6656 216.175 19.1937 215.953 19.781 215.548C22.1015 213.951 24.0047 211.737 25.0265 209.078C25.5034 207.836 25.7724 206.528 25.8199 205.205L25.8321 204.867H25.4933H10.7908H10.452L10.4641 205.205C10.5333 207.139 11.0764 209.018 12.0318 210.724H12.0319C13.08 212.595 14.6039 214.232 16.4632 215.521C17.0411 215.921 17.5638 216.158 18.1137 216.166Z" fill="#F9603E" stroke="#F9603E"/>
<path d="M19.5559 208.148C19.5559 206.627 18.8149 205.317 18.2505 204.892C18.2505 204.892 18.2072 204.868 18.2116 204.93C18.1652 207.868 16.6637 208.665 15.8389 209.737C13.9347 212.213 15.7042 214.927 17.5095 215.428C18.5155 215.71 17.276 214.931 17.1158 213.289C16.9197 211.307 19.5559 209.792 19.5559 208.148Z" fill="#1B2143"/>
<path d="M20.421 209.15C20.409 209.142 20.3926 209.136 20.3821 209.156C20.3507 209.525 19.9734 210.316 19.4944 211.043C17.8701 213.507 18.7953 214.696 19.3163 215.335C19.6186 215.705 19.3163 215.335 20.0707 214.956C21.0033 214.391 21.6082 213.412 21.698 212.325C21.8461 210.573 20.7953 209.47 20.421 209.15Z" fill="#2CA6E0"/>
</g>
<g clip-path="url(#clip1)">
<path d="M369.385 197.427C380.367 197.427 389.269 187.571 389.269 175.412C389.269 163.254 380.367 153.398 369.385 153.398C358.403 153.398 349.501 163.254 349.501 175.412C349.501 187.571 358.403 197.427 369.385 197.427Z" fill="white"/>
<path d="M355.24 168.438C354.918 168.969 354.559 169.7 354.305 170.275H354.3L354.157 170.623C353.943 171.145 353.76 171.677 353.609 172.216L353.409 172.928H354.148H355.021H355.035H355.05H355.064H355.078H355.092H355.106H355.121H355.135H355.149H355.163H355.177H355.192H355.206H355.22H355.234H355.248H355.263H355.277H355.291H355.305H355.319H355.334H355.348H355.362H355.376H355.39H355.405H355.419H355.433H355.447H355.461H355.476H355.49H355.504H355.518H355.532H355.547H355.561H355.575H355.589H355.603H355.618H355.632H355.646H355.66H355.674H355.689H355.703H355.717H355.731H355.746H355.76H355.774H355.788H355.802H355.816H355.831H355.845H355.859H355.873H355.888H355.902H355.916H355.93H355.944H355.959H355.973H355.987H356.001H356.015H356.03H356.044H356.058H356.072H356.086H356.101H356.115H356.129H356.143H356.157H356.172H356.186H356.2H356.214H356.228H356.243H356.257H356.271H356.285H356.299H356.314H356.328H356.342H356.356H356.37H356.385H356.399H356.413H356.427H356.441H356.456H356.47H356.484H356.498H356.512H356.527H356.541H356.555H356.569H356.583H356.598H356.612H356.626H356.64H356.654H356.669H356.683H356.697H356.711H356.725H356.74H356.754H356.768H356.782H356.796H356.811H356.825H356.839H356.853H356.867H356.882H356.896H356.91H356.924H356.938H356.953H356.967H356.981H356.995H357.009H357.024H357.038H357.052H357.066H357.081H357.095H357.109H357.123H357.137H357.151H357.166H357.18H357.194H357.208H357.223H357.237H357.251H357.265H357.279H357.294H357.308H357.322H357.336H357.35H357.365H357.379H357.393H357.407H357.421H357.436H357.45H357.464H357.478H357.492H357.507H357.521H357.535H357.549H357.563H357.578H357.592H357.606H357.62H357.634H357.649H357.663H357.677H357.691H357.705H357.72H357.734H357.748H357.762H357.776H357.791H357.805H357.819H357.833H357.847H357.862H357.876H357.89H357.904H357.918H357.933H357.947H357.961H357.975H357.989H358.004H358.018H358.032H358.046H358.06H358.075H358.089H358.103H358.117H358.131H358.146H358.16H358.174H358.188H358.203H358.217H358.231H358.245H358.259H358.274H358.288H358.302H358.316H358.33H358.344H358.359H358.373H358.387H358.401H358.416H358.43H358.444H358.458H358.472H358.487H358.501H358.515H358.529H358.543H358.558H358.572H358.586H358.6H358.614H358.629H358.643H358.657H358.671H358.685H358.7H358.714H358.728H358.742H358.756H358.771H358.785H358.799H358.813H358.827H358.842H358.856H358.87H358.884H358.898H358.913H358.927H358.941H358.955H358.969H358.984H358.998H359.012H359.026H359.04H359.055H359.069H359.083H359.097H359.111H359.126H359.14H359.154H359.168H359.182H359.197H359.211H359.225H359.239H359.254H359.268H359.282H359.296H359.31H359.325H359.339H359.353H359.367H359.381H359.395H359.41H359.424H359.438H359.452H359.467H359.481H359.495H359.509H359.523H359.538H359.552H359.566H359.58H359.594H359.609H359.623H359.637H359.651H359.665H359.68H359.694H359.708H359.722H359.736H359.751H359.765H359.779H359.793H359.807H359.822H359.836H359.85H359.864H359.878H359.893H359.907H359.921H359.935H359.949H359.964H359.978H359.992H360.006H360.02H360.035H360.049H360.063H360.077H360.091H360.106H360.12H360.134H360.148H360.162H360.177H360.191H360.205H360.219H360.233H360.248H360.262H360.276H360.29H360.304H360.319H360.333H360.347H360.361H360.376H360.39H360.404H360.418H360.432H360.447H360.461H360.475H360.489H360.503H360.517H360.532H360.546H360.56H360.574H360.589H360.603H360.617H360.631H360.645H360.66H360.674H360.688H360.702H360.716H360.731H360.745H360.759H360.773H360.787H360.802H360.816H360.83H360.844H360.858H360.873H360.887H360.901H360.915H360.929H360.944H360.958H360.972H360.986H361H361.015H361.029H361.043H361.057H361.071H361.086H361.1H361.114H361.128H361.143H361.157H361.171H361.185H361.199H361.213H361.228H361.242H361.256H361.27H361.284H361.299H361.313H361.327H361.341H361.356H361.37H361.384H361.398H361.412H361.426H361.441H361.455H361.469H361.483H361.497H361.512H361.526H361.54H361.554H361.569H361.583H361.597H361.611H361.625H361.64H361.654H361.668H361.682H361.696H361.711H361.725H361.739H361.753H361.767H361.782H361.796H361.81H361.824H361.838H361.853H361.867H361.881H361.895H361.909H361.924H361.938H361.952H361.966H361.98H361.995H362.009H362.023H362.037H362.051H362.066H362.08H362.094H362.108H362.122H362.137H362.151H362.165H362.179H362.193H362.208H362.222H362.236H362.25H362.264H362.279H362.293C369.53 172.928 376.767 172.928 384.003 172.929H384.742L384.543 172.217C384.234 171.113 383.794 170.06 383.249 169.059C382.904 168.424 382.557 167.894 382.114 167.428L382.114 167.428C381.668 166.96 381.141 166.575 380.452 166.21L380.452 166.21C379.26 165.578 377.813 165.21 376.263 165.21H371.134L372.342 153.703C383.803 155.293 392.627 165.129 392.627 177.027C392.626 190.033 382.082 200.577 369.076 200.577C356.069 200.577 345.524 190.033 345.524 177.026C345.524 165.128 354.349 155.292 365.809 153.702L367.017 165.209H361.888C360.395 165.209 358.997 165.551 357.83 166.141H357.828L357.705 166.207C356.657 166.761 355.794 167.526 355.24 168.438H355.24ZM369.195 194.428C370.141 194.443 371.047 194.062 372.054 193.368C376.032 190.63 379.294 186.835 381.046 182.276C381.863 180.148 382.324 177.905 382.406 175.638L382.427 175.057H381.846H356.642H356.061L356.082 175.638C356.2 178.953 357.131 182.174 358.769 185.098H358.769C360.566 188.305 363.178 191.112 366.366 193.321C367.357 194.007 368.253 194.413 369.195 194.428Z" fill="#F9603E" stroke="#F9603E"/>
<path d="M371.668 180.683C371.668 178.075 370.398 175.83 369.43 175.101C369.43 175.101 369.356 175.06 369.363 175.165C369.284 180.203 366.71 181.568 365.296 183.406C362.032 187.65 365.065 192.303 368.16 193.163C369.884 193.645 367.76 192.311 367.485 189.495C367.149 186.098 371.668 183.501 371.668 180.683Z" fill="#1B2143"/>
<path d="M373.151 182.399C373.131 182.387 373.103 182.376 373.085 182.41C373.031 183.043 372.384 184.398 371.563 185.646C368.778 189.87 370.364 191.907 371.258 193.003C371.776 193.637 371.258 193.003 372.551 192.354C374.15 191.384 375.187 189.706 375.341 187.842C375.594 184.84 373.793 182.949 373.151 182.399Z" fill="#2CA6E0"/>
</g>
<g clip-path="url(#clip2)">
<path d="M32.5131 59.236C47.1553 59.236 59.0251 46.0945 59.0251 29.8834C59.0251 13.6724 47.1553 0.530762 32.5131 0.530762C17.8709 0.530762 6.00098 13.6724 6.00098 29.8834C6.00098 46.0945 17.8709 59.236 32.5131 59.236Z" fill="white"/>
<path d="M13.6533 20.5844C13.2236 21.2926 12.7448 22.2669 12.4073 23.0334H12.3998L12.2097 23.4974C11.9243 24.1943 11.6799 24.9031 11.4782 25.6223L11.2122 26.5711H12.1976H13.3616H13.3805H13.3995H13.4183H13.4373H13.4562H13.4752H13.4941H13.5131H13.532H13.551H13.5698H13.5888H13.6077H13.6267H13.6456H13.6646H13.6835H13.7025H13.7213H13.7403H13.7592H13.7782H13.7971H13.8161H13.835H13.8538H13.8728H13.8918H13.9107H13.9296H13.9486H13.9675H13.9865H14.0053H14.0243H14.0432H14.0622H14.0811H14.1001H14.119H14.138H14.1568H14.1758H14.1947H14.2137H14.2326H14.2516H14.2705H14.2895H14.3083H14.3273H14.3462H14.3652H14.3841H14.4031H14.422H14.441H14.4598H14.4788H14.4977H14.5167H14.5356H14.5546H14.5735H14.5925H14.6113H14.6303H14.6492H14.6682H14.6871H14.7061H14.725H14.744H14.7628H14.7817H14.8007H14.8196H14.8386H14.8575H14.8765H14.8953H14.9143H14.9332H14.9522H14.9711H14.9901H15.009H15.028H15.0468H15.0658H15.0847H15.1037H15.1226H15.1416H15.1605H15.1795H15.1983H15.2173H15.2362H15.2552H15.2741H15.2931H15.312H15.331H15.3498H15.3688H15.3877H15.4067H15.4256H15.4446H15.4635H15.4825H15.5013H15.5203H15.5392H15.5582H15.5771H15.5961H15.615H15.634H15.6528H15.6717H15.6907H15.7097H15.7286H15.7476H15.7665H15.7853H15.8043H15.8232H15.8422H15.8611H15.8801H15.899H15.918H15.9368H15.9558H15.9747H15.9937H16.0126H16.0316H16.0505H16.0695H16.0883H16.1073H16.1262H16.1452H16.1641H16.1831H16.202H16.221H16.2398H16.2588H16.2777H16.2967H16.3156H16.3346H16.3535H16.3725H16.3913H16.4103H16.4292H16.4482H16.4671H16.4861H16.505H16.524H16.5428H16.5617H16.5807H16.5997H16.6187H16.6375H16.6565H16.6755H16.6945H16.7132H16.7322H16.7512H16.7702H16.789H16.808H16.827H16.846H16.8647H16.8837H16.9027H16.9215H16.9405H16.9595H16.9785H16.9973H17.0162H17.0352H17.0542H17.0731H17.092H17.111H17.13H17.1488H17.1677H17.1867H17.2057H17.2246H17.2435H17.2625H17.2813H17.3003H17.3192H17.3382H17.3571H17.3761H17.3951H17.414H17.4328H17.4518H17.4708H17.4897H17.5086H17.5276H17.5466H17.5653H17.5843H17.6033H17.6223H17.6411H17.6601H17.6791H17.6981H17.7168H17.7358H17.7548H17.7738H17.7926H17.8116H17.8306H17.8496H17.8683H17.8873H17.9063H17.9252H17.9441H17.9631H17.9821H18.001H18.0198H18.0388H18.0578H18.0767H18.0956H18.1146H18.1336H18.1525H18.1715H18.1903H18.2093H18.2282H18.2472H18.2661H18.285H18.304H18.323H18.3418H18.3607H18.3797H18.3987H18.4176H18.4365H18.4555H18.4745H18.4933H18.5122H18.5312H18.5502H18.5692H18.588H18.607H18.626H18.645H18.6637H18.6827H18.7017H18.7205H18.7395H18.7585H18.7775H18.7962H18.8152H18.8342H18.8532H18.872H18.891H18.91H18.929H18.9478H18.9667H18.9857H19.0047H19.0236H19.0425H19.0615H19.0803H19.0993H19.1182H19.1372H19.1561H19.1751H19.194H19.213H19.2318H19.2508H19.2697H19.2887H19.3076H19.3266H19.3456H19.3645H19.3833H19.4023H19.4213H19.4401H19.4591H19.4781H19.4971H19.5158H19.5348H19.5538H19.5728H19.5916H19.6106H19.6296H19.6486H19.6673H19.6863H19.7053H19.7243H19.7431H19.7621H19.7811H19.8001H19.8188H19.8378H19.8568H19.8757H19.8946H19.9136H19.9326H19.9515H19.9703H19.9893H20.0083H20.0272H20.0461H20.0651H20.0841H20.103H20.122H20.1408H20.1598H20.1787H20.1977H20.2166H20.2355H20.2545H20.2735H20.2923H20.3112H20.3302H20.3492H20.3681H20.387H20.406H20.425H20.4438H20.4627H20.4817H20.5007H20.5197H20.5385H20.5575H20.5765H20.5955H20.6142H20.6332H20.6522H20.671H20.69H20.709H20.728H20.7467H20.7657H20.7847H20.8037H20.8225H20.8415H20.8605H20.8795H20.8983H20.9172H20.9362H20.9552H20.9741H20.993H21.012H21.031H21.0498H21.0687H21.0877H21.1066H21.1256H21.1445H21.1635H21.1823H21.2013H21.2202H21.2392H21.2581H21.2771H21.2961H21.315H21.3338H21.3528H21.3718H21.3907H21.4096H21.4286H21.4476H21.4665H21.4853H21.5043H21.5233H21.5421H21.5611H21.5801H21.5991H21.6178H21.6368H21.6558H21.6748H21.6936H21.7126H21.7316H21.7506H21.7693H21.7883H21.8073H21.8263H21.8451H21.8641H21.8831H21.902H21.9208H21.9398H21.9588H21.9777H21.9966H22.0156H22.0346H22.0535H22.0725H22.0913H22.1103H22.1292H22.1482H22.1671H22.1861H22.205H22.224H22.2428H22.2618H22.2807H22.2997H22.3186H22.3375H22.3565H22.3755H22.3943H22.4132H22.4322H22.4512H22.4702H22.489H22.508H22.527H22.546H22.5647H22.5837H22.6027H22.6217H22.6405H22.6595H22.6785H22.6975H22.7162H22.7352H22.7542H22.773H22.792H22.811H22.83H22.8488H22.8677H22.8867H22.9057H22.9246H22.9435H22.9625H22.9815H23.0003H23.0192H23.0382H23.0572C32.7063 26.5708 42.3561 26.5708 52.0043 26.5717H52.9896L52.7238 25.6231C52.3113 24.1513 51.7258 22.7466 50.9992 21.4118C50.5387 20.5658 50.0765 19.8587 49.4853 19.2379L49.4852 19.2378C48.891 18.6142 48.1882 18.1008 47.2693 17.6132L47.2691 17.6131C45.6793 16.7704 43.7502 16.2799 41.6843 16.2799H34.8448L36.4565 0.937099C51.7368 3.05728 63.5021 16.1721 63.5021 32.0362C63.5016 49.3779 49.443 63.4366 32.1007 63.4366C14.7585 63.4366 0.699219 49.3779 0.699219 32.0356C0.699219 16.1716 12.4648 3.05671 27.7451 0.936523L29.3565 16.2793H22.5171C20.5262 16.2793 18.6626 16.7344 17.1072 17.5222H17.1035L16.9396 17.6091C15.5421 18.3487 14.3913 19.3688 13.6535 20.5844H13.6533ZM32.2605 55.2378C33.522 55.2572 34.729 54.7491 36.0713 53.8249C41.3753 50.1738 45.7256 45.1138 48.0611 39.0348C49.1512 36.1978 49.766 33.2068 49.8746 30.1839L49.9025 29.4101H49.1281H15.5223H14.7481L14.7757 30.1837C14.9337 34.6044 16.1752 38.8993 18.359 42.7981H18.3591C20.7548 47.0741 24.238 50.8168 28.4878 53.7613C29.8087 54.6764 31.0035 55.2182 32.2605 55.2378Z" fill="#F9603E" stroke="#F9603E"/>
<path d="M35.5567 36.9104C35.5567 33.434 33.8629 30.44 32.5729 29.4683C32.5729 29.4683 32.4738 29.4135 32.4839 29.5538C32.3779 36.2707 28.9459 38.091 27.0605 40.541C22.7082 46.2005 26.7527 52.4039 30.8792 53.5503C33.1785 54.1935 30.3454 52.4143 29.9793 48.6607C29.531 44.1304 35.5567 40.6677 35.5567 36.9104Z" fill="#1B2143"/>
<path d="M37.5345 39.1994C37.5072 39.1823 37.4695 39.1685 37.4457 39.213C37.3738 40.0582 36.5114 41.8648 35.4165 43.5278C31.7039 49.1598 33.8187 51.8768 35.0094 53.3378C35.7005 54.183 35.0094 53.3378 36.7339 52.472C38.8655 51.1787 40.248 48.9409 40.4534 46.4567C40.7919 42.4533 38.39 39.9315 37.5345 39.1994Z" fill="#2CA6E0"/>
</g>
<path opacity="0.1" d="M115.494 57.8879H25.4C21.708 57.8879 18.716 60.8799 18.716 64.5719C18.716 68.2639 21.708 71.2559 25.4 71.2559H67.102C70.072 71.2559 72.48 73.6639 72.48 76.6339C72.48 79.6039 70.072 82.0119 67.102 82.0119H7.838C3.51 82.0119 0 85.5219 0 89.8499C0 94.1779 3.51 97.6879 7.838 97.6879H51.848C55.444 97.6879 58.358 100.604 58.358 104.198C58.358 107.794 55.442 110.708 51.848 110.708H44.926C40.988 110.708 37.796 113.9 37.796 117.838C37.796 121.776 40.988 124.968 44.926 124.968H118.662C122.6 124.968 125.792 121.776 125.792 117.838C125.792 113.9 122.6 110.708 118.662 110.708H91.352C87.67 110.708 84.686 107.724 84.686 104.042C84.686 100.36 87.67 97.3759 91.352 97.3759H144.46C147.996 97.3759 150.864 100.242 150.864 103.78C150.864 107.95 154.244 111.328 158.412 111.328H311.884C316.164 111.328 319.636 107.858 319.636 103.576C319.636 99.2959 316.166 95.8239 311.884 95.8239H228.212C224.396 95.8239 221.304 92.7319 221.304 88.9159C221.304 85.0999 224.396 82.0079 228.212 82.0079H246.206C249.176 82.0079 251.584 79.5999 251.584 76.6299C251.584 73.6599 249.176 71.2519 246.206 71.2519H241.884H128.862C125.316 71.2519 122.442 68.3779 122.442 64.8319C122.44 60.9979 119.33 57.8879 115.494 57.8879Z" fill="white"/>
<path opacity="0.1" d="M196.776 22.886C196.776 26.73 193.66 29.848 189.814 29.848H184.608C180.764 29.848 177.646 32.964 177.646 36.81C177.646 40.654 180.762 43.772 184.608 43.772H285.534C289.378 43.772 292.496 40.656 292.496 36.81C292.496 32.966 289.38 29.848 285.534 29.848H233.886C230.042 29.848 226.924 26.732 226.924 22.886C226.924 19.042 230.04 15.924 233.886 15.924H241.95C245.794 15.924 248.912 12.808 248.912 8.962C248.912 5.118 245.796 2 241.95 2H151.986C148.142 2 145.024 5.116 145.024 8.962C145.024 12.806 148.14 15.924 151.986 15.924H189.814C193.658 15.924 196.776 19.042 196.776 22.886Z" fill="white"/>
<path opacity="0.1" d="M319.284 43.7721H312.238C308.372 43.7721 305.236 40.6381 305.236 36.7701C305.236 32.9041 308.37 29.7681 312.238 29.7681H319.284C323.15 29.7681 326.286 32.9021 326.286 36.7701C326.286 40.6381 323.15 43.7721 319.284 43.7721Z" fill="white"/>
<path opacity="0.2" d="M284.696 83.2899H275.816C272.488 83.2899 269.788 80.5919 269.788 77.2619C269.788 73.9339 272.486 71.2339 275.816 71.2339H284.696C288.024 71.2339 290.724 73.9319 290.724 77.2619C290.722 80.5919 288.024 83.2899 284.696 83.2899Z" fill="#808080"/>
<path d="M88.7105 198.716C58.0465 198.716 33.1885 173.858 33.1885 143.194V69.1241C33.1885 38.4601 58.0465 13.6021 88.7105 13.6021C119.374 13.6021 144.232 38.4601 144.232 69.1241V143.194C144.234 173.856 119.376 198.716 88.7105 198.716Z" fill="#003B2A"/>
<path d="M90.5582 235.946C88.7262 235.946 87.2422 234.462 87.2422 232.63V65.9381C87.2422 64.1061 88.7262 62.6221 90.5582 62.6221C92.3902 62.6221 93.8742 64.1061 93.8742 65.9381V232.632C93.8742 234.462 92.3902 235.946 90.5582 235.946Z" fill="#007E56"/>
<path d="M90.0384 104.788H88.7764C70.2124 104.788 55.1084 89.684 55.1084 71.12C55.1084 69.288 56.5924 67.804 58.4244 67.804C60.2564 67.804 61.7404 69.288 61.7404 71.12C61.7404 86.028 73.8684 98.156 88.7764 98.156H90.0384C91.8704 98.156 93.3544 99.64 93.3544 101.472C93.3544 103.304 91.8684 104.788 90.0384 104.788Z" fill="#007E56"/>
<path d="M90.5582 131.164C88.7262 131.164 87.2422 129.68 87.2422 127.848C87.2422 126.016 88.7262 124.532 90.5582 124.532C104.688 124.532 116.182 113.038 116.182 98.908C116.182 97.076 117.666 95.592 119.498 95.592C121.33 95.592 122.814 97.076 122.814 98.908C122.814 116.694 108.344 131.164 90.5582 131.164Z" fill="#007E56"/>
<path d="M90.5584 167.344H86.1844C69.0484 167.344 55.1064 153.402 55.1064 136.266C55.1064 134.434 56.5904 132.95 58.4224 132.95C60.2544 132.95 61.7384 134.434 61.7384 136.266C61.7384 149.746 72.7044 160.712 86.1844 160.712H90.5584C92.3904 160.712 93.8744 162.196 93.8744 164.028C93.8744 165.86 92.3904 167.344 90.5584 167.344Z" fill="#007E56"/>
<circle cx="60.3525" cy="48.3821" r="3.792" fill="#005B45"/>
<circle cx="120.692" cy="64.0759" r="3.792" fill="#005B45"/>
<circle cx="49.8145" cy="114.786" r="3.792" fill="#005B45"/>
<path d="M286.746 201.386C309.446 201.386 327.848 182.984 327.848 160.284V102.15C327.848 79.4501 309.446 61.0481 286.746 61.0481C264.046 61.0481 245.644 79.4501 245.644 102.15V160.284C245.642 182.984 264.046 201.386 286.746 201.386Z" fill="#007E56"/>
<path d="M285.377 235.84C283.513 235.84 282.001 234.328 282.001 232.464V99.792C282.001 97.928 283.513 96.416 285.377 96.416C287.241 96.416 288.753 97.928 288.753 99.792V232.464C288.753 234.328 287.241 235.84 285.377 235.84Z" fill="#004F3B"/>
<path d="M286.697 129.472H285.763C283.899 129.472 282.387 127.96 282.387 126.096C282.387 124.232 283.899 122.72 285.763 122.72H286.697C294.389 122.72 301.295 118.142 304.291 111.058C305.017 109.34 306.997 108.538 308.715 109.264C310.433 109.99 311.235 111.972 310.509 113.688C306.453 123.278 297.107 129.472 286.697 129.472Z" fill="#004F3B"/>
<path d="M285.377 149C271.703 149 260.577 137.874 260.577 124.2V113.462C260.577 111.598 262.089 110.086 263.953 110.086C265.817 110.086 267.329 111.598 267.329 113.462V124.2C267.329 134.152 275.425 142.248 285.377 142.248C287.241 142.248 288.753 143.76 288.753 145.624C288.753 147.488 287.241 149 285.377 149Z" fill="#004F3B"/>
<path d="M288.615 175.782H285.377C283.513 175.782 282.001 174.27 282.001 172.406C282.001 170.542 283.513 169.03 285.377 169.03H288.615C292.145 169.03 295.535 167.968 298.419 165.96C301.241 163.994 303.389 161.268 304.629 158.078C305.305 156.34 307.261 155.478 308.999 156.154C310.737 156.83 311.597 158.786 310.923 160.524C309.195 164.968 306.205 168.764 302.279 171.5C298.257 174.3 293.531 175.782 288.615 175.782Z" fill="#004F3B"/>
<circle cx="301.256" cy="137.082" r="3.792" fill="#009E6D"/>
<circle cx="310.768" cy="87.2022" r="3.792" fill="#009E6D"/>
<circle cx="274.728" cy="81.228" r="3.792" fill="#009E6D"/>
<path d="M80.2796 152.338L68.0356 150.878L64.1436 153.228L87.3416 168.476L80.2796 152.338Z" fill="#EA0000"/>
<path d="M125.671 159.056L94.1931 178.054C92.6371 178.994 90.6091 178.348 89.8811 176.682L75.7831 144.412C75.1791 143.028 75.6931 141.412 76.9851 140.63L100.577 126.394C101.869 125.614 103.541 125.912 104.483 127.092L126.467 154.602C127.601 156.022 127.227 158.118 125.671 159.056Z" fill="#FF0025"/>
<path d="M120.171 151.46L117.595 148.334L124.755 142.434L115.279 130.936C114.689 130.22 113.625 130.116 112.909 130.708L107.049 135.538L104.473 132.412L110.333 127.582C112.773 125.572 116.395 125.92 118.405 128.36L128.691 140.842C129.665 142.024 129.495 143.776 128.315 144.75L120.171 151.46Z" fill="#FF0025"/>
<path d="M119.343 162.876L125.671 159.056C127.227 158.116 127.603 156.022 126.467 154.6L104.483 127.09C103.541 125.91 101.869 125.612 100.577 126.392L94.9033 129.818L119.343 162.876Z" fill="#EA0000"/>
<g opacity="0.8">
<path d="M87.8856 158.024C87.1636 158.37 86.2956 158.066 85.9496 157.342L81.3996 147.88C81.0536 147.158 81.3576 146.29 82.0816 145.944C82.8036 145.598 83.6716 145.902 84.0176 146.626L88.5676 156.088C88.9136 156.81 88.6096 157.676 87.8856 158.024Z" fill="white"/>
<circle cx="89.2475" cy="161.274" r="1.434" fill="white"/>
</g>
<path d="M63.6572 162.826C63.6572 162.826 58.7292 167.628 58.7072 171.594C58.6832 175.562 62.0392 176.528 63.9452 175.808C65.6952 175.148 67.1472 172.808 65.4252 169.342C63.7512 165.978 63.6572 162.826 63.6572 162.826Z" fill="white"/>
<path d="M51.0196 183.374C51.0196 183.374 47.4936 186.808 47.4776 189.648C47.4616 192.488 49.8616 193.178 51.2256 192.662C52.4776 192.19 53.2256 190.64 52.2856 188.036C51.3376 185.414 51.0196 183.374 51.0196 183.374Z" fill="white"/>
<path d="M72.6418 190.236C72.6418 190.236 70.7438 192.754 70.2158 195.544C69.6878 198.332 71.9238 199.446 73.3598 199.184C74.6758 198.944 75.9998 197.486 75.2358 194.824C74.4898 192.242 72.6418 190.236 72.6418 190.236Z" fill="white"/>
<path d="M322.074 237.142H34.7122C32.1282 237.142 30.0342 235.048 30.0342 232.464C30.0342 229.88 32.1282 227.786 34.7122 227.786H322.074C324.658 227.786 326.752 229.88 326.752 232.464C326.752 235.048 324.658 237.142 322.074 237.142Z" fill="#511009"/>
<path d="M75.2181 207.256H80.6101V212.648C80.6101 221.008 73.8321 227.786 65.4721 227.786H60.0801V222.394C60.0801 214.032 66.8581 207.256 75.2181 207.256Z" fill="#00AF04"/>
<path d="M44.9418 207.256H39.5498V212.648C39.5498 221.008 46.3278 227.786 54.6878 227.786H60.0798V222.394C60.0798 214.032 53.3018 207.256 44.9418 207.256Z" fill="#00AF04"/>
<path d="M151.052 207.256H156.444V212.648C156.444 221.008 149.666 227.786 141.306 227.786H135.914V222.394C135.914 214.032 142.69 207.256 151.052 207.256Z" fill="#00AF04"/>
<path d="M120.774 207.256H115.382V212.648C115.382 221.008 122.16 227.786 130.52 227.786H135.912V222.394C135.914 214.032 129.136 207.256 120.774 207.256Z" fill="#00AF04"/>
<path d="M283.548 207.256H288.94V212.648C288.94 221.008 282.162 227.786 273.802 227.786H268.41V222.394C268.41 214.032 275.188 207.256 283.548 207.256Z" fill="#00AF04"/>
<path d="M253.272 207.256H247.88V212.648C247.88 221.008 254.658 227.786 263.018 227.786H268.41V222.394C268.41 214.032 261.632 207.256 253.272 207.256Z" fill="#00AF04"/>
<circle cx="215.768" cy="136.058" r="66.936" fill="#FF8D00"/>
<path d="M218.242 227.45C215.302 227.45 212.92 225.068 212.92 222.128V189.974C212.92 187.034 215.302 184.652 218.242 184.652C221.182 184.652 223.564 187.034 223.564 189.974V222.128C223.564 225.068 221.182 227.45 218.242 227.45Z" fill="#FFD300"/>
<path d="M194.635 227.45C191.695 227.45 189.313 225.068 189.313 222.128V189.974C189.313 187.034 191.695 184.652 194.635 184.652C197.575 184.652 199.957 187.034 199.957 189.974V222.128C199.957 225.068 197.575 227.45 194.635 227.45Z" fill="#FFD300"/>
<path d="M119.026 141.298C116.356 143.014 116.166 146.838 118.644 148.824C120.236 150.1 122.306 151.446 124.916 152.576C128.988 154.34 133.576 155.236 138.552 155.238C138.558 155.238 138.562 155.238 138.568 155.238C144.534 155.238 151.09 153.942 158.05 151.388C160.464 150.502 161.704 147.826 160.818 145.412C159.932 142.998 157.256 141.758 154.842 142.644C137.478 149.018 128.346 144.68 124.484 141.59C122.918 140.336 120.734 140.2 119.048 141.284L119.026 141.298Z" fill="#FFD300"/>
<circle cx="201.474" cy="136.02" r="66.936" fill="#FFE700"/>
<path d="M142.72 168.106C148.814 179.24 157.978 188.452 169.08 194.604L260.23 103.934C254.136 92.8 244.972 83.588 233.87 77.436L142.72 168.106Z" fill="#FFEE7A"/>
<circle cx="201.474" cy="136.02" r="50.192" fill="#FFCE00"/>
<path d="M219.604 136.748C221.226 136.752 222.494 138.194 222.272 139.8C220.758 150.754 211.342 159.176 199.976 159.146C188.61 159.116 179.24 150.646 177.782 139.684C177.568 138.076 178.844 136.642 180.466 136.646L219.604 136.748Z" fill="#EA0000"/>
<path d="M199.978 159.146C208.596 159.168 216.084 154.328 219.864 147.212C216.648 146.01 213.076 145.314 209.296 145.304C200 145.28 191.888 149.3 187.49 155.288C191.058 157.702 195.346 159.134 199.978 159.146Z" fill="#FF0025"/>
<path d="M182.966 130.37C180.622 130.364 178.726 128.458 178.732 126.114L178.738 123.806C178.744 121.462 180.65 119.566 182.994 119.572C185.338 119.578 187.234 121.484 187.228 123.828L187.222 126.136C187.216 128.48 185.31 130.376 182.966 130.37Z" fill="url(#paint0_linear)"/>
<path d="M216.466 130.458C214.122 130.452 212.226 128.546 212.232 126.202L212.238 123.894C212.244 121.55 214.15 119.654 216.494 119.66C218.838 119.666 220.734 121.572 220.728 123.916L220.722 126.224C220.716 128.568 218.81 130.464 216.466 130.458Z" fill="url(#paint1_linear)"/>
<path opacity="0.8" d="M156.162 139.334C156.236 111.614 178.766 89.2019 206.486 89.2739C216.14 89.2999 225.15 92.0519 232.792 96.7959C224.242 89.9599 213.406 85.8579 201.608 85.8259C173.888 85.7519 151.358 108.166 151.284 135.886C151.236 153.952 160.74 169.81 175.038 178.688C163.498 169.464 156.12 155.256 156.162 139.334Z" fill="#FF9F00"/>
<path d="M277.302 198.012C274.73 198.012 272.644 195.926 272.644 193.354V146.344C272.644 143.772 274.728 141.686 277.302 141.686C279.876 141.686 281.96 143.772 281.96 146.344V193.354C281.958 195.928 279.874 198.012 277.302 198.012Z" fill="#FFD300"/>
<defs>
<linearGradient id="paint0_linear" x1="178.619" y1="120.752" x2="178.572" y2="131.866" gradientUnits="userSpaceOnUse">
<stop stop-color="#3D3C3E"/>
<stop offset="0.0787" stop-color="#313032"/>
<stop offset="0.2595" stop-color="#1B1B1C"/>
<stop offset="0.4575" stop-color="#0C0C0C"/>
<stop offset="0.6836" stop-color="#030303"/>
<stop offset="1"/>
</linearGradient>
<linearGradient id="paint1_linear" x1="212.119" y1="120.84" x2="212.072" y2="131.955" gradientUnits="userSpaceOnUse">
<stop stop-color="#3D3C3E"/>
<stop offset="0.0787" stop-color="#313032"/>
<stop offset="0.2595" stop-color="#1B1B1C"/>
<stop offset="0.4575" stop-color="#0C0C0C"/>
<stop offset="0.6836" stop-color="#030303"/>
<stop offset="1"/>
</linearGradient>
<clipPath id="clip0">
<rect width="28" height="28" fill="white" transform="translate(4 192)"/>
</clipPath>
<clipPath id="clip1">
<rect width="48" height="48" fill="white" transform="translate(345 153)"/>
</clipPath>
<clipPath id="clip2">
<rect width="64" height="64" fill="white"/>
</clipPath>
</defs>
</svg>
