<svg width="391" height="349" viewBox="0 0 391 349" fill="none" xmlns="http://www.w3.org/2000/svg">
<g opacity="0.8">
<ellipse opacity="0.5" cx="15.692" cy="144.839" rx="0.92048" ry="0.920956" fill="white"/>
<ellipse opacity="0.5" cx="366.049" cy="160.028" rx="0.920486" ry="0.920959" fill="white"/>
<ellipse cx="186.172" cy="81.8137" rx="0.920471" ry="0.92095" fill="white"/>
<ellipse cx="56.0445" cy="271.756" rx="0.920477" ry="0.920937" fill="white"/>
<ellipse cx="304.273" cy="64.9024" rx="0.920486" ry="0.92095" fill="white"/>
<ellipse cx="328.453" cy="157.962" rx="0.920486" ry="0.920944" fill="white"/>
<ellipse opacity="0.5" cx="104.058" cy="60.5617" rx="0.920475" ry="0.92095" fill="white"/>
<ellipse opacity="0.5" cx="308.364" cy="231.087" rx="0.920471" ry="0.920944" fill="white"/>
<ellipse opacity="0.4" cx="26.2916" cy="257.951" rx="0.920481" ry="0.920952" fill="white"/>
<ellipse opacity="0.5" cx="379.705" cy="290.242" rx="0.920486" ry="0.920929" fill="white"/>
<ellipse opacity="0.2" cx="68.5308" cy="218.52" rx="0.920479" ry="0.920952" fill="white"/>
<ellipse opacity="0.2" cx="364.207" cy="265.701" rx="0.920471" ry="0.920944" fill="white"/>
<ellipse opacity="0.2" cx="294.959" cy="290.242" rx="0.920486" ry="0.920929" fill="white"/>
<ellipse opacity="0.2" cx="63.9771" cy="118.776" rx="0.920477" ry="0.920952" fill="white"/>
<ellipse opacity="0.2" cx="117.303" cy="130.218" rx="0.886265" ry="0.886719" fill="white"/>
<ellipse opacity="0.2" cx="26.2916" cy="201.532" rx="0.920481" ry="0.920952" fill="white"/>
<ellipse opacity="0.2" cx="28.132" cy="61.4827" rx="0.461054" ry="0.461288" fill="white"/>
<ellipse opacity="0.2" cx="97.9311" cy="226.641" rx="0.420326" ry="0.420547" fill="white"/>
<ellipse opacity="0.2" cx="359.909" cy="210.162" rx="0.420319" ry="0.420547" fill="white"/>
<ellipse opacity="0.2" cx="307.443" cy="187.007" rx="0.420303" ry="0.420547" fill="white"/>
<ellipse opacity="0.2" cx="98.3507" cy="299.515" rx="0.461056" ry="0.461288" fill="white"/>
<ellipse opacity="0.2" cx="364.668" cy="103.307" rx="0.46106" ry="0.461288" fill="white"/>
<ellipse opacity="0.2" cx="48.5211" cy="71.8689" rx="0.920481" ry="0.92095" fill="white"/>
<ellipse opacity="0.2" cx="270.244" cy="320.079" rx="0.651657" ry="0.652008" fill="white"/>
<ellipse opacity="0.2" cx="239.119" cy="64.9024" rx="0.651657" ry="0.651997" fill="white"/>
<ellipse opacity="0.2" cx="359.909" cy="306.519" rx="0.651672" ry="0.652008" fill="white"/>
<ellipse opacity="0.4" cx="16.6129" cy="298.212" rx="0.920479" ry="0.920944" fill="white"/>
<ellipse opacity="0.2" cx="237.226" cy="280.9" rx="0.920471" ry="0.920944" fill="white"/>
<ellipse opacity="0.1" cx="150.105" cy="287.29" rx="1.75136" ry="1.75223" fill="white"/>
</g>
<path fill-rule="evenodd" clip-rule="evenodd" d="M55.0996 92.1413C55.0996 94.9726 57.4016 97.2774 60.2331 97.2774C63.0646 97.2774 65.3666 94.9726 65.3666 92.1413C65.3666 89.3099 63.063 87.0051 60.2331 87.0051C57.4033 87.0051 55.0996 89.3099 55.0996 92.1413ZM57.3772 92.1413C57.3772 90.565 58.6577 89.2839 60.2331 89.2839C61.8085 89.2839 63.0891 90.565 63.0891 92.1413C63.0891 93.7175 61.8085 94.9986 60.2331 94.9986C58.6577 94.9986 57.3772 93.7175 57.3772 92.1413Z" fill="#FFCE00"/>
<path fill-rule="evenodd" clip-rule="evenodd" d="M71.2871 149.573C71.2871 150.825 72.3053 151.843 73.5565 151.843C74.8077 151.843 75.826 150.825 75.826 149.573C75.826 148.321 74.8077 147.302 73.5565 147.302C72.3053 147.302 71.2871 148.321 71.2871 149.573ZM72.4258 149.573C72.4258 148.948 72.9325 148.442 73.5565 148.442C74.1788 148.442 74.6855 148.948 74.6871 149.573C74.6871 150.197 74.1804 150.704 73.5565 150.704C72.9325 150.704 72.4258 150.197 72.4258 149.573Z" fill="#FF1E00"/>
<path fill-rule="evenodd" clip-rule="evenodd" d="M44.582 154.469L49.6113 159.501L54.6405 154.469L49.6113 149.437L44.582 154.469ZM49.6113 157.084L46.9981 154.469L49.6113 151.855L52.2245 154.469L49.6113 157.084Z" fill="#923DF0"/>
<path fill-rule="evenodd" clip-rule="evenodd" d="M62.1299 130.172L79.0537 132.702L81.5805 115.771L64.6584 113.242L62.1299 130.172ZM75.5965 128.027L66.8039 126.714L68.117 117.916L76.9096 119.23L75.5965 128.027Z" fill="#FF0080"/>
<path fill-rule="evenodd" clip-rule="evenodd" d="M32.4186 116.661L24.9277 133.134L42.9317 131.388L32.4186 116.661ZM29.1 130.153L32.9139 121.767L38.2657 129.265L29.1 130.153Z" fill="#0077D2"/>
<path fill-rule="evenodd" clip-rule="evenodd" d="M81.126 97.6475L84.7395 103.947L88.3856 97.667L81.126 97.6475ZM84.7444 101.667L83.0956 98.7917L86.4077 98.8015L84.7444 101.667Z" fill="#00D900"/>
<ellipse opacity="0.4" cx="200.01" cy="231.418" rx="25.7425" ry="7.10355" fill="#2D26A8"/>
<ellipse cx="208.122" cy="158.231" rx="54.103" ry="54.1307" fill="#FF9600"/>
<path d="M210.121 232.14C207.746 232.14 205.818 230.214 205.818 227.836V201.832C205.818 199.456 207.744 197.527 210.121 197.527C212.498 197.527 214.424 199.454 214.424 201.832V227.836C214.424 230.214 212.496 232.14 210.121 232.14Z" fill="#FFCE00"/>
<path d="M191.04 232.14C188.665 232.14 186.737 230.214 186.737 227.836V201.832C186.737 199.456 188.663 197.527 191.04 197.527C193.417 197.527 195.343 199.454 195.343 201.832V227.836C195.343 230.214 193.417 232.14 191.04 232.14Z" fill="#FFCE00"/>
<path d="M120.13 170.21C121.127 168.67 123.09 168.07 124.775 168.797C126.619 169.594 129.247 170.494 132.266 170.833C139.718 171.674 146.187 168.787 151.495 162.254C152.818 160.626 155.263 160.313 156.879 161.651C158.465 162.965 158.704 165.314 157.406 166.919C149.348 176.893 140.084 178.846 133.126 178.461C132.422 178.422 131.741 178.36 131.088 178.279C127.359 177.817 124.138 176.724 121.81 175.72C119.664 174.795 118.861 172.169 120.13 170.21Z" fill="#FFCE00"/>
<ellipse cx="196.568" cy="158.202" rx="54.103" ry="54.1307" fill="#FFDE00"/>
<path d="M149.077 184.15C154.002 193.154 161.41 200.605 170.383 205.579L244.058 132.254C239.133 123.25 231.725 115.799 222.751 110.824L149.077 184.15Z" fill="#FFE952"/>
<ellipse cx="196.568" cy="158.202" rx="40.5695" ry="40.5903" fill="#FFCB00"/>
<path d="M211.222 158.79C212.533 158.794 213.558 159.959 213.379 161.258C212.154 170.117 204.544 176.927 195.357 176.903C186.17 176.879 178.596 170.029 177.418 161.164C177.246 159.863 178.277 158.704 179.588 158.707L211.222 158.79Z" fill="#D90000"/>
<path d="M195.357 176.903C202.323 176.921 208.374 173.006 211.43 167.252C208.83 166.279 205.943 165.718 202.889 165.71C195.375 165.69 188.818 168.94 185.263 173.785C188.148 175.736 191.613 176.893 195.357 176.903Z" fill="#FF0036"/>
<path d="M181.607 153.631C179.712 153.627 178.181 152.086 178.186 150.19L178.19 148.324C178.195 146.428 179.735 144.896 181.63 144.901C183.524 144.906 185.056 146.446 185.051 148.342L185.046 150.208C185.043 152.104 183.502 153.636 181.607 153.631Z" fill="url(#paint0_linear)"/>
<path d="M208.685 153.703C206.79 153.698 205.259 152.158 205.264 150.262L205.269 148.396C205.273 146.5 206.813 144.968 208.708 144.973C210.602 144.978 212.134 146.518 212.129 148.414L212.124 150.28C212.119 152.176 210.58 153.708 208.685 153.703Z" fill="url(#paint1_linear)"/>
<path d="M273.397 200.854C272.791 200.854 272.177 200.707 271.607 200.399C255.978 191.928 251.673 171.573 251.497 170.711C251.081 168.673 252.396 166.683 254.434 166.269C256.47 165.853 258.456 167.167 258.873 169.203C258.934 169.488 262.726 187.019 275.194 193.778C277.022 194.769 277.702 197.055 276.711 198.883C276.029 200.14 274.733 200.854 273.397 200.854Z" fill="#FFCE00"/>
<path opacity="0.8" d="M159.942 160.882C160.001 138.464 178.212 120.34 200.618 120.399C208.422 120.42 215.704 122.645 221.88 126.482C214.969 120.953 206.211 117.636 196.674 117.612C174.268 117.553 156.057 135.677 155.998 158.094C155.959 172.704 163.642 185.529 175.198 192.707C165.873 185.247 159.908 173.757 159.942 160.882Z" fill="#FFA800"/>
<path d="M127.093 180.244C124.18 179.379 122.521 176.314 123.386 173.4L129.172 153.922L139.719 157.058L133.934 176.536C133.069 179.449 130.006 181.11 127.093 180.244Z" fill="#FA0010"/>
<rect width="11.0043" height="4.55911" transform="matrix(0.958521 0.285023 -0.284754 0.958601 129.17 153.931)" fill="#C10000"/>
<path d="M104.143 111.674L97.9246 132.609L91.7061 153.545C111.999 149.128 139.931 155.085 139.931 155.085L142.657 145.908L145.382 136.732C145.382 136.732 119.755 127.796 104.143 111.674Z" fill="#E9F1F9"/>
<path d="M143.675 142.477L144.561 139.323C144.307 139.253 122.16 132.904 102.887 115.894L100.688 123.3C119.387 138.815 138.867 143.649 142.523 144.737C142.735 144.8 142.88 144.841 142.964 144.865L143.675 142.477Z" fill="white"/>
<path d="M126.402 141.076L123.054 152.347C132.757 153.498 139.93 155.085 139.93 155.085L142.656 145.908L145.381 136.732C145.381 136.732 138.513 134.371 129.67 130.068L126.402 141.076Z" fill="#D5DFE5"/>
<path d="M89.9933 155.508C88.47 155.054 87.6017 153.452 88.0546 151.928L100.304 110.684C100.757 109.16 102.359 108.291 103.882 108.744C105.405 109.198 106.274 110.8 105.821 112.324L93.571 153.568C93.1181 155.092 91.5166 155.961 89.9933 155.508Z" fill="#FF2020"/>
<path d="M139.543 157.005L128.409 153.695L134.826 132.091L145.96 135.401C151.923 137.175 155.32 143.447 153.549 149.415C151.776 155.379 145.506 158.779 139.543 157.005Z" fill="#FA0010"/>
<path d="M145.369 143.4L139.869 141.765C139.466 141.646 139.237 141.222 139.357 140.82C139.476 140.417 139.9 140.187 140.302 140.308L145.802 141.943C146.205 142.062 146.434 142.485 146.314 142.888C146.193 143.291 145.771 143.52 145.369 143.4Z" fill="#6F0300"/>
<path d="M144.663 145.775L139.163 144.14C138.76 144.021 138.531 143.597 138.651 143.194C138.77 142.792 139.194 142.562 139.596 142.683L145.096 144.318C145.499 144.436 145.728 144.86 145.608 145.263C145.487 145.666 145.065 145.894 144.663 145.775Z" fill="#6F0300"/>
<path d="M143.958 148.148L138.458 146.513C138.055 146.394 137.826 145.97 137.946 145.568C138.065 145.165 138.489 144.935 138.891 145.056L144.391 146.691C144.794 146.81 145.023 147.234 144.903 147.636C144.784 148.039 144.36 148.269 143.958 148.148Z" fill="#6F0300"/>
<rect width="2.46513" height="22.538" transform="matrix(0.958521 0.285023 -0.284754 0.958601 134.827 132.1)" fill="#E9F1F9"/>
<path d="M126.891 154.862C125.876 154.56 125.296 153.491 125.599 152.476L131.888 131.302C132.189 130.287 133.258 129.706 134.273 130.009C135.288 130.311 135.868 131.38 135.565 132.396L129.276 153.569C128.975 154.585 127.906 155.164 126.891 154.862Z" fill="#FF2020"/>
<path d="M302.902 130.518H272.758V114.586C272.758 105.788 279.887 98.6548 288.681 98.6548H302.902C311.697 98.6548 318.826 105.788 318.826 114.586C318.826 123.385 311.697 130.518 302.902 130.518Z" fill="white"/>
<ellipse cx="284.994" cy="115.385" rx="2.10652" ry="2.10759" fill="#608DDB"/>
<ellipse cx="295.304" cy="115.385" rx="2.10652" ry="2.10759" fill="#608DDB"/>
<ellipse cx="305.613" cy="115.385" rx="2.10652" ry="2.10759" fill="#608DDB"/>
<g clip-path="url(#clip0)">
<path d="M98.289 292.32C106.525 292.32 113.202 284.928 113.202 275.809C113.202 266.691 106.525 259.299 98.289 259.299C90.0528 259.299 83.376 266.691 83.376 275.809C83.376 284.928 90.0528 292.32 98.289 292.32Z" fill="white"/>
<path d="M87.6802 270.579C87.4385 270.977 87.1692 271.525 86.9793 271.956H86.9751L86.8682 272.217C86.7076 272.609 86.5702 273.008 86.4567 273.412L86.3071 273.946H86.8614H87.5161H87.5268H87.5374H87.5481H87.5587H87.5694H87.58H87.5907H87.6014H87.612H87.6227H87.6333H87.644H87.6546H87.6653H87.6759H87.6866H87.6972H87.7079H87.7185H87.7292H87.7398H87.7505H87.7611H87.7718H87.7824H87.793H87.8037H87.8144H87.825H87.8356H87.8463H87.8569H87.8676H87.8782H87.8889H87.8995H87.9102H87.9209H87.9315H87.9422H87.9528H87.9635H87.9742H87.9848H87.9955H88.0061H88.0168H88.0274H88.0381H88.0487H88.0594H88.07H88.0807H88.0913H88.102H88.1126H88.1233H88.1339H88.1446H88.1552H88.1659H88.1765H88.1872H88.1978H88.2085H88.2191H88.2298H88.2404H88.2511H88.2617H88.2724H88.283H88.2937H88.3043H88.315H88.3256H88.3363H88.3469H88.3576H88.3683H88.3789H88.3896H88.4002H88.4109H88.4215H88.4322H88.4428H88.4535H88.4641H88.4748H88.4854H88.4961H88.5067H88.5174H88.528H88.5387H88.5493H88.56H88.5706H88.5813H88.5919H88.6026H88.6132H88.6239H88.6345H88.6452H88.6558H88.6665H88.6771H88.6878H88.6984H88.7091H88.7197H88.7304H88.741H88.7517H88.7624H88.773H88.7837H88.7943H88.805H88.8156H88.8263H88.837H88.8476H88.8583H88.8689H88.8795H88.8902H88.9008H88.9115H88.9221H88.9328H88.9434H88.9541H88.9647H88.9754H88.986H88.9967H89.0073H89.018H89.0286H89.0393H89.0499H89.0606H89.0712H89.0819H89.0925H89.1032H89.1138H89.1245H89.1352H89.1458H89.1565H89.1671H89.1778H89.1884H89.1991H89.2098H89.2204H89.2311H89.2417H89.2524H89.263H89.2737H89.2843H89.295H89.3056H89.3162H89.3269H89.3376H89.3483H89.3588H89.3695H89.3802H89.3909H89.4014H89.4121H89.4228H89.4335H89.444H89.4547H89.4654H89.4761H89.4866H89.4973H89.508H89.5186H89.5293H89.5399H89.5506H89.5612H89.5719H89.5825H89.5932H89.6039H89.6145H89.6252H89.6358H89.6465H89.6571H89.6678H89.6785H89.6891H89.6997H89.7104H89.721H89.7317H89.7423H89.753H89.7636H89.7743H89.785H89.7956H89.8062H89.8169H89.8276H89.8382H89.8488H89.8595H89.8702H89.8807H89.8914H89.9021H89.9128H89.9234H89.934H89.9447H89.9554H89.966H89.9767H89.9873H89.998H90.0086H90.0193H90.0299H90.0406H90.0512H90.0619H90.0726H90.0832H90.0938H90.1045H90.1152H90.1258H90.1364H90.1471H90.1578H90.1684H90.179H90.1897H90.2004H90.211H90.2217H90.2323H90.243H90.2536H90.2643H90.2749H90.2855H90.2962H90.3069H90.3175H90.3281H90.3388H90.3495H90.3601H90.3708H90.3814H90.3921H90.4027H90.4134H90.424H90.4347H90.4454H90.456H90.4667H90.4773H90.488H90.4986H90.5093H90.52H90.5305H90.5412H90.5519H90.5626H90.5731H90.5838H90.5945H90.6052H90.6157H90.6264H90.6371H90.6478H90.6584H90.669H90.6797H90.6904H90.701H90.7116H90.7223H90.7329H90.7436H90.7542H90.7649H90.7755H90.7862H90.7968H90.8075H90.8182H90.8288H90.8395H90.8501H90.8608H90.8714H90.8821H90.8928H90.9034H90.9141H90.9247H90.9353H90.946H90.9567H90.9674H90.9779H90.9886H90.9993H91.01H91.0205H91.0312H91.0419H91.0526H91.0631H91.0738H91.0845H91.0952H91.1057H91.1164H91.1271H91.1378H91.1483H91.159H91.1697H91.1803H91.1909H91.2016H91.2123H91.2229H91.2336H91.2442H91.2549H91.2655H91.2762H91.2869H91.2975H91.3082H91.3188H91.3295H91.3402H91.3508H91.3615H91.3721H91.3827H91.3934H91.4041H91.4147H91.4253H91.436H91.4467H91.4573H91.4679H91.4786H91.4893H91.4999H91.5105H91.5212H91.5319H91.5426H91.5531H91.5638H91.5745H91.5852H91.5957H91.6064H91.6171H91.6277H91.6383H91.649H91.6597H91.6703H91.681H91.6916H91.7023H91.7129H91.7236H91.7343H91.7449H91.7556H91.7662H91.7769H91.7875H91.7982H91.8088H91.8195H91.8302H91.8408H91.8514H91.8621H91.8727H91.8834H91.894H91.9047H91.9153H91.926H91.9366H91.9473H91.9579H91.9686H91.9793H91.9899H92.0005H92.0112H92.0219H92.0325H92.0431H92.0538H92.0645H92.0751H92.0857H92.0964H92.1071H92.1177H92.1284H92.139H92.1497H92.1603H92.171H92.1817H92.1923H92.2029H92.2136H92.2243H92.2349H92.2455H92.2562H92.2669H92.2776H92.2881H92.2988H92.3095H92.3201H92.3307H92.3414H92.3521H92.3627H92.3733H92.384H92.3947H92.4053H92.416H92.4266H92.4373H92.4479H92.4586H92.4692H92.4799H92.4905H92.5012H92.5118H92.5225H92.5331H92.5438H92.5544H92.5651H92.5758H92.5864H92.5971H92.6077H92.6184H92.6291H92.6397H92.6503H92.661H92.6717H92.6823H92.6929H92.7036H92.7143H92.725H92.7355H92.7462H92.7569H92.7676H92.7781H92.7888H92.7995H92.81H92.8207H92.8314H92.8421H92.8527H92.8633H92.874H92.8847H92.8953H92.9059H92.9166H92.9273H92.9379H92.9486H92.9592H92.9699C98.3976 273.946 103.826 273.946 109.253 273.947H109.807L109.657 273.413C109.425 272.585 109.096 271.795 108.687 271.044C108.428 270.568 108.168 270.17 107.836 269.821L107.836 269.821C107.501 269.47 107.106 269.182 106.589 268.907L106.589 268.907C105.695 268.433 104.61 268.157 103.448 268.157H99.6005L100.507 259.527C109.102 260.72 115.72 268.097 115.72 277.02C115.72 286.775 107.812 294.683 98.0569 294.683C88.3019 294.683 80.3936 286.775 80.3936 277.02C80.3936 268.096 87.0117 260.719 95.6069 259.527L96.5133 268.157H92.6661C91.5462 268.157 90.4979 268.413 89.623 268.856H89.6209L89.5288 268.905C88.7427 269.321 88.0954 269.895 87.6803 270.579H87.6802ZM98.1468 290.071C98.8563 290.082 99.5353 289.796 100.29 289.276C103.274 287.223 105.721 284.376 107.035 280.957C107.648 279.361 107.994 277.679 108.055 275.978L108.07 275.543H107.635H88.7316H88.296L88.3116 275.978C88.4005 278.465 89.0988 280.881 90.3272 283.074H90.3272C91.6748 285.479 93.6341 287.584 96.0247 289.241C96.7676 289.755 97.4397 290.06 98.1468 290.071Z" fill="#F9603E" stroke="#F9603E"/>
<path d="M100.001 279.762C100.001 277.807 99.048 276.123 98.3224 275.576C98.3224 275.576 98.2666 275.545 98.2723 275.624C98.2127 279.402 96.2822 280.426 95.2217 281.804C92.7735 284.988 95.0485 288.477 97.3696 289.122C98.663 289.484 97.0694 288.483 96.8635 286.372C96.6113 283.823 100.001 281.876 100.001 279.762Z" fill="#1B2143"/>
<path d="M101.114 281.05C101.098 281.04 101.077 281.032 101.064 281.057C101.023 281.533 100.538 282.549 99.9222 283.484C97.8338 286.652 99.0234 288.181 99.6932 289.003C100.082 289.478 99.6932 289.003 100.663 288.516C101.862 287.788 102.64 286.529 102.755 285.132C102.946 282.88 101.595 281.462 101.114 281.05Z" fill="#2CA6E0"/>
</g>
<g clip-path="url(#clip1)">
<path d="M353.385 190.427C364.367 190.427 373.269 180.571 373.269 168.413C373.269 156.254 364.367 146.398 353.385 146.398C342.403 146.398 333.501 156.254 333.501 168.413C333.501 180.571 342.403 190.427 353.385 190.427Z" fill="white"/>
<path d="M339.24 161.438C338.918 161.969 338.559 162.7 338.305 163.275H338.3L338.157 163.623C337.943 164.146 337.76 164.677 337.609 165.217L337.409 165.928H338.148H339.021H339.035H339.05H339.064H339.078H339.092H339.106H339.121H339.135H339.149H339.163H339.177H339.192H339.206H339.22H339.234H339.248H339.263H339.277H339.291H339.305H339.319H339.334H339.348H339.362H339.376H339.39H339.405H339.419H339.433H339.447H339.461H339.476H339.49H339.504H339.518H339.532H339.547H339.561H339.575H339.589H339.603H339.618H339.632H339.646H339.66H339.674H339.689H339.703H339.717H339.731H339.746H339.76H339.774H339.788H339.802H339.816H339.831H339.845H339.859H339.873H339.888H339.902H339.916H339.93H339.944H339.959H339.973H339.987H340.001H340.015H340.03H340.044H340.058H340.072H340.086H340.101H340.115H340.129H340.143H340.157H340.172H340.186H340.2H340.214H340.228H340.243H340.257H340.271H340.285H340.299H340.314H340.328H340.342H340.356H340.37H340.385H340.399H340.413H340.427H340.441H340.456H340.47H340.484H340.498H340.512H340.527H340.541H340.555H340.569H340.583H340.598H340.612H340.626H340.64H340.654H340.669H340.683H340.697H340.711H340.725H340.74H340.754H340.768H340.782H340.796H340.811H340.825H340.839H340.853H340.867H340.882H340.896H340.91H340.924H340.938H340.953H340.967H340.981H340.995H341.009H341.024H341.038H341.052H341.066H341.081H341.095H341.109H341.123H341.137H341.151H341.166H341.18H341.194H341.208H341.223H341.237H341.251H341.265H341.279H341.294H341.308H341.322H341.336H341.35H341.365H341.379H341.393H341.407H341.421H341.436H341.45H341.464H341.478H341.492H341.507H341.521H341.535H341.549H341.563H341.578H341.592H341.606H341.62H341.634H341.649H341.663H341.677H341.691H341.705H341.72H341.734H341.748H341.762H341.776H341.791H341.805H341.819H341.833H341.847H341.862H341.876H341.89H341.904H341.918H341.933H341.947H341.961H341.975H341.989H342.004H342.018H342.032H342.046H342.06H342.075H342.089H342.103H342.117H342.131H342.146H342.16H342.174H342.188H342.203H342.217H342.231H342.245H342.259H342.274H342.288H342.302H342.316H342.33H342.344H342.359H342.373H342.387H342.401H342.416H342.43H342.444H342.458H342.472H342.487H342.501H342.515H342.529H342.543H342.558H342.572H342.586H342.6H342.614H342.629H342.643H342.657H342.671H342.685H342.7H342.714H342.728H342.742H342.756H342.771H342.785H342.799H342.813H342.827H342.842H342.856H342.87H342.884H342.898H342.913H342.927H342.941H342.955H342.969H342.984H342.998H343.012H343.026H343.04H343.055H343.069H343.083H343.097H343.111H343.126H343.14H343.154H343.168H343.182H343.197H343.211H343.225H343.239H343.254H343.268H343.282H343.296H343.31H343.325H343.339H343.353H343.367H343.381H343.395H343.41H343.424H343.438H343.452H343.467H343.481H343.495H343.509H343.523H343.538H343.552H343.566H343.58H343.594H343.609H343.623H343.637H343.651H343.665H343.68H343.694H343.708H343.722H343.736H343.751H343.765H343.779H343.793H343.807H343.822H343.836H343.85H343.864H343.878H343.893H343.907H343.921H343.935H343.949H343.964H343.978H343.992H344.006H344.02H344.035H344.049H344.063H344.077H344.091H344.106H344.12H344.134H344.148H344.162H344.177H344.191H344.205H344.219H344.233H344.248H344.262H344.276H344.29H344.304H344.319H344.333H344.347H344.361H344.376H344.39H344.404H344.418H344.432H344.447H344.461H344.475H344.489H344.503H344.517H344.532H344.546H344.56H344.574H344.589H344.603H344.617H344.631H344.645H344.66H344.674H344.688H344.702H344.716H344.731H344.745H344.759H344.773H344.787H344.802H344.816H344.83H344.844H344.858H344.873H344.887H344.901H344.915H344.929H344.944H344.958H344.972H344.986H345H345.015H345.029H345.043H345.057H345.071H345.086H345.1H345.114H345.128H345.143H345.157H345.171H345.185H345.199H345.213H345.228H345.242H345.256H345.27H345.284H345.299H345.313H345.327H345.341H345.356H345.37H345.384H345.398H345.412H345.426H345.441H345.455H345.469H345.483H345.497H345.512H345.526H345.54H345.554H345.569H345.583H345.597H345.611H345.625H345.64H345.654H345.668H345.682H345.696H345.711H345.725H345.739H345.753H345.767H345.782H345.796H345.81H345.824H345.838H345.853H345.867H345.881H345.895H345.909H345.924H345.938H345.952H345.966H345.98H345.995H346.009H346.023H346.037H346.051H346.066H346.08H346.094H346.108H346.122H346.137H346.151H346.165H346.179H346.193H346.208H346.222H346.236H346.25H346.264H346.279H346.293C353.53 165.928 360.767 165.928 368.003 165.929H368.742L368.543 165.217C368.234 164.113 367.794 163.06 367.249 162.059C366.904 161.424 366.557 160.894 366.114 160.428L366.114 160.428C365.668 159.961 365.141 159.575 364.452 159.21L364.452 159.21C363.26 158.578 361.813 158.21 360.263 158.21H355.134L356.342 146.703C367.803 148.293 376.627 158.129 376.627 170.027C376.626 183.033 366.082 193.577 353.076 193.577C340.069 193.577 329.524 183.033 329.524 170.027C329.524 158.129 338.349 148.292 349.809 146.702L351.017 158.209H345.888C344.395 158.209 342.997 158.551 341.83 159.142H341.828L341.705 159.207C340.657 159.761 339.794 160.526 339.24 161.438H339.24ZM353.195 187.428C354.141 187.443 355.047 187.062 356.054 186.369C360.032 183.63 363.294 179.835 365.046 175.276C365.863 173.148 366.324 170.905 366.406 168.638L366.427 168.057H365.846H340.642H340.061L340.082 168.638C340.2 171.953 341.131 175.174 342.769 178.098H342.769C344.566 181.305 347.178 184.112 350.366 186.321C351.357 187.007 352.253 187.414 353.195 187.428Z" fill="#F9603E" stroke="#F9603E"/>
<path d="M355.668 173.683C355.668 171.076 354.398 168.83 353.43 168.101C353.43 168.101 353.356 168.06 353.363 168.165C353.284 173.203 350.71 174.568 349.296 176.406C346.032 180.65 349.065 185.303 352.16 186.163C353.884 186.645 351.76 185.311 351.485 182.496C351.149 179.098 355.668 176.501 355.668 173.683Z" fill="#1B2143"/>
<path d="M357.151 175.4C357.131 175.387 357.103 175.376 357.085 175.41C357.031 176.044 356.384 177.399 355.563 178.646C352.778 182.87 354.364 184.908 355.258 186.003C355.776 186.637 355.258 186.003 356.551 185.354C358.15 184.384 359.187 182.706 359.341 180.842C359.594 177.84 357.793 175.949 357.151 175.4Z" fill="#2CA6E0"/>
</g>
<g clip-path="url(#clip2)">
<path d="M59.5131 59.236C74.1554 59.236 86.0251 46.0945 86.0251 29.8834C86.0251 13.6724 74.1554 0.530762 59.5131 0.530762C44.8709 0.530762 33.001 13.6724 33.001 29.8834C33.001 46.0945 44.8709 59.236 59.5131 59.236Z" fill="white"/>
<path d="M40.6533 20.5843C40.2236 21.2924 39.7448 22.2668 39.4073 23.0333H39.3998L39.2097 23.4973C38.9243 24.1942 38.6799 24.9029 38.4782 25.6222L38.2122 26.5709H39.1976H40.3616H40.3805H40.3995H40.4183H40.4373H40.4562H40.4752H40.4941H40.5131H40.532H40.551H40.5698H40.5888H40.6077H40.6267H40.6456H40.6646H40.6835H40.7025H40.7213H40.7403H40.7592H40.7782H40.7971H40.8161H40.835H40.8538H40.8728H40.8918H40.9107H40.9296H40.9486H40.9675H40.9865H41.0053H41.0243H41.0432H41.0622H41.0811H41.1001H41.119H41.138H41.1568H41.1758H41.1947H41.2137H41.2326H41.2516H41.2705H41.2895H41.3083H41.3273H41.3462H41.3652H41.3841H41.4031H41.422H41.441H41.4598H41.4788H41.4977H41.5167H41.5356H41.5546H41.5735H41.5925H41.6113H41.6303H41.6492H41.6682H41.6871H41.7061H41.725H41.744H41.7628H41.7817H41.8007H41.8196H41.8386H41.8575H41.8765H41.8953H41.9143H41.9332H41.9522H41.9711H41.9901H42.009H42.028H42.0468H42.0658H42.0847H42.1037H42.1226H42.1416H42.1605H42.1795H42.1983H42.2173H42.2362H42.2552H42.2741H42.2931H42.312H42.331H42.3498H42.3688H42.3877H42.4067H42.4256H42.4446H42.4635H42.4825H42.5013H42.5203H42.5392H42.5582H42.5771H42.5961H42.615H42.634H42.6528H42.6717H42.6907H42.7097H42.7286H42.7476H42.7665H42.7853H42.8043H42.8232H42.8422H42.8611H42.8801H42.899H42.918H42.9368H42.9558H42.9747H42.9937H43.0126H43.0316H43.0505H43.0695H43.0883H43.1073H43.1262H43.1452H43.1641H43.1831H43.202H43.221H43.2398H43.2588H43.2777H43.2967H43.3156H43.3346H43.3535H43.3725H43.3913H43.4103H43.4292H43.4482H43.4671H43.4861H43.505H43.524H43.5428H43.5617H43.5807H43.5997H43.6187H43.6375H43.6565H43.6755H43.6945H43.7132H43.7322H43.7512H43.7702H43.789H43.808H43.827H43.846H43.8647H43.8837H43.9027H43.9215H43.9405H43.9595H43.9785H43.9973H44.0162H44.0352H44.0542H44.0731H44.092H44.111H44.13H44.1488H44.1677H44.1867H44.2057H44.2246H44.2435H44.2625H44.2813H44.3003H44.3192H44.3382H44.3571H44.3761H44.3951H44.414H44.4328H44.4518H44.4708H44.4897H44.5086H44.5276H44.5466H44.5653H44.5843H44.6033H44.6223H44.6411H44.6601H44.6791H44.6981H44.7168H44.7358H44.7548H44.7738H44.7926H44.8116H44.8306H44.8496H44.8683H44.8873H44.9063H44.9252H44.9441H44.9631H44.9821H45.001H45.0198H45.0388H45.0578H45.0767H45.0956H45.1146H45.1336H45.1525H45.1715H45.1903H45.2093H45.2282H45.2472H45.2661H45.285H45.304H45.323H45.3418H45.3607H45.3797H45.3987H45.4176H45.4365H45.4555H45.4745H45.4933H45.5122H45.5312H45.5502H45.5692H45.588H45.607H45.626H45.645H45.6637H45.6827H45.7017H45.7205H45.7395H45.7585H45.7775H45.7962H45.8152H45.8342H45.8532H45.872H45.891H45.91H45.929H45.9478H45.9667H45.9857H46.0047H46.0236H46.0425H46.0615H46.0803H46.0993H46.1182H46.1372H46.1561H46.1751H46.194H46.213H46.2318H46.2508H46.2697H46.2887H46.3076H46.3266H46.3456H46.3645H46.3833H46.4023H46.4213H46.4401H46.4591H46.4781H46.4971H46.5158H46.5348H46.5538H46.5728H46.5916H46.6106H46.6296H46.6486H46.6673H46.6863H46.7053H46.7243H46.7431H46.7621H46.7811H46.8001H46.8188H46.8378H46.8568H46.8757H46.8946H46.9136H46.9326H46.9515H46.9703H46.9893H47.0083H47.0272H47.0461H47.0651H47.0841H47.103H47.122H47.1408H47.1598H47.1787H47.1977H47.2166H47.2355H47.2545H47.2735H47.2923H47.3112H47.3302H47.3492H47.3681H47.387H47.406H47.425H47.4438H47.4627H47.4817H47.5007H47.5197H47.5385H47.5575H47.5765H47.5955H47.6142H47.6332H47.6522H47.671H47.69H47.709H47.728H47.7467H47.7657H47.7847H47.8037H47.8225H47.8415H47.8605H47.8795H47.8983H47.9172H47.9362H47.9552H47.9741H47.993H48.012H48.031H48.0498H48.0687H48.0877H48.1066H48.1256H48.1445H48.1635H48.1823H48.2013H48.2202H48.2392H48.2581H48.2771H48.2961H48.315H48.3338H48.3528H48.3718H48.3907H48.4096H48.4286H48.4476H48.4665H48.4853H48.5043H48.5233H48.5421H48.5611H48.5801H48.5991H48.6178H48.6368H48.6558H48.6748H48.6936H48.7126H48.7316H48.7506H48.7693H48.7883H48.8073H48.8263H48.8451H48.8641H48.8831H48.902H48.9208H48.9398H48.9588H48.9777H48.9966H49.0156H49.0346H49.0535H49.0725H49.0913H49.1103H49.1292H49.1482H49.1671H49.1861H49.205H49.224H49.2428H49.2618H49.2807H49.2997H49.3186H49.3375H49.3565H49.3755H49.3943H49.4132H49.4322H49.4512H49.4702H49.489H49.508H49.527H49.546H49.5647H49.5837H49.6027H49.6217H49.6405H49.6595H49.6785H49.6975H49.7162H49.7352H49.7542H49.773H49.792H49.811H49.83H49.8488H49.8677H49.8867H49.9057H49.9246H49.9435H49.9625H49.9815H50.0003H50.0192H50.0382H50.0572C59.7063 26.5707 69.3561 26.5707 79.0043 26.5716H79.9896L79.7238 25.6229C79.3113 24.1512 78.7258 22.7464 77.9992 21.4117C77.5387 20.5657 77.0765 19.8586 76.4853 19.2378L76.4852 19.2377C75.891 18.6141 75.1882 18.1007 74.2693 17.6131L74.2691 17.6129C72.6793 16.7703 70.7502 16.2798 68.6843 16.2798H61.8448L63.4565 0.936977C78.7368 3.05716 90.5021 16.1719 90.5021 32.0361C90.5016 49.3778 76.443 63.4364 59.1007 63.4364C41.7585 63.4364 27.6992 49.3778 27.6992 32.0354C27.6992 16.1714 39.4648 3.05659 54.7451 0.936401L56.3565 16.2792H49.5171C47.5262 16.2792 45.6626 16.7343 44.1072 17.5221H44.1035L43.9396 17.6089C42.5421 18.3486 41.3913 19.3687 40.6535 20.5843H40.6533ZM59.2605 55.2377C60.522 55.2571 61.729 54.7489 63.0713 53.8248C68.3753 50.1737 72.7256 45.1137 75.0611 39.0347C76.1512 36.1977 76.766 33.2067 76.8746 30.1838L76.9025 29.4099H76.1281H42.5223H41.7481L41.7757 30.1836C41.9337 34.6043 43.1752 38.8992 45.359 42.7979H45.3591C47.7548 47.0739 51.238 50.8167 55.4878 53.7612C56.8087 54.6763 58.0035 55.2181 59.2605 55.2377Z" fill="#F9603E" stroke="#F9603E"/>
<path d="M62.5567 36.9104C62.5567 33.434 60.8629 30.44 59.5729 29.4683C59.5729 29.4683 59.4738 29.4135 59.4839 29.5538C59.3779 36.2707 55.9459 38.091 54.0605 40.541C49.7082 46.2005 53.7527 52.4039 57.8792 53.5503C60.1785 54.1935 57.3454 52.4143 56.9793 48.6607C56.531 44.1304 62.5567 40.6677 62.5567 36.9104Z" fill="#1B2143"/>
<path d="M64.5345 39.1994C64.5072 39.1823 64.4695 39.1685 64.4457 39.213C64.3738 40.0582 63.5114 41.8648 62.4165 43.5278C58.7039 49.1598 60.8187 51.8768 62.0094 53.3378C62.7005 54.183 62.0094 53.3378 63.7339 52.472C65.8655 51.1787 67.248 48.9409 67.4534 46.4567C67.7919 42.4533 65.39 39.9315 64.5345 39.1994Z" fill="#2CA6E0"/>
</g>
<defs>
<linearGradient id="paint0_linear" x1="178.093" y1="145.854" x2="178.055" y2="154.842" gradientUnits="userSpaceOnUse">
<stop stop-color="#3D3C3E"/>
<stop offset="0.0787" stop-color="#313032"/>
<stop offset="0.2595" stop-color="#1B1B1C"/>
<stop offset="0.4575" stop-color="#0C0C0C"/>
<stop offset="0.6836" stop-color="#030303"/>
<stop offset="1"/>
</linearGradient>
<linearGradient id="paint1_linear" x1="205.171" y1="145.925" x2="205.133" y2="154.914" gradientUnits="userSpaceOnUse">
<stop stop-color="#3D3C3E"/>
<stop offset="0.0787" stop-color="#313032"/>
<stop offset="0.2595" stop-color="#1B1B1C"/>
<stop offset="0.4575" stop-color="#0C0C0C"/>
<stop offset="0.6836" stop-color="#030303"/>
<stop offset="1"/>
</linearGradient>
<clipPath id="clip0">
<rect width="36" height="36" fill="white" transform="translate(80 259)"/>
</clipPath>
<clipPath id="clip1">
<rect width="48" height="48" fill="white" transform="translate(329 146)"/>
</clipPath>
<clipPath id="clip2">
<rect width="64" height="64" fill="white" transform="translate(27)"/>
</clipPath>
</defs>
</svg>
