<svg width="459" height="362" viewBox="0 0 459 362" fill="none" xmlns="http://www.w3.org/2000/svg">
<path d="M269.23 310.736C266.276 310.736 263.88 308.342 263.88 305.386V299.576C263.88 296.622 261.485 294.225 258.529 294.225C255.572 294.225 253.178 296.619 253.178 299.576V311.007V319.004C253.178 321.959 250.784 324.355 247.828 324.355C244.871 324.355 242.477 321.961 242.477 319.004V311.482C242.477 308.528 240.083 306.132 237.126 306.132C234.172 306.132 231.776 308.526 231.776 311.482V331.721V333.337C231.776 336.291 229.382 338.688 226.425 338.688C223.469 338.688 221.074 336.293 221.074 333.337V331.721V303.754C221.074 300.799 218.68 298.403 215.724 298.403C212.77 298.403 210.373 300.797 210.373 303.754V315.623C210.373 318.577 207.979 320.974 205.023 320.974C202.068 320.974 199.672 318.58 199.672 315.623V362H274.572V328.597C274.572 331.551 272.175 333.948 269.221 333.948C266.267 333.948 263.87 331.553 263.87 328.597V323.848C263.87 320.893 266.267 318.497 269.221 318.497C272.175 318.497 274.572 320.891 274.572 323.848V305.386C274.581 308.34 272.184 310.736 269.23 310.736Z" fill="#64C4E6"/>
<path d="M269.231 318.499C266.276 318.499 263.88 320.894 263.88 323.85V328.599C263.88 331.553 266.276 333.95 269.231 333.95C272.185 333.95 274.581 331.556 274.581 328.599V323.85C274.581 320.894 272.185 318.499 269.231 318.499Z" fill="#00AAE6"/>
<path fill-rule="evenodd" clip-rule="evenodd" d="M263.88 251.237C263.88 254.193 266.276 256.587 269.23 256.587C272.184 256.587 274.581 254.191 274.581 251.237V264.128V268.721C274.581 265.764 272.184 263.37 269.23 263.37C266.276 263.37 263.88 265.767 263.88 268.721V272.66C263.88 275.616 266.276 278.01 269.23 278.01C272.184 278.01 274.581 275.614 274.581 272.66V305.386C274.581 308.342 272.184 310.736 269.23 310.736C266.276 310.736 263.88 308.34 263.88 305.386V299.576C263.88 296.619 261.483 294.225 258.529 294.225C255.575 294.225 253.178 296.622 253.178 299.576V311.007V319.004C253.178 321.961 250.782 324.355 247.828 324.355C244.873 324.355 242.477 321.959 242.477 319.004V311.482C242.477 308.526 240.081 306.132 237.126 306.132C234.17 306.132 231.776 308.528 231.776 311.482V331.721V333.337C231.776 336.294 229.379 338.688 226.425 338.688C223.471 338.688 221.074 336.291 221.074 333.337V331.721V303.754C221.074 300.797 218.678 298.403 215.724 298.403C212.767 298.403 210.373 300.799 210.373 303.754V315.623C210.373 318.58 207.977 320.974 205.023 320.974C202.066 320.974 199.672 318.578 199.672 315.623V274.315C199.672 277.271 202.068 279.665 205.023 279.665C207.979 279.665 210.373 277.269 210.373 274.315V262.007V249.29C210.373 246.334 212.77 243.939 215.724 243.939C218.68 243.939 221.074 246.336 221.074 249.29V262.007V265.085C221.074 268.041 223.469 270.436 226.425 270.436C229.382 270.436 231.776 268.039 231.776 265.085V262.007V258.394C231.776 255.437 234.172 253.043 237.126 253.043C240.083 253.043 242.477 255.44 242.477 258.394V262.007V285.087C242.477 288.044 244.871 290.438 247.828 290.438C250.784 290.438 253.178 288.041 253.178 285.087V262.007V246.361C253.178 243.405 255.572 241.01 258.529 241.01C261.485 241.01 263.88 243.407 263.88 246.361V251.237ZM226.43 295.017C229.387 295.017 231.781 292.621 231.781 289.667V281.855C231.781 278.899 229.384 276.505 226.43 276.505C223.476 276.505 221.08 278.901 221.08 281.855V289.667C221.08 292.623 223.474 295.017 226.43 295.017Z" fill="#00AAE6"/>
<path d="M226.432 276.507C223.477 276.507 221.081 278.901 221.081 281.857V289.669C221.081 292.623 223.477 295.019 226.432 295.019C229.386 295.019 231.782 292.625 231.782 289.669V281.857C231.78 278.901 229.386 276.507 226.432 276.507Z" fill="#007DE4"/>
<path d="M199.681 213.566V264.128V274.315C199.681 277.269 202.075 279.665 205.031 279.665C207.986 279.665 210.382 277.271 210.382 274.315V262.007V249.29C210.382 246.336 212.776 243.939 215.733 243.939C218.687 243.939 221.083 246.333 221.083 249.29V262.007V265.085C221.083 268.039 223.48 270.435 226.434 270.435C229.388 270.435 231.784 268.041 231.784 265.085V262.007V258.394C231.784 255.439 234.179 253.043 237.135 253.043C240.089 253.043 242.486 255.437 242.486 258.394V262.007V285.087C242.486 288.041 244.882 290.438 247.836 290.438C250.791 290.438 253.187 288.044 253.187 285.087V262.007V246.361C253.187 243.407 255.583 241.01 258.538 241.01C261.492 241.01 263.888 243.405 263.888 246.361V251.237C263.888 254.191 266.285 256.587 269.239 256.587C272.193 256.587 274.59 254.193 274.59 251.237V234.161V213.566H199.681Z" fill="#007DE4"/>
<path d="M269.231 263.37C266.276 263.37 263.88 265.764 263.88 268.721V272.66C263.88 275.614 266.276 278.01 269.231 278.01C272.185 278.01 274.581 275.616 274.581 272.66V268.721C274.581 265.767 272.185 263.37 269.231 263.37Z" fill="#007DE4"/>
<path opacity="0.2" d="M295.149 70.4144C295.149 75.7604 290.815 80.0965 285.467 80.0965H278.227C272.881 80.0965 268.545 84.4302 268.545 89.7786C268.545 95.1246 272.878 99.4607 278.227 99.4607H417.132C422.478 99.4607 426.814 95.1269 426.814 89.7786C426.814 84.4325 422.48 80.0965 417.132 80.0965H360.254C354.908 80.0965 350.572 75.7627 350.572 70.4144C350.572 65.0683 354.906 60.7322 360.254 60.7322H372.399C377.745 60.7322 382.081 56.3985 382.081 51.0501C382.081 45.7041 377.747 41.368 372.399 41.368H128.544C123.198 41.368 118.862 45.7018 118.862 51.0501C118.862 56.3962 123.196 60.7322 128.544 60.7322H285.467C290.813 60.7322 295.149 65.0683 295.149 70.4144Z" fill="#808080"/>
<path opacity="0.2" d="M178.114 101.54H52.8292C47.6966 101.54 43.535 105.702 43.535 110.834C43.535 115.967 47.6966 120.129 52.8292 120.129H110.819C114.95 120.129 118.297 123.478 118.297 127.607C118.297 131.739 114.948 135.086 110.819 135.086H10.8987C4.88007 135.086 0 139.966 0 145.984C0 152.003 4.88007 156.883 10.8987 156.883H89.6088C94.6083 156.883 98.662 160.937 98.662 165.936C98.662 170.936 94.6083 174.989 89.6088 174.989H66.6109C61.1341 174.989 56.6947 179.429 56.6947 184.906C56.6947 190.382 61.1341 194.822 66.6109 194.822H182.521C187.998 194.822 192.437 190.382 192.437 184.906C192.437 179.429 187.998 174.989 182.521 174.989H144.543C139.424 174.989 135.274 170.839 135.274 165.72C135.274 160.602 139.424 156.451 144.543 156.451H218.394C223.31 156.451 227.298 160.439 227.298 165.355C227.298 171.154 231.996 175.852 237.795 175.852H447.874C453.826 175.852 458.654 171.027 458.654 165.073C458.654 159.121 453.829 154.294 447.874 154.294H334.857C329.552 154.294 325.25 149.992 325.25 144.687C325.25 139.383 329.552 135.081 334.857 135.081H359.879C364.011 135.081 367.358 131.732 367.358 127.603C367.358 123.471 364.009 120.124 359.879 120.124H353.87H196.702C191.771 120.124 187.773 116.128 187.773 111.195C187.773 105.865 183.448 101.54 178.114 101.54Z" fill="#808080"/>
<path opacity="0.2" d="M395.19 135.008H384.062C379.891 135.008 376.51 131.626 376.51 127.456C376.51 123.285 379.891 119.904 384.062 119.904H395.19C399.361 119.904 402.742 123.285 402.742 127.456C402.742 131.626 399.361 135.008 395.19 135.008Z" fill="#808080"/>
<circle opacity="0.2" cx="374.809" cy="256.902" r="29.5421" fill="url(#paint0_radial)"/>
<circle cx="373.126" cy="255.848" r="7.85954" fill="#5E34D9"/>
<circle cx="374.8" cy="255.729" r="7.85954" fill="#A48CFF"/>
<path d="M381.94 259.018C381.316 260.37 380.315 261.525 379.064 262.333L367.66 252.439C368.285 251.087 369.285 249.933 370.536 249.125L381.94 259.018Z" fill="#ADABFF"/>
<circle cx="374.8" cy="255.729" r="5.89465" fill="#6F69F7"/>
<path d="M372.663 254.418C372.193 254.418 371.803 254.032 371.787 254.016C371.713 253.943 371.713 253.824 371.787 253.75C371.86 253.677 371.979 253.677 372.053 253.75C372.055 253.752 372.395 254.083 372.725 254.037C372.898 254.012 373.051 253.883 373.182 253.651C373.233 253.56 373.347 253.527 373.439 253.578C373.531 253.628 373.563 253.743 373.513 253.835C373.322 254.177 373.074 254.37 372.776 254.411C372.739 254.416 372.7 254.418 372.663 254.418Z" fill="#1B0E4C"/>
<path d="M376.287 254.042C375.817 254.042 375.427 253.656 375.411 253.64C375.337 253.567 375.337 253.447 375.411 253.371C375.484 253.298 375.603 253.298 375.677 253.371C375.681 253.376 376.017 253.704 376.352 253.658C376.524 253.633 376.678 253.505 376.808 253.273C376.859 253.181 376.974 253.149 377.066 253.199C377.157 253.25 377.19 253.365 377.139 253.456C376.948 253.798 376.701 253.991 376.402 254.033C376.363 254.037 376.324 254.042 376.287 254.042Z" fill="#1B0E4C"/>
<circle cx="374.967" cy="255.775" r="0.977851" fill="#4123C1"/>
<path opacity="0.5" d="M380.678 255.313C380.449 252.093 377.673 249.66 374.457 249.846C377.368 250.018 379.769 252.327 379.98 255.313C380.21 258.561 377.765 261.38 374.517 261.61C374.492 261.612 374.467 261.612 374.441 261.614C374.696 261.63 374.953 261.628 375.215 261.61C378.463 261.378 380.91 258.559 380.678 255.313Z" fill="#4123C1"/>
<circle opacity="0.5" cx="98.9907" cy="276.507" r="62.4126" fill="url(#paint1_radial)"/>
<circle cx="95.6044" cy="275.187" r="25.3759" fill="#009199"/>
<circle cx="100.863" cy="273.879" r="25.3759" fill="#00E5C4"/>
<path d="M125.397 280.37C124.162 285.021 121.623 289.242 118.093 292.511L76.3301 267.385C77.565 262.734 80.1038 258.513 83.6341 255.244L125.397 280.37Z" fill="#00F4D6"/>
<circle cx="100.864" cy="273.879" r="19.0268" fill="#00BEB7"/>
<path d="M104.213 269.758C104.904 269.586 105.324 268.888 105.151 268.197L104.904 267.199C104.731 266.508 104.034 266.088 103.343 266.26C102.652 266.432 102.232 267.13 102.404 267.821L102.652 268.82C102.822 269.51 103.522 269.931 104.213 269.758Z" fill="url(#paint2_linear)"/>
<path d="M97.4558 271.716C98.1467 271.544 98.5668 270.846 98.3946 270.155L98.1467 269.157C97.9745 268.466 97.2767 268.046 96.5858 268.218C95.8949 268.39 95.4748 269.088 95.647 269.779L95.8949 270.778C96.067 271.466 96.7649 271.889 97.4558 271.716Z" fill="url(#paint3_linear)"/>
<path d="M100.189 277.283C97.0212 277.283 94.4825 276.11 94.432 276.087C93.927 275.848 93.7112 275.244 93.9522 274.739C94.1909 274.234 94.7946 274.021 95.2996 274.257C95.6394 274.416 103.646 278.072 107.851 270.617C108.126 270.13 108.742 269.958 109.231 270.233C109.717 270.509 109.889 271.124 109.614 271.613C107.059 276.14 103.318 277.283 100.189 277.283Z" fill="#006E8C"/>
<path d="M119.328 269.285C116.791 259.087 106.469 252.878 96.2701 255.414C92.3885 256.381 89.0831 258.474 86.6201 261.261C88.8375 259.3 91.5461 257.829 94.6174 257.065C104.816 254.528 115.138 260.74 117.675 270.936C119.245 277.251 117.461 283.614 113.454 288.147C118.6 283.6 121.102 276.413 119.328 269.285Z" fill="#00ADA5"/>
<circle opacity="0.3" cx="365.495" cy="98.8203" r="30.1527" fill="url(#paint4_radial)"/>
<circle cx="367.133" cy="98.1822" r="12.2599" fill="#FF180D"/>
<circle cx="364.591" cy="97.551" r="12.2599" fill="#FF433E"/>
<path d="M352.737 100.687C353.334 102.934 354.56 104.972 356.265 106.551L376.442 94.4132C375.845 92.1659 374.62 90.1276 372.914 88.5483L352.737 100.687Z" fill="#FF787A"/>
<circle cx="364.592" cy="97.551" r="9.19318" fill="#FF270F"/>
<path d="M362.976 95.5608C362.643 95.4782 362.439 95.1407 362.521 94.8056L362.641 94.3236C362.723 93.9907 363.061 93.7864 363.396 93.8691C363.729 93.9517 363.933 94.2891 363.85 94.6243L363.731 95.1063C363.646 95.4391 363.309 95.6434 362.976 95.5608Z" fill="url(#paint5_linear)"/>
<path d="M366.239 96.5041C365.907 96.4215 365.702 96.0841 365.785 95.749L365.904 95.2669C365.987 94.9341 366.324 94.7298 366.66 94.8124C366.992 94.8951 367.197 95.2325 367.114 95.5676L366.995 96.0497C366.91 96.3848 366.572 96.5891 366.239 96.5041Z" fill="url(#paint6_linear)"/>
<path d="M364.917 99.1945C363.404 99.1945 361.598 98.6413 360.365 96.4537C360.232 96.2196 360.315 95.9212 360.551 95.7881C360.785 95.6549 361.084 95.7376 361.217 95.974C362.059 97.4683 363.308 98.2258 364.929 98.2258C364.949 98.2258 364.97 98.2258 364.991 98.2258C366.258 98.2097 367.268 97.7369 367.279 97.7323C367.522 97.6175 367.814 97.7208 367.931 97.9641C368.046 98.2074 367.943 98.4989 367.699 98.616C367.674 98.6298 366.448 99.1945 364.917 99.1945Z" fill="#7D0000"/>
<path d="M355.671 95.3314C356.897 90.4054 361.885 87.403 366.811 88.6287C368.686 89.0947 370.282 90.107 371.473 91.4544C370.401 90.5064 369.093 89.7971 367.61 89.4275C362.684 88.2018 357.696 91.2019 356.47 96.1302C355.71 99.1808 356.573 102.254 358.511 104.444C356.023 102.247 354.815 98.7745 355.671 95.3314Z" fill="#FF180D"/>
<circle opacity="0.2" cx="63.3871" cy="53.4605" r="49.393" fill="url(#paint7_radial)"/>
<circle cx="64.8421" cy="53.5889" r="14.8284" fill="#EB0094"/>
<circle cx="61.679" cy="53.4604" r="14.8284" fill="#FF21E2"/>
<path d="M48.4023 60.0666C49.6579 62.5824 51.6091 64.6988 54.0147 66.1541L74.9558 46.8496C73.7002 44.3338 71.7491 42.2174 69.3435 40.7621L48.4023 60.0666Z" fill="#FF5BF2"/>
<circle cx="61.6796" cy="53.4604" r="11.119" fill="#FF02CA"/>
<path d="M66.8056 51.6609C67.2509 51.6792 67.5815 52.1085 67.5034 52.5721C66.9663 55.7306 64.2944 58.072 61.1795 57.9457C58.0646 57.8195 55.5925 55.267 55.3147 52.0763C55.2734 51.6081 55.6384 51.2064 56.0837 51.2247L66.8056 51.6609Z" fill="#7C0041"/>
<path d="M58.9457 49.735C58.5096 49.7166 58.1698 49.3494 58.1882 48.9132L58.1928 48.7732C58.2112 48.3371 58.5784 47.9974 59.0146 48.0157C59.4507 48.0341 59.7904 48.4014 59.7721 48.8375L59.7675 48.9775C59.7514 49.4136 59.3818 49.7534 58.9457 49.735Z" fill="#3D003E"/>
<path d="M63.7143 49.8361C63.2781 49.8177 62.9384 49.4504 62.9568 49.0143L62.9614 48.8743C62.9797 48.4382 63.347 48.0984 63.7831 48.1168C64.2192 48.1352 64.559 48.5024 64.5406 48.9386L64.536 49.0786C64.5177 49.5147 64.1504 49.8544 63.7143 49.8361Z" fill="#3D003E"/>
<path d="M64.9567 56.7704C64.4655 55.8408 63.0653 55.1705 61.4126 55.1705C59.7645 55.1705 58.3689 55.8385 57.873 56.7636C58.8096 57.466 59.9435 57.8998 61.1808 57.9503C62.5787 58.0031 63.8894 57.5601 64.9567 56.7704Z" fill="#FF54C3"/>
<path opacity="0.5" d="M51.9141 53.1367C52.162 47.0217 57.306 42.2609 63.4142 42.4767C62.9941 42.4102 62.5649 42.3665 62.131 42.3505C55.9954 42.1003 50.8192 46.8725 50.569 53.0081C50.3188 59.1438 55.091 64.32 61.2266 64.5702C61.2473 64.5702 61.268 64.5702 61.2886 64.5725C55.7842 63.7071 51.6823 58.8362 51.9141 53.1367Z" fill="#FA009D"/>
<path d="M296.209 57.6335C295.422 25.6697 269.263 0 237.109 0C204.955 0 178.796 25.6697 178.009 57.6335H296.209Z" fill="url(#paint8_linear)"/>
<path d="M140.657 221.717H185.471V156.837C185.333 156.837 185.193 156.84 185.055 156.842C178.676 156.98 172.949 160.469 170.16 165.727L138.731 218.899C138.043 220.2 139.078 221.717 140.657 221.717Z" fill="url(#paint9_linear)"/>
<path d="M333.275 221.717H288.461V156.837C288.599 156.837 288.739 156.84 288.876 156.842C295.255 156.98 300.982 160.469 303.771 165.727L335.2 218.899C335.889 220.2 334.854 221.717 333.275 221.717Z" fill="url(#paint10_linear)"/>
<path d="M284.62 232.391H189.6C183.189 232.391 177.99 227.194 177.99 220.781V57.6334H296.228V220.781C296.228 227.192 291.031 232.391 284.62 232.391Z" fill="#F3F3F2"/>
<path d="M285.214 143.441H188.721C186.04 143.441 183.866 141.267 183.866 138.586V69.0671C183.866 66.386 186.04 64.2123 188.721 64.2123H285.214C287.895 64.2123 290.069 66.386 290.069 69.0671V138.586C290.066 141.267 287.895 143.441 285.214 143.441Z" fill="#230647"/>
<path opacity="0.5" d="M285.187 64.2145H260.823C261.879 64.2145 262.735 65.0707 262.735 66.1266V141.531C262.735 142.587 261.879 143.443 260.823 143.443H286.004C288.238 143.443 290.049 141.632 290.049 139.399V69.0762C290.049 66.3905 287.873 64.2145 285.187 64.2145Z" fill="#3B3E69"/>
<path d="M199.871 161.704C198.276 161.704 196.983 160.411 196.983 158.816V128.673C196.983 127.077 198.276 125.785 199.871 125.785C201.466 125.785 202.759 127.077 202.759 128.673V158.814C202.759 160.409 201.464 161.704 199.871 161.704Z" fill="#FFD000"/>
<circle cx="241.733" cy="118.901" r="41.5105" fill="#FF9E00"/>
<path d="M243.592 178.91C243.525 178.91 243.457 178.908 243.39 178.903C241.57 178.793 240.186 177.23 240.293 175.41C240.764 167.63 238.026 151.519 237.998 151.356C237.69 149.559 238.898 147.853 240.695 147.545C242.49 147.238 244.198 148.445 244.506 150.24C244.625 150.931 247.4 167.268 246.884 175.807C246.776 177.56 245.323 178.91 243.592 178.91Z" fill="#FFD000"/>
<path d="M220.511 176.39C219.924 176.39 219.329 176.234 218.79 175.903C217.236 174.951 216.747 172.919 217.7 171.365C223.02 162.679 225.945 152.77 225.975 152.671C226.484 150.922 228.318 149.917 230.067 150.426C231.816 150.936 232.822 152.768 232.312 154.517C232.186 154.955 229.126 165.349 223.328 174.813C222.706 175.83 221.622 176.39 220.511 176.39Z" fill="#FFD000"/>
<circle cx="232.871" cy="118.752" r="41.5105" fill="#FFDF00"/>
<path d="M196.152 138.127C199.832 145.085 205.433 150.881 212.262 154.792L269.588 99.376C265.908 92.4185 260.307 86.6226 253.478 82.7112L196.152 138.127Z" fill="#FFEA6C"/>
<circle cx="232.869" cy="118.751" r="31.126" fill="#FFCE00"/>
<path d="M244.106 119.365C245.112 119.381 245.885 120.287 245.734 121.281C244.696 128.06 238.783 133.199 231.736 133.08C224.689 132.96 218.953 127.623 218.147 120.815C218.028 119.817 218.834 118.938 219.839 118.956L244.106 119.365Z" fill="#C50000"/>
<path d="M231.736 133.078C237.079 133.167 241.764 130.234 244.172 125.854C242.189 125.08 239.981 124.617 237.635 124.578C231.871 124.479 226.805 126.901 224.025 130.576C226.218 132.104 228.864 133.029 231.736 133.078Z" fill="#FF0743"/>
<path d="M221.443 115.084C219.99 115.058 218.831 113.86 218.856 112.407L218.881 110.975C218.906 109.522 220.105 108.363 221.558 108.388C223.011 108.413 224.17 109.611 224.145 111.064L224.119 112.497C224.094 113.95 222.896 115.109 221.443 115.084Z" fill="url(#paint11_linear)"/>
<path d="M242.214 115.435C240.761 115.41 239.602 114.211 239.627 112.758L239.653 111.326C239.678 109.873 240.876 108.714 242.329 108.739C243.782 108.764 244.941 109.963 244.916 111.416L244.891 112.848C244.866 114.301 243.667 115.46 242.214 115.435Z" fill="url(#paint12_linear)"/>
<path opacity="0.8" d="M204.741 120.404C205.033 103.216 219.203 89.5171 236.391 89.8086C242.377 89.9096 247.939 91.6978 252.635 94.7071C247.393 90.3917 240.711 87.7519 233.395 87.628C216.207 87.3365 202.037 101.036 201.746 118.224C201.555 129.425 207.308 139.344 216.097 144.975C209.022 139.153 204.574 130.277 204.741 120.404Z" fill="#FFAD00"/>
<path d="M278.661 161.704C277.066 161.704 275.773 160.411 275.773 158.816V128.673C275.773 127.077 277.066 125.785 278.661 125.785C280.256 125.785 281.549 127.077 281.549 128.673V158.814C281.549 160.409 280.254 161.704 278.661 161.704Z" fill="#FFD000"/>
<path d="M258.128 218.899L250.028 168.11C249.53 164.993 247.918 162.096 245.377 159.973C243.084 158.056 240.284 156.918 237.311 156.84C237.196 156.837 237.082 156.835 236.967 156.835C236.852 156.835 236.737 156.837 236.623 156.84C233.65 156.918 230.85 158.056 228.556 159.973C226.015 162.096 224.404 164.993 223.906 168.11L215.805 218.899C215.234 220.2 216.09 221.717 217.401 221.717H236.967H256.533C257.844 221.717 258.7 220.2 258.128 218.899Z" fill="url(#paint13_linear)"/>
<path opacity="0.7" d="M193.002 112.871C190.757 112.871 188.939 111.05 188.939 108.808V77.2318C188.939 74.9869 190.76 73.1689 193.002 73.1689C195.247 73.1689 197.065 74.9892 197.065 77.2318V108.808C197.065 111.053 195.245 112.871 193.002 112.871Z" fill="white"/>
<path opacity="0.7" d="M193.001 128.744C190.756 128.744 188.938 126.923 188.938 124.681V120.563C188.938 118.318 190.759 116.5 193.001 116.5C195.246 116.5 197.064 118.32 197.064 120.563V124.681C197.064 126.923 195.244 128.744 193.001 128.744Z" fill="white"/>
<path d="M288.337 187.69H274.519C273.573 187.69 272.809 186.923 272.809 185.98V156.169C272.809 155.223 273.575 154.459 274.519 154.459H288.337C289.283 154.459 290.047 155.226 290.047 156.169V185.978C290.047 186.923 289.281 187.69 288.337 187.69Z" fill="#D4DCEA"/>
<path d="M281.683 169.223C279.096 169.223 277.007 167.091 277.078 164.488C277.147 161.979 279.268 160.012 281.777 160.012H282.839C282.982 160.012 283.094 160.127 283.094 160.267V168.966C283.094 169.109 282.979 169.221 282.839 169.221H281.683V169.223Z" fill="#EB0B00"/>
<ellipse cx="283.163" cy="164.616" rx="4.50592" ry="4.60462" fill="#FF3213"/>
<path d="M281.683 182.367C279.096 182.367 277.007 180.234 277.078 177.631C277.147 175.123 279.268 173.155 281.777 173.155H282.839C282.982 173.155 283.094 173.27 283.094 173.41V182.11C283.094 182.252 282.979 182.365 282.839 182.365H281.683V182.367Z" fill="#0084EB"/>
<ellipse cx="283.163" cy="177.76" rx="4.50592" ry="4.60462" fill="#00B0F0"/>
<path opacity="0.2" d="M285.074 64.2145H278.775C279.831 64.2145 280.687 65.0707 280.687 66.1266V141.531C280.687 142.587 279.831 143.443 278.775 143.443H285.242C287.897 143.443 290.051 141.29 290.051 138.634V69.1887C290.048 66.441 287.822 64.2145 285.074 64.2145Z" fill="#EAF1F8"/>
<defs>
<radialGradient id="paint0_radial" cx="0" cy="0" r="1" gradientUnits="userSpaceOnUse" gradientTransform="translate(374.809 256.902) scale(29.5432)">
<stop stop-color="#A48CFF"/>
<stop offset="0.0986" stop-color="#9E86F6" stop-opacity="0.9014"/>
<stop offset="0.2604" stop-color="#8D76DD" stop-opacity="0.7396"/>
<stop offset="0.4654" stop-color="#715CB5" stop-opacity="0.5346"/>
<stop offset="0.7053" stop-color="#4B377D" stop-opacity="0.2947"/>
<stop offset="0.9719" stop-color="#1A0837" stop-opacity="0.0281"/>
<stop offset="1" stop-color="#15032F" stop-opacity="0.01"/>
</radialGradient>
<radialGradient id="paint1_radial" cx="0" cy="0" r="1" gradientUnits="userSpaceOnUse" gradientTransform="translate(98.9907 276.507) scale(62.4124)">
<stop offset="0.00896991" stop-color="#00ADA5"/>
<stop offset="0.1224" stop-color="#01A49F" stop-opacity="0.8855"/>
<stop offset="0.3085" stop-color="#048B8E" stop-opacity="0.6978"/>
<stop offset="0.544" stop-color="#096372" stop-opacity="0.4601"/>
<stop offset="0.817" stop-color="#102C4B" stop-opacity="0.1847"/>
<stop offset="1" stop-color="#15032F" stop-opacity="0.01"/>
</radialGradient>
<linearGradient id="paint2_linear" x1="102.078" y1="266.001" x2="101.685" y2="270.509" gradientUnits="userSpaceOnUse">
<stop stop-color="#3F3E40"/>
<stop offset="0.0896" stop-color="#313032"/>
<stop offset="0.2683" stop-color="#1B1B1C"/>
<stop offset="0.4639" stop-color="#0C0C0C"/>
<stop offset="0.6874" stop-color="#030303"/>
<stop offset="1"/>
</linearGradient>
<linearGradient id="paint3_linear" x1="94.3544" y1="267.106" x2="93.2791" y2="274.333" gradientUnits="userSpaceOnUse">
<stop stop-color="#3F3E40"/>
<stop offset="0.0896" stop-color="#313032"/>
<stop offset="0.2683" stop-color="#1B1B1C"/>
<stop offset="0.4639" stop-color="#0C0C0C"/>
<stop offset="0.6874" stop-color="#030303"/>
<stop offset="1"/>
</linearGradient>
<radialGradient id="paint4_radial" cx="0" cy="0" r="1" gradientUnits="userSpaceOnUse" gradientTransform="translate(365.496 98.8198) rotate(180) scale(30.1528)">
<stop offset="0.00896991" stop-color="#FF4200"/>
<stop offset="0.0986" stop-color="#F63F02" stop-opacity="0.9096"/>
<stop offset="0.2456" stop-color="#DD3907" stop-opacity="0.7612"/>
<stop offset="0.4318" stop-color="#B52E0F" stop-opacity="0.5733"/>
<stop offset="0.6499" stop-color="#7D1F1A" stop-opacity="0.3533"/>
<stop offset="0.892" stop-color="#370C28" stop-opacity="0.109"/>
<stop offset="1" stop-color="#15032F" stop-opacity="0.01"/>
</radialGradient>
<linearGradient id="paint5_linear" x1="362.282" y1="93.8751" x2="362.471" y2="96.0529" gradientUnits="userSpaceOnUse">
<stop stop-color="#3F3E40"/>
<stop offset="0.0896" stop-color="#313032"/>
<stop offset="0.2683" stop-color="#1B1B1C"/>
<stop offset="0.4639" stop-color="#0C0C0C"/>
<stop offset="0.6874" stop-color="#030303"/>
<stop offset="1"/>
</linearGradient>
<linearGradient id="paint6_linear" x1="364.958" y1="94.6723" x2="365.478" y2="98.1638" gradientUnits="userSpaceOnUse">
<stop stop-color="#3F3E40"/>
<stop offset="0.0896" stop-color="#313032"/>
<stop offset="0.2683" stop-color="#1B1B1C"/>
<stop offset="0.4639" stop-color="#0C0C0C"/>
<stop offset="0.6874" stop-color="#030303"/>
<stop offset="1"/>
</linearGradient>
<radialGradient id="paint7_radial" cx="0" cy="0" r="1" gradientUnits="userSpaceOnUse" gradientTransform="translate(63.388 53.4593) scale(49.3926)">
<stop stop-color="#FF54C3"/>
<stop offset="0.0904" stop-color="#F651BD" stop-opacity="0.9096"/>
<stop offset="0.2388" stop-color="#DD48AE" stop-opacity="0.7612"/>
<stop offset="0.4267" stop-color="#B53A94" stop-opacity="0.5733"/>
<stop offset="0.6467" stop-color="#7D2771" stop-opacity="0.3533"/>
<stop offset="0.891" stop-color="#370F44" stop-opacity="0.109"/>
<stop offset="1" stop-color="#15032F" stop-opacity="0.01"/>
</radialGradient>
<linearGradient id="paint8_linear" x1="178.009" y1="-0.00091817" x2="178.009" y2="57.6336" gradientUnits="userSpaceOnUse">
<stop stop-color="#FF006F"/>
<stop offset="0.3101" stop-color="#F8006D"/>
<stop offset="0.7501" stop-color="#E60067"/>
<stop offset="1" stop-color="#D80062"/>
</linearGradient>
<linearGradient id="paint9_linear" x1="141.684" y1="153.796" x2="137.548" y2="216.078" gradientUnits="userSpaceOnUse">
<stop stop-color="#FF006F"/>
<stop offset="0.3158" stop-color="#FB006E"/>
<stop offset="0.645" stop-color="#EE0069"/>
<stop offset="0.9794" stop-color="#DA0063"/>
<stop offset="1" stop-color="#D80062"/>
</linearGradient>
<linearGradient id="paint10_linear" x1="290.36" y1="158.97" x2="286.231" y2="221.147" gradientUnits="userSpaceOnUse">
<stop stop-color="#FF006F"/>
<stop offset="0.3158" stop-color="#FB006E"/>
<stop offset="0.645" stop-color="#EE0069"/>
<stop offset="0.9794" stop-color="#DA0063"/>
<stop offset="1" stop-color="#D80062"/>
</linearGradient>
<linearGradient id="paint11_linear" x1="218.84" y1="109.055" x2="218.653" y2="115.945" gradientUnits="userSpaceOnUse">
<stop stop-color="#3D3C3E"/>
<stop offset="0.0787" stop-color="#313032"/>
<stop offset="0.2595" stop-color="#1B1B1C"/>
<stop offset="0.4575" stop-color="#0C0C0C"/>
<stop offset="0.6836" stop-color="#030303"/>
<stop offset="1"/>
</linearGradient>
<linearGradient id="paint12_linear" x1="239.613" y1="109.406" x2="239.427" y2="116.296" gradientUnits="userSpaceOnUse">
<stop stop-color="#3D3C3E"/>
<stop offset="0.0787" stop-color="#313032"/>
<stop offset="0.2595" stop-color="#1B1B1C"/>
<stop offset="0.4575" stop-color="#0C0C0C"/>
<stop offset="0.6836" stop-color="#030303"/>
<stop offset="1"/>
</linearGradient>
<linearGradient id="paint13_linear" x1="218.624" y1="156.253" x2="213.634" y2="218.334" gradientUnits="userSpaceOnUse">
<stop stop-color="#FF006F"/>
<stop offset="0.3158" stop-color="#FB006E"/>
<stop offset="0.645" stop-color="#EE0069"/>
<stop offset="0.9794" stop-color="#DA0063"/>
<stop offset="1" stop-color="#D80062"/>
</linearGradient>
</defs>
</svg>
