<svg width="607" height="506" viewBox="0 0 607 506" fill="none" xmlns="http://www.w3.org/2000/svg">
<mask id="mask0" mask-type="alpha" maskUnits="userSpaceOnUse" x="0" y="0" width="607" height="506">
<rect width="607" height="506" transform="matrix(-1 0 0 1 607 0)" fill="white"/>
</mask>
<g mask="url(#mask0)">
<ellipse rx="217.652" ry="217.724" transform="matrix(-1 0 0 1 296.317 519.771)" fill="url(#paint0_linear)"/>
<mask id="mask1" mask-type="alpha" maskUnits="userSpaceOnUse" x="78" y="302" width="436" height="436">
<ellipse rx="217.652" ry="217.724" transform="matrix(-1 0 0 1 296.317 519.771)" fill="white"/>
</mask>
<g mask="url(#mask1)">
<path d="M462.954 464.865C468.336 464.865 472.699 460.501 472.699 455.117C472.699 449.733 468.336 445.369 462.954 445.369H378.94C374.015 444.878 370.171 440.724 370.171 435.669C370.171 430.285 374.534 425.921 379.916 425.921H419.996C425.378 425.921 429.741 421.556 429.741 416.172C429.741 410.789 425.378 406.424 419.996 406.424H415.092C409.71 406.424 405.347 402.06 405.347 396.676C405.347 391.292 409.71 386.928 415.092 386.928H430.398C435.78 386.928 440.143 382.564 440.143 377.18C440.143 371.796 435.78 367.432 430.398 367.432H399.262C393.88 367.432 389.517 363.068 389.517 357.684C389.517 352.3 393.88 347.936 399.262 347.936H583.863C589.245 347.936 593.608 352.3 593.608 357.684C593.608 363.068 589.245 367.432 583.863 367.432H539.709C534.327 367.432 529.964 371.796 529.964 377.18C529.964 382.564 534.327 386.928 539.709 386.928H641.376C646.758 386.928 651.121 391.292 651.121 396.676C651.121 402.06 646.758 406.424 641.376 406.424H476.419C471.037 406.424 466.674 410.789 466.674 416.172C466.674 421.556 471.037 425.921 476.419 425.921H561.399C566.781 425.921 571.144 430.285 571.144 435.669C571.144 440.724 567.299 444.878 562.375 445.369H553.197C547.815 445.369 543.452 449.733 543.452 455.117C543.452 460.501 547.815 464.865 553.197 464.865H584.839C584.518 464.898 584.192 464.913 583.863 464.913C589.245 464.913 593.608 469.277 593.608 474.661C593.608 480.045 589.245 484.409 583.863 484.409H458.669C453.287 484.409 448.924 480.045 448.924 474.661C448.924 469.277 453.287 464.913 458.669 464.913L462.954 464.865Z" fill="#00B3B7"/>
<path d="M231.566 406.419H254.736C260.118 406.419 264.48 410.783 264.48 416.167C264.48 421.551 260.118 425.915 254.736 425.915H231.566C226.184 425.915 221.821 421.551 221.821 416.167C221.821 410.786 226.184 406.419 231.566 406.419Z" fill="#00B3B7"/>
<path d="M70.0837 482.721H91.1643C96.5464 482.721 100.909 487.086 100.909 492.47C100.909 497.853 96.5464 502.218 91.1643 502.218H70.0837C64.7016 502.218 60.3388 497.853 60.3388 492.47C60.3363 487.086 64.6991 482.721 70.0837 482.721Z" fill="#00B3B7"/>
<path d="M81.5687 406.419C81.5662 406.419 81.5662 406.419 81.5687 406.419H70.7894C65.4073 406.419 61.0445 410.783 61.0445 416.167C61.0445 421.551 65.4073 425.915 70.7894 425.915H102.184C107.566 425.915 111.929 430.28 111.929 435.663C111.929 441.047 107.566 445.412 102.184 445.412H52.5718C47.1898 445.412 42.827 449.776 42.827 455.16C42.827 460.215 46.6713 464.369 51.5956 464.86H133.786C139.168 464.86 143.531 469.224 143.531 474.608C143.531 479.992 139.168 484.356 133.786 484.356H121.934C122.255 484.389 122.582 484.404 122.91 484.404C117.528 484.404 113.166 488.768 113.166 494.152C113.166 499.536 117.528 503.9 122.91 503.9H188.441C193.823 503.9 198.186 499.536 198.186 494.152C198.186 488.768 193.823 484.404 188.441 484.404C188.77 484.404 189.096 484.386 189.417 484.356H185.874C180.492 484.356 176.129 479.992 176.129 474.608C176.129 469.224 180.492 464.86 185.874 464.86H217.954C222.878 464.369 226.723 460.215 226.723 455.16C226.723 449.776 222.36 445.412 216.978 445.412H169.756C164.374 445.412 160.011 441.047 160.011 435.663C160.011 430.28 164.374 425.915 169.756 425.915H192.65C198.032 425.915 202.395 421.551 202.395 416.167C202.395 410.783 198.032 406.419 192.65 406.419H81.5687Z" fill="#00B3B7"/>
<path d="M426.23 582.447L437.01 582.406C442.392 582.386 446.739 578.004 446.719 572.62C446.699 567.236 442.319 562.887 436.936 562.907L430.535 562.933C425.153 562.953 420.773 558.604 420.752 553.22C420.732 547.836 425.08 543.454 430.462 543.434L454.33 543.343C459.712 543.323 464.059 538.941 464.039 533.557C464.019 528.502 460.159 524.36 455.232 523.89L410.436 524.257C405.054 524.277 400.673 519.928 400.653 514.544C400.633 509.16 404.98 504.778 410.362 504.758L419.247 504.937C418.926 504.907 418.6 504.892 418.271 504.892C423.653 504.872 428.001 500.49 427.981 495.106C427.96 489.722 423.58 485.373 418.198 485.393L351.749 485.333C346.367 485.353 342.019 489.735 342.04 495.119C342.06 500.502 346.44 504.851 351.822 504.831C351.494 504.834 351.167 504.851 350.846 504.884L360.214 504.915C365.596 504.894 369.977 509.244 369.997 514.627C370.017 520.011 365.67 524.393 360.288 524.413L315.354 524.431C310.433 524.94 306.603 529.109 306.621 534.164C306.641 539.548 311.022 543.897 316.404 543.877L378.419 543.894C383.801 543.874 388.182 548.223 388.202 553.607C388.222 558.991 383.875 563.373 378.492 563.393L345.892 563.353C340.509 563.373 336.162 567.755 336.182 573.139C336.202 578.523 340.583 582.872 345.965 582.851L426.23 582.447Z" fill="#009FB0"/>
</g>
<path opacity="0.4" d="M296.318 302.047C300.642 302.047 304.94 302.178 309.201 302.426C194.994 309.095 104.432 403.854 104.432 519.771C104.432 635.688 194.992 730.446 309.201 737.116C304.937 737.363 300.642 737.495 296.318 737.495C176.111 737.495 78.6651 640.017 78.6651 519.771C78.6651 399.525 176.111 302.047 296.318 302.047Z" fill="#2D26A8"/>
</g>
<path fill-rule="evenodd" clip-rule="evenodd" d="M521.16 107.123C521.16 111.507 517.587 115.076 513.191 115.076C508.796 115.076 505.222 111.507 505.222 107.123C505.222 102.738 508.798 99.1692 513.191 99.1692C517.584 99.1692 521.16 102.738 521.16 107.123ZM517.625 107.123C517.625 104.682 515.637 102.698 513.191 102.698C510.746 102.698 508.758 104.682 508.758 107.123C508.758 109.563 510.746 111.547 513.191 111.547C515.637 111.547 517.625 109.563 517.625 107.123Z" fill="#FFCE00"/>
<path fill-rule="evenodd" clip-rule="evenodd" d="M496.031 196.055C496.031 197.994 494.451 199.571 492.508 199.571C490.566 199.571 488.985 197.994 488.985 196.055C488.985 194.117 490.566 192.539 492.508 192.539C494.451 192.539 496.031 194.117 496.031 196.055ZM494.263 196.055C494.263 195.089 493.477 194.304 492.508 194.304C491.542 194.304 490.756 195.089 490.753 196.055C490.753 197.022 491.54 197.807 492.508 197.807C493.477 197.807 494.263 197.022 494.263 196.055Z" fill="#FF1E00"/>
<path fill-rule="evenodd" clip-rule="evenodd" d="M537.487 203.638L529.68 211.43L521.873 203.638L529.68 195.846L537.487 203.638ZM529.68 207.686L533.737 203.638L529.68 199.589L525.624 203.638L529.68 207.686Z" fill="#923DF0"/>
<path fill-rule="evenodd" clip-rule="evenodd" d="M510.247 166.014L483.976 169.931L480.053 143.714L506.322 139.797L510.247 166.014ZM489.342 162.692L502.991 160.658L500.953 147.036L487.304 149.07L489.342 162.692Z" fill="#FF0080"/>
<path fill-rule="evenodd" clip-rule="evenodd" d="M556.369 145.092L567.997 170.6L540.049 167.897L556.369 145.092ZM561.52 165.984L555.6 152.997L547.292 164.608L561.52 165.984Z" fill="#0077D2"/>
<path fill-rule="evenodd" clip-rule="evenodd" d="M480.759 115.649L475.149 125.404L469.49 115.679L480.759 115.649ZM475.142 121.873L477.701 117.421L472.56 117.436L475.142 121.873Z" fill="#00D900"/>
<ellipse opacity="0.4" rx="39.961" ry="10.9999" transform="matrix(-1 0 0 1 296.212 322.794)" fill="#2D26A8"/>
<ellipse rx="83.986" ry="83.8216" transform="matrix(-1 0 0 1 283.619 209.463)" fill="#FF9600"/>
<path d="M280.517 323.912C284.204 323.912 287.196 320.929 287.196 317.246V276.98C287.196 273.299 284.207 270.313 280.517 270.313C276.827 270.313 273.838 273.297 273.838 276.98V317.246C273.838 320.929 276.83 323.912 280.517 323.912Z" fill="#FFCE00"/>
<path d="M310.136 323.912C313.824 323.912 316.815 320.929 316.815 317.246V276.98C316.815 273.299 313.826 270.313 310.136 270.313C306.446 270.313 303.457 273.297 303.457 276.98V317.246C303.457 320.929 306.446 323.912 310.136 323.912Z" fill="#FFCE00"/>
<path d="M420.212 228.013C418.664 225.627 415.617 224.698 413.002 225.824C410.139 227.058 406.06 228.452 401.373 228.977C389.806 230.279 379.763 225.809 371.523 215.693C369.47 213.171 365.674 212.686 363.165 214.759C360.704 216.793 360.332 220.43 362.348 222.916C374.857 238.361 389.237 241.385 400.038 240.789C401.131 240.729 402.188 240.633 403.202 240.507C408.991 239.792 413.991 238.099 417.605 236.544C420.935 235.113 422.182 231.046 420.212 228.013Z" fill="#FFCE00"/>
<ellipse rx="83.986" ry="83.8216" transform="matrix(-1 0 0 1 301.556 209.418)" fill="#FFDE00"/>
<path d="M375.276 249.598C367.631 263.541 356.132 275.079 342.202 282.782L227.835 169.237C235.48 155.294 246.979 143.757 260.909 136.053L375.276 249.598Z" fill="#FFE952"/>
<ellipse rx="62.9775" ry="62.8542" transform="matrix(-1 0 0 1 301.556 209.418)" fill="#FFCB00"/>
<path d="M278.808 210.329C276.772 210.334 275.181 212.139 275.459 214.151C277.361 227.869 289.174 238.414 303.435 238.377C317.696 238.339 329.454 227.733 331.282 214.004C331.55 211.99 329.949 210.195 327.913 210.2L278.808 210.329Z" fill="#D90000"/>
<path d="M303.435 238.377C292.621 238.404 283.228 232.342 278.483 223.432C282.52 221.925 287.001 221.056 291.743 221.044C303.407 221.014 313.586 226.047 319.104 233.548C314.626 236.569 309.246 238.361 303.435 238.377Z" fill="#FF0036"/>
<path d="M324.78 202.34C327.721 202.333 330.098 199.948 330.091 197.012L330.083 194.122C330.076 191.187 327.686 188.814 324.744 188.822C321.803 188.829 319.426 191.214 319.434 194.15L319.441 197.04C319.446 199.975 321.839 202.348 324.78 202.34Z" fill="url(#paint1_linear)"/>
<path d="M282.745 202.452C285.686 202.444 288.063 200.059 288.056 197.123L288.048 194.233C288.04 191.298 285.651 188.925 282.709 188.933C279.768 188.94 277.391 191.325 277.398 194.261L277.406 197.151C277.414 200.086 279.803 202.459 282.745 202.452Z" fill="url(#paint2_linear)"/>
<path d="M182.29 275.465C183.231 275.465 184.184 275.238 185.069 274.761C209.33 261.643 216.014 230.123 216.287 228.787C216.932 225.632 214.891 222.551 211.727 221.909C208.566 221.266 205.483 223.3 204.836 226.453C204.742 226.894 198.855 254.041 179.5 264.508C176.663 266.043 175.608 269.581 177.146 272.413C178.205 274.359 180.216 275.465 182.29 275.465Z" fill="#FFCE00"/>
<path opacity="0.8" d="M358.41 213.568C358.319 178.854 330.05 150.789 295.268 150.88C283.154 150.913 271.85 154.358 262.262 160.3C272.99 151.738 286.586 146.602 301.391 146.564C336.173 146.473 364.442 174.538 364.533 209.251C364.594 231.875 352.667 251.734 334.729 262.85C349.205 251.297 358.463 233.505 358.41 213.568Z" fill="#FFA800"/>
<path d="M409.403 243.551C413.925 242.21 416.5 237.465 415.157 232.952L406.176 202.79L389.803 207.646L398.784 237.808C400.127 242.319 404.881 244.891 409.403 243.551Z" fill="#FA0010"/>
<path d="M406.178 202.805L389.804 207.662L391.819 214.429L408.193 209.572L406.178 202.805Z" fill="#C10000"/>
<path d="M445.029 137.368L454.683 169.787L464.336 202.207C432.835 195.366 389.475 204.592 389.475 204.592L385.244 190.381L381.012 176.171C381.012 176.171 420.794 162.334 445.029 137.368Z" fill="#E9F1F9"/>
<path d="M383.663 185.068L382.287 180.184C382.682 180.076 417.061 170.244 446.979 143.903L450.394 155.373C421.366 179.397 391.126 186.883 385.451 188.567C385.122 188.665 384.897 188.728 384.766 188.766L383.663 185.068Z" fill="white"/>
<path d="M410.475 182.898L415.672 200.351C400.609 202.133 389.474 204.592 389.474 204.592L385.243 190.381L381.012 176.171C381.012 176.171 391.674 172.516 405.402 165.853L410.475 182.898Z" fill="#D5DFE5"/>
<path d="M466.994 205.246C469.358 204.544 470.706 202.063 470.003 199.703L450.987 135.836C450.284 133.476 447.798 132.131 445.434 132.833C443.069 133.534 441.721 136.016 442.424 138.376L461.44 202.242C462.143 204.602 464.629 205.947 466.994 205.246Z" fill="#FF2020"/>
<path d="M390.076 207.565L407.359 202.439L397.398 168.985L380.114 174.111C370.858 176.857 365.585 186.57 368.334 195.811C371.086 205.046 380.82 210.311 390.076 207.565Z" fill="#FA0010"/>
<path d="M381.032 186.497L389.57 183.965C390.195 183.781 390.551 183.125 390.364 182.501C390.18 181.878 389.522 181.522 388.897 181.709L380.359 184.24C379.735 184.425 379.378 185.081 379.565 185.704C379.753 186.328 380.408 186.684 381.032 186.497Z" fill="#6F0300"/>
<path d="M382.128 190.174L390.666 187.643C391.291 187.458 391.647 186.802 391.46 186.179C391.275 185.555 390.618 185.199 389.993 185.386L381.455 187.918C380.831 188.102 380.474 188.758 380.661 189.382C380.848 190.005 381.503 190.359 382.128 190.174Z" fill="#6F0300"/>
<path d="M383.223 193.849L391.761 191.318C392.385 191.133 392.742 190.477 392.555 189.854C392.37 189.23 391.713 188.874 391.088 189.061L382.55 191.593C381.925 191.777 381.569 192.433 381.756 193.057C381.94 193.68 382.598 194.036 383.223 193.849Z" fill="#6F0300"/>
<path d="M397.397 168.999L393.729 170.087L403.691 203.542L407.359 202.454L397.397 168.999Z" fill="#E9F1F9"/>
<path d="M409.716 204.246C411.292 203.779 412.192 202.123 411.722 200.551L401.96 167.763C401.492 166.191 399.833 165.292 398.257 165.762C396.682 166.229 395.781 167.884 396.252 169.457L406.014 202.244C406.482 203.817 408.141 204.713 409.716 204.246Z" fill="#FF2020"/>
<path d="M136.487 166.549H183.281V141.879C183.281 128.254 172.214 117.209 158.563 117.209H136.487C122.835 117.209 111.768 128.254 111.768 141.879C111.768 155.504 122.835 166.549 136.487 166.549Z" fill="white"/>
<ellipse rx="3.27002" ry="3.26361" transform="matrix(-1 0 0 1 164.286 143.116)" fill="#608DDB"/>
<ellipse rx="3.27002" ry="3.26361" transform="matrix(-1 0 0 1 148.282 143.116)" fill="#608DDB"/>
<ellipse rx="3.27002" ry="3.26361" transform="matrix(-1 0 0 1 132.279 143.116)" fill="#608DDB"/>
<defs>
<linearGradient id="paint0_linear" x1="93.2657" y1="-12.1874" x2="93.2657" y2="236.669" gradientUnits="userSpaceOnUse">
<stop stop-color="#0054E0"/>
<stop offset="1" stop-color="#3A20D3"/>
</linearGradient>
<linearGradient id="paint1_linear" x1="330.234" y1="190.297" x2="330.293" y2="204.215" gradientUnits="userSpaceOnUse">
<stop stop-color="#3D3C3E"/>
<stop offset="0.0787" stop-color="#313032"/>
<stop offset="0.2595" stop-color="#1B1B1C"/>
<stop offset="0.4575" stop-color="#0C0C0C"/>
<stop offset="0.6836" stop-color="#030303"/>
<stop offset="1"/>
</linearGradient>
<linearGradient id="paint2_linear" x1="288.2" y1="190.407" x2="288.259" y2="204.326" gradientUnits="userSpaceOnUse">
<stop stop-color="#3D3C3E"/>
<stop offset="0.0787" stop-color="#313032"/>
<stop offset="0.2595" stop-color="#1B1B1C"/>
<stop offset="0.4575" stop-color="#0C0C0C"/>
<stop offset="0.6836" stop-color="#030303"/>
<stop offset="1"/>
</linearGradient>
</defs>
</svg>
