<svg width="420" height="434" viewBox="0 0 420 434" fill="none" xmlns="http://www.w3.org/2000/svg">
<ellipse opacity="0.4" cx="158" cy="157.9" rx="157.5" ry="157" fill="url(#paint0_radial)"/>
<path d="M156.793 265.682C156.33 265.682 155.863 265.634 155.393 265.53C151.894 264.764 149.683 261.323 150.453 257.843C153.744 242.955 153.348 211.032 153.343 210.71C153.294 207.148 156.157 204.22 159.739 204.171C159.768 204.171 159.8 204.171 159.829 204.171C163.369 204.171 166.264 207.002 166.313 210.533C166.332 211.904 166.732 244.284 163.121 260.614C162.456 263.629 159.773 265.682 156.793 265.682Z" fill="#FFD200"/>
<ellipse cx="170.506" cy="149.187" rx="81.5652" ry="81.1265" fill="#FF9D00"/>
<path d="M112.767 253.806C111.28 253.806 109.785 253.3 108.565 252.266C105.838 249.956 105.512 245.885 107.834 243.173C120.817 228.02 129.518 209.78 129.604 209.598C131.13 206.377 134.992 204.992 138.233 206.508C141.473 208.024 142.866 211.863 141.342 215.086C140.96 215.892 131.849 235.031 117.705 251.539C116.424 253.036 114.601 253.806 112.767 253.806Z" fill="#FFD200"/>
<path d="M43.0592 120.543C39.8234 121.899 38.5914 125.822 40.4735 128.772C42.5089 131.961 45.5768 136.052 49.8376 139.948C56.6988 146.223 67.8599 153.049 83.9465 153.049C86.727 153.049 89.6561 152.846 92.7312 152.4C95.8015 151.955 98.0634 149.196 97.6982 146.131C97.3183 142.958 94.3844 140.745 91.2289 141.21C78.1055 143.145 66.8689 140.021 57.831 131.923C54.247 128.709 51.6905 125.29 50.0495 122.715C48.5667 120.388 45.6108 119.473 43.0592 120.543Z" fill="#FFD200"/>
<ellipse cx="153.347" cy="146.206" rx="81.5652" ry="81.1265" fill="#FFE000"/>
<path d="M76.1602 172.457C81.1782 187.006 90.2795 199.895 102.341 209.523L230.535 119.952C225.517 105.403 216.416 92.5145 204.354 82.8859L76.1602 172.457Z" fill="#FFEB6E"/>
<ellipse cx="153.347" cy="146.206" rx="61.1617" ry="60.8328" fill="#FFCE00"/>
<path d="M174.969 150.8C176.916 151.139 178.141 153.12 177.542 154.994C173.459 167.766 160.413 175.891 146.771 173.52C133.129 171.149 123.626 159.106 124.14 145.712C124.215 143.748 126.044 142.297 127.992 142.634L174.969 150.8Z" fill="#C70000"/>
<path d="M146.771 173.52C157.117 175.317 167.107 171.074 173.118 163.351C169.505 161.254 165.359 159.69 160.82 158.903C149.662 156.963 139.09 160.099 132.569 166.347C136.36 169.962 141.213 172.554 146.771 173.52Z" fill="#FF0041"/>
<path d="M132.287 135.652C129.472 135.163 127.59 132.497 128.082 129.7L128.567 126.944C129.058 124.144 131.739 122.272 134.551 122.761C137.366 123.251 139.248 125.917 138.756 128.714L138.272 131.47C137.782 134.269 135.101 136.141 132.287 135.652Z" fill="url(#paint1_linear)"/>
<path d="M172.5 142.641C169.685 142.152 167.803 139.486 168.295 136.689L168.779 133.933C169.271 131.133 171.952 129.261 174.764 129.75C177.579 130.24 179.461 132.906 178.969 135.703L178.484 138.459C177.993 141.258 175.314 143.13 172.5 142.641Z" fill="url(#paint2_linear)"/>
<path d="M257.563 228.817C256.334 228.817 255.097 228.422 254.057 227.608C233.001 211.124 231.803 179.962 231.765 178.644C231.667 175.528 234.129 172.924 237.262 172.83C237.321 172.827 237.382 172.827 237.44 172.827C240.491 172.827 243.011 175.237 243.108 178.291C243.118 178.562 244.228 205.547 261.077 218.74C263.538 220.668 263.965 224.218 262.026 226.666C260.906 228.078 259.243 228.817 257.563 228.817Z" fill="#FFD200"/>
<path opacity="0.8" d="M98.2464 140.854C104.061 107.759 135.749 85.6176 169.023 91.4006C180.613 93.4154 190.863 98.5542 199.059 105.79C190.203 95.8662 178.037 88.7416 163.876 86.2811C130.602 80.4981 98.9136 102.637 93.0993 135.734C89.3108 157.302 97.4478 178.199 112.782 191.738C100.832 178.346 94.9084 159.862 98.2464 140.854Z" fill="#FFAE00"/>
<circle opacity="0.2" cx="316" cy="330.4" r="103.5" fill="url(#paint3_radial)"/>
<ellipse cx="318.694" cy="331.321" rx="31.1628" ry="31.1006" fill="#FA1194"/>
<path d="M318.089 375.099C316.795 375.099 315.705 374.097 315.619 372.789C315.012 363.593 314.398 356.705 314.394 356.636C314.272 355.275 315.279 354.074 316.64 353.952C318.001 353.829 319.208 354.836 319.329 356.194C319.336 356.263 319.955 363.203 320.564 372.461C320.655 373.824 319.62 375.002 318.254 375.09C318.199 375.099 318.144 375.099 318.089 375.099Z" fill="#FF33BB"/>
<path d="M297.954 373.123C297.521 373.123 297.081 373.009 296.681 372.772C295.508 372.069 295.127 370.551 295.831 369.378C299.482 363.305 301.512 357.13 301.531 357.068C301.954 355.769 303.351 355.059 304.653 355.48C305.955 355.9 306.669 357.294 306.247 358.593C306.159 358.866 304.037 365.348 300.084 371.922C299.617 372.696 298.796 373.123 297.954 373.123Z" fill="#FF33BB"/>
<path d="M285.451 338.532C280.696 338.532 277.046 336.812 274.58 335.088C270.901 332.516 269.047 329.395 268.969 329.262C268.364 328.231 268.712 326.906 269.747 326.303C270.777 325.702 272.103 326.044 272.71 327.072C272.953 327.481 278.688 336.819 290.322 333.485C291.474 333.155 292.673 333.82 293.004 334.967C293.335 336.116 292.669 337.313 291.519 337.643C289.33 338.268 287.307 338.532 285.451 338.532Z" fill="#FF33BB"/>
<ellipse cx="312.045" cy="331.05" rx="31.1628" ry="31.1006" fill="#FF40E1"/>
<path d="M284.14 344.911C286.776 350.188 290.879 354.627 295.934 357.679L339.945 317.19C337.308 311.913 333.205 307.474 328.151 304.422L284.14 344.911Z" fill="#FF69F0"/>
<ellipse cx="312.045" cy="331.05" rx="23.3691" ry="23.3225" fill="#FF24C4"/>
<path d="M322.822 327.279C323.757 327.317 324.452 328.219 324.288 329.191C323.16 335.815 317.544 340.726 311 340.46C304.455 340.194 299.256 334.843 298.673 328.15C298.587 327.17 299.356 326.324 300.288 326.362L322.822 327.279Z" fill="#83003E"/>
<path d="M306.306 323.239C305.39 323.201 304.676 322.429 304.714 321.515L304.726 321.218C304.764 320.303 305.538 319.591 306.454 319.629C307.37 319.667 308.084 320.439 308.046 321.353L308.034 321.65C307.996 322.564 307.223 323.277 306.306 323.239Z" fill="#36003B"/>
<path d="M316.323 323.45C315.407 323.412 314.693 322.64 314.731 321.726L314.743 321.429C314.781 320.515 315.554 319.802 316.471 319.84C317.387 319.878 318.101 320.65 318.063 321.565L318.051 321.861C318.013 322.776 317.239 323.488 316.323 323.45Z" fill="#36003B"/>
<path d="M318.938 337.995C317.908 336.045 314.962 334.636 311.49 334.636C308.027 334.636 305.091 336.035 304.051 337.976C306.019 339.448 308.403 340.358 311 340.462C313.941 340.581 316.694 339.652 318.938 337.995Z" fill="#FF60C3"/>
<path d="M345.651 340.816C344.711 340.816 343.842 340.201 343.569 339.254C343.235 338.106 343.897 336.907 345.046 336.575C345.177 336.537 353.433 334.055 357.385 327.949C358.035 326.944 359.377 326.657 360.384 327.305C361.391 327.953 361.679 329.293 361.029 330.297C356.169 337.8 346.655 340.614 346.253 340.731C346.053 340.788 345.851 340.816 345.651 340.816Z" fill="#FF33BB"/>
<path opacity="0.5" d="M291.522 330.374C292.045 317.546 302.852 307.564 315.69 308.015C314.808 307.878 313.908 307.787 312.992 307.749C300.096 307.227 289.218 317.235 288.695 330.103C288.171 342.973 298.104 353.829 311 354.352C311.043 354.354 311.178 354.354 311.221 354.356C299.656 352.547 291.034 342.329 291.522 330.374Z" fill="#FF119D"/>
<defs>
<radialGradient id="paint0_radial" cx="0" cy="0" r="1" gradientUnits="userSpaceOnUse" gradientTransform="translate(158.001 157.901) scale(157.5 157)">
<stop stop-color="#FFE300"/>
<stop offset="0.2177" stop-color="#CFB608" stop-opacity="0.7823"/>
<stop offset="0.7101" stop-color="#57451D" stop-opacity="0.2899"/>
<stop offset="1" stop-color="#0D002A" stop-opacity="0.01"/>
</radialGradient>
<linearGradient id="paint1_linear" x1="128.816" y1="122.778" x2="125.497" y2="135.796" gradientUnits="userSpaceOnUse">
<stop stop-color="#3D3C3E"/>
<stop offset="0.0787" stop-color="#313032"/>
<stop offset="0.2595" stop-color="#1B1B1C"/>
<stop offset="0.4575" stop-color="#0C0C0C"/>
<stop offset="0.6836" stop-color="#030303"/>
<stop offset="1"/>
</linearGradient>
<linearGradient id="paint2_linear" x1="169.029" y1="129.765" x2="165.711" y2="142.784" gradientUnits="userSpaceOnUse">
<stop stop-color="#3D3C3E"/>
<stop offset="0.0787" stop-color="#313032"/>
<stop offset="0.2595" stop-color="#1B1B1C"/>
<stop offset="0.4575" stop-color="#0C0C0C"/>
<stop offset="0.6836" stop-color="#030303"/>
<stop offset="1"/>
</linearGradient>
<radialGradient id="paint3_radial" cx="0" cy="0" r="1" gradientUnits="userSpaceOnUse" gradientTransform="translate(316 330.4) scale(103.5)">
<stop stop-color="#FF60C3"/>
<stop offset="0.0882" stop-color="#F65CBD" stop-opacity="0.9118"/>
<stop offset="0.233" stop-color="#DD53AE" stop-opacity="0.767"/>
<stop offset="0.4163" stop-color="#B54394" stop-opacity="0.5837"/>
<stop offset="0.631" stop-color="#7D2C71" stop-opacity="0.369"/>
<stop offset="0.8692" stop-color="#371144" stop-opacity="0.1308"/>
<stop offset="1" stop-color="#0D002A" stop-opacity="0.01"/>
</radialGradient>
</defs>
</svg>
