<svg width="140" height="40" viewBox="0 0 140 40" fill="none" xmlns="http://www.w3.org/2000/svg">
<circle cx="19.9095" cy="19.9095" r="19.9095" fill="white"/>
<path fill-rule="evenodd" clip-rule="evenodd" d="M19.9162 39.8139C8.91701 39.8139 0 30.8972 0 19.898C0 9.69514 7.6726 1.28583 17.5621 0.121094L18.6525 10.5022H13.9593C12.7388 10.5022 11.6059 10.7916 10.6788 11.2825C9.86201 11.7148 9.20533 12.3029 8.79017 12.9868C8.47898 13.4995 8.11777 14.2601 7.92091 14.7417C7.73798 15.1883 7.58328 15.6424 7.45787 16.1033H8.26854C16.3038 16.1033 24.3401 16.103 32.375 16.1037C32.1263 15.1894 31.7658 14.3158 31.3135 13.4848C30.7583 12.4648 30.2413 11.8595 29.158 11.285C28.2302 10.7931 27.0954 10.5026 25.8732 10.5026H21.1799L22.2704 0.121451C32.1599 1.28619 39.8325 9.6955 39.8325 19.8984C39.8321 30.8972 30.9155 39.8139 19.9162 39.8139ZM22.1585 33.1138C20.5529 34.2192 19.4864 34.176 17.8972 33.0749C15.3012 31.2763 13.1794 28.994 11.722 26.393C10.3829 24.0024 9.62835 21.37 9.54296 18.664H30.5686C30.5096 20.5218 30.1355 22.3614 29.4653 24.1057C28.0465 27.7985 25.3994 30.8829 22.1585 33.1138Z" fill="#F9603E"/>
<path fill-rule="evenodd" clip-rule="evenodd" d="M73.4693 24.2379C73.4876 24.4282 73.4852 24.6793 73.4212 24.8388L73.0271 24.2815C71.5855 22.217 69.788 19.6305 68.2342 17.6421C66.0446 14.8401 63.8596 12.1855 61.6235 9.43766C61.0324 8.71128 60.7531 8.28859 60.2192 7.56512C59.5336 6.63614 58.022 4.71717 57.0077 4.22093C56.2022 3.82688 55.1336 3.77151 54.2178 4.08496C53.4095 4.36152 52.7649 4.91515 52.4397 5.57692C52.0839 6.30059 52.1629 7.70089 52.1685 8.60646C52.1821 10.7889 52.2351 12.9271 52.2535 15.1184C52.3081 21.6436 52.297 28.2059 52.297 34.7413C52.297 35.8947 52.3068 36.6784 52.9016 37.4365C54.4428 39.4004 57.9764 39.3445 58.3804 35.5247C58.5995 33.4526 58.5328 31.1789 58.5328 29.0597C58.5328 24.6743 58.5162 20.2858 58.5321 15.9007C58.715 15.982 59.8556 17.5233 60.0224 17.722L64.3796 23.3747C65.2495 24.6119 66.2897 25.8952 67.1968 27.2008C68.105 28.5078 69.0177 29.7876 69.9318 31.1522C70.8126 32.4667 71.6424 33.8133 72.5327 35.1933C72.9744 35.8781 73.0354 36.0467 73.5031 36.7127C73.629 36.8919 73.7127 37.0475 73.8383 37.2088C74.2439 37.7297 75.1667 38.2217 76.1739 38.2452C77.2588 38.2708 78.0164 37.8306 78.5972 37.3394C79.3197 36.7281 79.323 35.9707 79.3916 34.7783C79.5131 32.6648 79.633 30.5103 79.6964 28.4053C79.8276 24.053 80.0005 19.7578 80.0423 15.3804C80.0513 14.4369 80.1371 6.08572 79.9838 5.48778C79.8129 4.82048 79.0826 3.93039 78.5507 3.56137C77.8464 3.07276 76.809 2.91428 75.8867 3.29466C75.1264 3.6082 74.4951 4.19882 74.1247 4.85274C73.5586 5.85197 73.6877 6.44188 73.6877 7.73225C73.6877 12.7472 73.6018 17.5918 73.4991 22.5919C73.49 23.0353 73.413 23.838 73.4696 24.2378L73.4693 24.2379Z" fill="#F9603E"/>
<path fill-rule="evenodd" clip-rule="evenodd" d="M95.3555 11.5417L97.278 11.5231C100.781 11.6049 104.62 11.6351 108.158 11.6493L115.848 11.7044C116.954 11.7172 118.481 11.7997 119.518 11.7705L122.475 11.6831C122.478 19.7875 122.453 27.9255 122.527 36.034C122.536 37.018 122.797 37.6304 123.29 38.1587C123.686 38.5824 124.39 39.0411 125.152 39.2257C126.576 39.5702 128.486 39.0036 128.769 37.2507C128.993 35.8608 128.819 13.5964 128.812 11.6935C131.69 11.6719 133.61 11.9198 136.53 11.446C137.743 11.2492 138.556 10.8897 138.926 9.90416C139.623 8.0467 137.931 5.28337 135.859 5.29292L118.164 5.26277C111.54 5.14027 104.8 5.10047 98.1519 5.04861L96.9285 5.00952C95.1259 5.00992 93.2948 5.0661 91.5115 5.17232C90.6831 5.22177 90.1486 5.25282 89.4426 5.90534C89.0212 6.29476 88.5898 6.891 88.3455 7.61075C88.0831 8.38397 88.1521 9.2628 88.5491 9.88748C89.5444 11.4537 93.6305 11.5415 95.3555 11.5415V11.5417Z" fill="#F9603E"/>
<path fill-rule="evenodd" clip-rule="evenodd" d="M110.498 13.7495C109.183 14.0071 108.345 14.6296 107.852 15.6236C107.558 16.2152 107.599 19.035 107.582 19.8625C107.522 22.6764 107.36 27.3437 106.342 29.8856C105.647 31.6231 104.827 32.5454 102.927 33.2872C100.289 34.3175 97.429 33.5928 96.1675 31.943C95.4119 30.9549 95.1756 30.1908 94.9015 28.7087C94.4583 26.3128 94.1835 22.8463 94.1748 20.3864C94.1715 19.4372 94.3103 16.6777 94.0184 15.9971C93.6404 15.1156 92.6407 14.2793 91.496 14.0112C90.2425 13.7176 89.0813 14.4047 88.4958 15.448C87.8948 16.5188 87.8527 17.8748 87.8118 19.2501C87.7692 20.6821 87.8061 22.2668 87.8878 23.6966C88.0501 26.5385 88.3253 28.9834 89.0955 31.4957C89.818 33.852 90.9711 36.007 92.3899 37.2509C93.2052 37.9657 93.9879 38.5059 95.1705 38.9736C96.2425 39.3976 97.5529 39.7171 98.8014 39.8824C103.572 40.5138 109.04 38.5895 111.141 34.2971C113.172 30.148 113.724 23.6236 114.012 19.0768C114.058 18.3387 114.059 17.6344 114.067 16.8901C114.076 15.9938 114.097 15.6393 113.621 15.0531C113.282 14.6347 112.984 14.2771 112.394 14.0053C111.879 13.7678 111.134 13.6251 110.498 13.7495Z" fill="#F9603E"/>
<path fill-rule="evenodd" clip-rule="evenodd" d="M73.0273 25.6164L73.4215 26.1737C73.4854 26.0142 73.4878 25.7631 73.4695 25.5728C73.4069 25.7051 73.421 25.9201 73.4018 26.108C73.3964 26.1017 73.3876 26.0829 73.3857 26.0886L73.0273 25.6163V25.6164Z" fill="#E3CC8B"/>
</svg>
