<svg width="36" height="36" viewBox="0 0 36 36" fill="none" xmlns="http://www.w3.org/2000/svg">
<path d="M17.9998 36C27.9408 36 35.9996 27.9412 35.9996 18.0002C35.9996 8.05915 27.9408 0.000366211 17.9998 0.000366211C8.05878 0.000366211 0 8.05915 0 18.0002C0 27.9412 8.05878 36 17.9998 36Z" fill="#41B4E6"/>
<path d="M36.0004 18.0003C36.0004 17.5617 35.9839 17.1271 35.9531 16.6963L28.493 9.23633L7.50781 17.4909L15.5369 25.5201L15.6422 25.8992L15.7785 25.7617L15.7791 25.7623L15.6422 25.8992L24.5239 34.7809C31.2401 32.168 36.0004 25.6404 36.0004 18.0003Z" fill="#0091C8"/>
<path d="M16.2524 20.6227L24.3869 26.7643L28.4931 9.23633L7.50781 17.4909L13.8934 19.606L25.5472 11.789L16.2524 20.6227Z" fill="white"/>
<path d="M13.8926 19.606L15.6415 25.8993L16.2516 20.6227L25.5464 11.7889L13.8926 19.606Z" fill="#D2D2D7"/>
<path d="M18.8955 22.6186L15.6416 25.8991L16.2517 20.6226L18.8955 22.6186Z" fill="#B9B9BE"/>
</svg>
