<svg width="36" height="36" viewBox="0 0 36 36" fill="none" xmlns="http://www.w3.org/2000/svg">
<circle cx="18" cy="18" r="18" fill="#E53935"/>
<path d="M7.50605 23.5314C7.96742 25.1679 9.37883 25.4673 9.47299 25.5247C11.7958 26.1575 24.8159 26.1594 27.1735 25.5247C28.7883 25.0577 29.0849 23.6256 29.1405 23.5314C29.7553 20.2604 29.7958 15.9961 29.1122 12.2844L29.1405 12.469C28.6791 10.8325 27.2677 10.5331 27.1735 10.4757C24.8818 9.85327 11.8279 9.82973 9.47299 10.4757C7.8582 10.9436 7.5616 12.3748 7.50605 12.469C6.84789 15.9066 6.81494 19.8509 7.50605 23.5314ZM16.0611 21.4383V14.5715L21.961 18.0101L16.0611 21.4383Z" fill="white"/>
</svg>
