<svg width="12" height="15" viewBox="0 0 12 15" fill="none" xmlns="http://www.w3.org/2000/svg">
<path d="M10.6875 5.89062H10.4531V5.1875C10.4531 2.73205 8.45545 0.734375 6 0.734375C3.54455 0.734375 1.54688 2.73205 1.54688 5.1875V5.89062H1.3125C0.924187 5.89062 0.609375 6.20544 0.609375 6.59375V13.625C0.609375 14.0133 0.924187 14.3281 1.3125 14.3281H10.6875C11.0758 14.3281 11.3906 14.0133 11.3906 13.625V6.59375C11.3906 6.20544 11.0758 5.89062 10.6875 5.89062ZM2.95312 5.1875C2.95312 3.50745 4.31995 2.14062 6 2.14062C7.68005 2.14062 9.04688 3.50745 9.04688 5.1875V5.89062H2.95312V5.1875ZM9.98438 12.9219H2.01562V7.29688H9.98438V12.9219Z" fill="black"/>
</svg>
