<svg width="20" height="18" viewBox="0 0 20 18" fill="none" xmlns="http://www.w3.org/2000/svg">
<path d="M18.2692 0.346161H1.73078C0.776406 0.346161 0 1.12257 0 2.0769V12.8461C0 13.8005 0.776406 14.5769 1.73078 14.5769H7.40387L9.53848 17.4231C9.64742 17.5683 9.8184 17.6539 10 17.6539C10.1816 17.6539 10.3526 17.5683 10.4615 17.4231L12.5961 14.5769H18.2692C19.2236 14.5769 20 13.8005 20 12.8461V2.0769C20 1.12257 19.2236 0.346161 18.2692 0.346161ZM13.8462 11.8846H6.15383C5.8352 11.8846 5.57691 11.6263 5.57691 11.3077C5.57691 9.55073 6.60668 8.02987 8.0943 7.31663C7.49469 6.78768 7.11539 6.0144 7.11539 5.15382C7.11539 3.56323 8.40941 2.26921 10 2.26921C11.5906 2.26921 12.8846 3.56323 12.8846 5.15382C12.8846 6.0144 12.5053 6.78765 11.9057 7.31663C13.3933 8.02987 14.4231 9.55069 14.4231 11.3077C14.4231 11.6263 14.1648 11.8846 13.8462 11.8846Z" fill="white"/>
</svg>
