<svg width="40" height="40" viewBox="0 0 40 40" fill="none" xmlns="http://www.w3.org/2000/svg">
<g clip-path="url(#clip0)">
<path d="M17.8471 17.8472C19.2618 18.1937 20.7392 18.1937 22.1539 17.8472C22.5492 16.2396 23.3771 14.7708 24.5477 13.6002C25.7184 12.4296 27.1871 11.6017 28.7948 11.2064C29.1206 9.8737 29.1393 8.4844 28.8495 7.14343C28.5597 5.80247 27.9689 4.5449 27.1218 3.46572C26.2747 2.38655 25.1934 1.514 23.9597 0.913991C22.7259 0.31398 21.3719 0.00219727 20 0.00219727C18.6281 0.00219727 17.2741 0.31398 16.0403 0.913991C14.8065 1.514 13.7253 2.38655 12.8782 3.46572C12.0311 4.5449 11.4403 5.80247 11.1505 7.14343C10.8607 8.4844 10.8794 9.8737 11.2052 11.2064C12.8132 11.6012 14.2823 12.4289 15.4532 13.5996C16.6241 14.7703 17.452 16.2393 17.8471 17.8472Z" fill="#7ABDF7"/>
<path d="M22.1539 22.1517C20.7392 21.8052 19.2618 21.8052 17.8471 22.1517C17.4518 23.7593 16.6239 25.2281 15.4533 26.3987C14.2826 27.5693 12.8139 28.3972 11.2062 28.7925C10.8804 30.1252 10.8616 31.5145 11.1515 32.8555C11.4413 34.1964 12.0321 35.454 12.8792 36.5332C13.7263 37.6123 14.8075 38.4849 16.0413 39.0849C17.2751 39.6849 18.6291 39.9967 20.001 39.9967C21.3729 39.9967 22.7269 39.6849 23.9607 39.0849C25.1944 38.4849 26.2757 37.6123 27.1228 36.5332C27.9699 35.454 28.5607 34.1964 28.8505 32.8555C29.1403 31.5145 29.1216 30.1252 28.7958 28.7925C27.1878 28.3977 25.7186 27.57 24.5478 26.3993C23.3769 25.2286 22.549 23.7596 22.1539 22.1517Z" fill="#0D74F5"/>
<path d="M30.9482 10.9456C30.2229 10.9455 29.5003 11.0326 28.7958 11.2052C28.4009 12.8127 27.5733 14.2815 26.4028 15.452C25.2322 16.6225 23.7635 17.4501 22.1559 17.845C21.8095 19.2597 21.8095 20.7371 22.1559 22.1518C23.7635 22.547 25.2322 23.3748 26.4027 24.5455C27.5732 25.7162 28.4009 27.185 28.7958 28.7927C30.0394 29.0964 31.3332 29.133 32.5919 28.9C33.8507 28.6671 35.0457 28.1698 36.0981 27.4411C37.1506 26.7124 38.0365 25.7687 38.6975 24.6725C39.3585 23.5762 39.7795 22.3523 39.9328 21.0814C40.0861 19.8105 39.9681 18.5215 39.5866 17.2995C39.2052 16.0776 38.5689 14.9504 37.7199 13.9924C36.8708 13.0344 35.8283 12.2673 34.661 11.7417C33.4937 11.2162 32.2283 10.9442 30.9482 10.9436V10.9456Z" fill="#4494F7"/>
<path d="M17.847 22.152C18.1934 20.7373 18.1934 19.2599 17.847 17.8452C16.2393 17.4503 14.7705 16.6227 13.5998 15.4522C12.4291 14.2817 11.6013 12.813 11.2061 11.2054C9.87346 10.8795 8.48416 10.8608 7.14319 11.1506C5.80222 11.4404 4.54465 12.0312 3.46548 12.8783C2.38631 13.7254 1.51376 14.8067 0.913747 16.0404C0.313736 17.2742 0.00195313 18.6282 0.00195312 20.0001C0.00195313 21.372 0.313736 22.726 0.913747 23.9598C1.51376 25.1936 2.38631 26.2748 3.46548 27.1219C4.54465 27.969 5.80222 28.5598 7.14319 28.8496C8.48416 29.1394 9.87346 29.1207 11.2061 28.7949C11.6009 27.1868 12.4286 25.7175 13.5993 24.5464C14.77 23.3754 16.239 22.5473 17.847 22.152Z" fill="#005CF4"/>
<path d="M22.1538 17.8472C23.7615 17.4518 25.2302 16.624 26.4009 15.4533C27.5715 14.2827 28.3994 12.8139 28.7947 11.2063C27.187 11.6016 25.7183 12.4295 24.5476 13.6001C23.377 14.7708 22.5491 16.2395 22.1538 17.8472Z" fill="#186EF9"/>
<path d="M22.1538 22.152C22.5488 23.7598 23.3766 25.2287 24.5473 26.3994C25.718 27.5701 27.1869 28.3979 28.7947 28.7929C28.3994 27.1852 27.5715 25.7165 26.4009 24.5458C25.2302 23.3752 23.7615 22.5473 22.1538 22.152Z" fill="#0246F2"/>
<path d="M17.8472 17.8472C17.4518 16.2395 16.624 14.7708 15.4533 13.6001C14.2827 12.4295 12.8139 11.6016 11.2063 11.2063C11.6016 12.8139 12.4295 14.2827 13.6001 15.4533C14.7708 16.624 16.2395 17.4518 17.8472 17.8472Z" fill="#0046F8"/>
<path d="M17.8472 22.152C16.2395 22.5473 14.7708 23.3752 13.6001 24.5458C12.4295 25.7165 11.6016 27.1852 11.2063 28.7929C12.8139 28.3976 14.2827 27.5697 15.4533 26.399C16.624 25.2284 17.4518 23.7596 17.8472 22.152Z" fill="#0729F1"/>
<path d="M17.8471 17.8472C19.2618 18.1937 20.7392 18.1937 22.1539 17.8472C22.5492 16.2396 23.3771 14.7708 24.5477 13.6002C25.7184 12.4296 27.1871 11.6017 28.7948 11.2064C29.1206 9.8737 29.1393 8.4844 28.8495 7.14343C28.5597 5.80247 27.9689 4.5449 27.1218 3.46572C26.2747 2.38655 25.1934 1.514 23.9597 0.913991C22.7259 0.31398 21.3719 0.00219727 20 0.00219727C18.6281 0.00219727 17.2741 0.31398 16.0403 0.913991C14.8065 1.514 13.7253 2.38655 12.8782 3.46572C12.0311 4.5449 11.4403 5.80247 11.1505 7.14343C10.8607 8.4844 10.8794 9.8737 11.2052 11.2064C12.8132 11.6012 14.2823 12.4289 15.4532 13.5996C16.6241 14.7703 17.452 16.2393 17.8471 17.8472Z" fill="#7ABDF7"/>
<path d="M22.1539 22.1517C20.7392 21.8052 19.2618 21.8052 17.8471 22.1517C17.4518 23.7593 16.6239 25.2281 15.4533 26.3987C14.2826 27.5693 12.8139 28.3972 11.2062 28.7925C10.8804 30.1252 10.8616 31.5145 11.1515 32.8555C11.4413 34.1964 12.0321 35.454 12.8792 36.5332C13.7263 37.6123 14.8075 38.4849 16.0413 39.0849C17.2751 39.6849 18.6291 39.9967 20.001 39.9967C21.3729 39.9967 22.7269 39.6849 23.9607 39.0849C25.1944 38.4849 26.2757 37.6123 27.1228 36.5332C27.9699 35.454 28.5607 34.1964 28.8505 32.8555C29.1403 31.5145 29.1216 30.1252 28.7958 28.7925C27.1878 28.3977 25.7186 27.57 24.5478 26.3993C23.3769 25.2286 22.549 23.7596 22.1539 22.1517Z" fill="#0D74F5"/>
<path d="M30.9482 10.9456C30.2229 10.9455 29.5003 11.0326 28.7958 11.2052C28.4009 12.8127 27.5733 14.2815 26.4028 15.452C25.2322 16.6225 23.7635 17.4501 22.1559 17.845C21.8095 19.2597 21.8095 20.7371 22.1559 22.1518C23.7635 22.547 25.2322 23.3748 26.4027 24.5455C27.5732 25.7162 28.4009 27.185 28.7958 28.7927C30.0394 29.0964 31.3332 29.133 32.5919 28.9C33.8507 28.6671 35.0457 28.1698 36.0981 27.4411C37.1506 26.7124 38.0365 25.7687 38.6975 24.6725C39.3585 23.5762 39.7795 22.3523 39.9328 21.0814C40.0861 19.8105 39.9681 18.5215 39.5866 17.2995C39.2052 16.0776 38.5689 14.9504 37.7199 13.9924C36.8708 13.0344 35.8283 12.2673 34.661 11.7417C33.4937 11.2162 32.2283 10.9442 30.9482 10.9436V10.9456Z" fill="#4494F7"/>
<path d="M17.847 22.152C18.1934 20.7373 18.1934 19.2599 17.847 17.8452C16.2393 17.4503 14.7705 16.6227 13.5998 15.4522C12.4291 14.2817 11.6013 12.813 11.2061 11.2054C9.87346 10.8795 8.48416 10.8608 7.14319 11.1506C5.80222 11.4404 4.54465 12.0312 3.46548 12.8783C2.38631 13.7254 1.51376 14.8067 0.913747 16.0404C0.313736 17.2742 0.00195313 18.6282 0.00195312 20.0001C0.00195313 21.372 0.313736 22.726 0.913747 23.9598C1.51376 25.1936 2.38631 26.2748 3.46548 27.1219C4.54465 27.969 5.80222 28.5598 7.14319 28.8496C8.48416 29.1394 9.87346 29.1207 11.2061 28.7949C11.6009 27.1868 12.4286 25.7175 13.5993 24.5464C14.77 23.3754 16.239 22.5473 17.847 22.152Z" fill="#005CF4"/>
<path d="M22.1538 17.8472C23.7615 17.4518 25.2302 16.624 26.4009 15.4533C27.5715 14.2827 28.3994 12.8139 28.7947 11.2063C27.187 11.6016 25.7183 12.4295 24.5476 13.6001C23.377 14.7708 22.5491 16.2395 22.1538 17.8472Z" fill="#186EF9"/>
<path d="M22.1538 22.152C22.5488 23.7598 23.3766 25.2287 24.5473 26.3994C25.718 27.5701 27.1869 28.3979 28.7947 28.7929C28.3994 27.1852 27.5715 25.7165 26.4009 24.5458C25.2302 23.3752 23.7615 22.5473 22.1538 22.152Z" fill="#0246F2"/>
<path d="M17.8472 17.8472C17.4518 16.2395 16.624 14.7708 15.4533 13.6001C14.2827 12.4295 12.8139 11.6016 11.2063 11.2063C11.6016 12.8139 12.4295 14.2827 13.6001 15.4533C14.7708 16.624 16.2395 17.4518 17.8472 17.8472Z" fill="#0046F8"/>
<path d="M17.8472 22.152C16.2395 22.5473 14.7708 23.3752 13.6001 24.5458C12.4295 25.7165 11.6016 27.1852 11.2063 28.7929C12.8139 28.3976 14.2827 27.5697 15.4533 26.399C16.624 25.2284 17.4518 23.7596 17.8472 22.152Z" fill="#0729F1"/>
</g>
<defs>
<clipPath id="clip0">
<rect width="39.999" height="40" fill="white"/>
</clipPath>
</defs>
</svg>
