<svg width="20" height="20" viewBox="0 0 20 20" fill="none" xmlns="http://www.w3.org/2000/svg">
<path d="M18.8998 1.10016C18.1666 0.366765 17.2832 0 16.2503 0H3.75022C2.71733 0 1.83394 0.366765 1.1004 1.10016C0.36701 1.83369 0.000244141 2.71704 0.000244141 3.74997V16.2499C0.000244141 17.2828 0.36701 18.1662 1.1004 18.8997C1.83394 19.6333 2.71733 20 3.75022 20H16.2502C17.2831 20 18.1665 19.6333 18.8997 18.8997C19.6332 18.1662 20 17.2828 20 16.2499V3.74997C19.9999 2.71704 19.6332 1.83355 18.8998 1.10016ZM15.2997 7.69537C15.3084 7.77349 15.3128 7.89047 15.3128 8.04699C15.3128 8.77619 15.2064 9.50753 14.9938 10.2408C14.7812 10.9745 14.4557 11.6776 14.0171 12.3503C13.579 13.0229 13.056 13.6177 12.4484 14.1342C11.8407 14.6505 11.1117 15.063 10.2608 15.3709C9.41033 15.6793 8.4987 15.8335 7.52656 15.8335C6.01626 15.8335 4.6187 15.4252 3.33393 14.6096C3.54226 14.6355 3.75939 14.6486 3.98496 14.6486C5.24369 14.6486 6.37651 14.258 7.38349 13.4765C6.7933 13.4681 6.26586 13.2859 5.8015 12.9296C5.337 12.5738 5.01374 12.1225 4.83141 11.5755C5.05702 11.6102 5.22627 11.6274 5.3391 11.6274C5.53005 11.6274 5.75147 11.5927 6.00313 11.5235C5.36947 11.4017 4.8357 11.0874 4.40166 10.5795C3.96754 10.0717 3.75054 9.4923 3.75054 8.84131V8.81527C4.21048 9.03213 4.64452 9.14496 5.05255 9.15376C4.26261 8.62414 3.86766 7.8647 3.86766 6.87514C3.86766 6.38898 3.99344 5.92895 4.24519 5.49491C4.93088 6.33698 5.76438 7.00963 6.74514 7.51308C7.726 8.01648 8.77645 8.29874 9.89617 8.35944C9.85285 8.19453 9.83109 7.98611 9.83109 7.73445C9.83109 6.97912 10.098 6.3347 10.6319 5.80079C11.1657 5.26693 11.8103 4.9999 12.5654 4.9999C13.3642 4.9999 14.0284 5.28645 14.5578 5.8594C15.1568 5.74657 15.7387 5.5251 16.3027 5.19537C16.0858 5.86359 15.6819 6.37146 15.0919 6.71871C15.6559 6.64045 16.1809 6.49296 16.667 6.27596C16.3024 6.83149 15.8466 7.30457 15.2997 7.69537Z" fill="white"/>
</svg>
