<svg width="24" height="24" viewBox="0 0 24 24" fill="none" xmlns="http://www.w3.org/2000/svg">
<path d="M12 24C8.79469 24 5.78123 22.7518 3.51469 20.4853C1.24823 18.2188 0 15.2053 0 12C0 8.79469 1.24823 5.78123 3.51469 3.51469C5.78123 1.24823 8.79469 0 12 0C15.2053 0 18.2188 1.24823 20.4853 3.51469C22.7518 5.78123 24 8.79469 24 12C24 15.2053 22.7518 18.2188 20.4853 20.4853C18.2188 22.7518 15.2053 24 12 24ZM12 1.40625C6.15858 1.40625 1.40625 6.15858 1.40625 12C1.40625 17.8414 6.15858 22.5938 12 22.5938C17.8414 22.5938 22.5938 17.8414 22.5938 12C22.5938 6.15858 17.8414 1.40625 12 1.40625Z" fill="black"/>
</svg>
