<svg width="142" height="44" viewBox="0 0 142 44" fill="none" xmlns="http://www.w3.org/2000/svg">
<path fill-rule="evenodd" clip-rule="evenodd" d="M75.469 24.238C75.4873 24.4283 75.4849 24.6795 75.421 24.8389L75.0268 24.2816C73.5852 22.2171 71.7878 19.6307 70.2339 17.6422C68.0443 14.8402 65.8593 12.1856 63.6232 9.43778C63.0322 8.7114 62.7528 8.28871 62.219 7.56524C61.5334 6.63626 60.0217 4.7173 59.0074 4.22105C58.202 3.827 57.1334 3.77163 56.2176 4.08508C55.4093 4.36164 54.7646 4.91527 54.4394 5.57704C54.0837 6.30071 54.1626 7.70101 54.1683 8.60658C54.1818 10.789 54.2349 12.9272 54.2533 15.1185C54.3079 21.6437 54.2967 28.2061 54.2967 34.7414C54.2967 35.8948 54.3066 36.6785 54.9014 37.4366C56.4426 39.4006 59.9761 39.3446 60.3801 35.5248C60.5993 33.4527 60.5326 31.179 60.5326 29.0599C60.5326 24.6744 60.516 20.2859 60.5319 15.9009C60.7148 15.9822 61.8554 17.5235 62.0221 17.7221L66.3794 23.3748C67.2493 24.612 68.2894 25.8954 69.1966 27.2009C70.1048 28.5079 71.0175 29.7878 71.9316 31.1523C72.8123 32.4669 73.6421 33.8134 74.5324 35.1934C74.9742 35.8782 75.0352 36.0468 75.5029 36.7128C75.6287 36.892 75.7124 37.0477 75.838 37.209C76.2437 37.7298 77.1665 38.2219 78.1737 38.2454C79.2585 38.2709 80.0162 37.8307 80.5969 37.3395C81.3195 36.7282 81.3228 35.9708 81.3913 34.7785C81.5128 32.6649 81.6327 30.5104 81.6961 28.4054C81.8274 24.0532 82.0002 19.7579 82.042 15.3805C82.0511 14.437 82.1368 6.08585 81.9836 5.4879C81.8126 4.82061 81.0823 3.93052 80.5505 3.5615C79.8461 3.07289 78.8088 2.9144 77.8865 3.29478C77.1262 3.60833 76.4949 4.19894 76.1245 4.85287C75.5584 5.85209 75.6874 6.442 75.6874 7.73237C75.6874 12.7473 75.6016 17.5919 75.4989 22.5921C75.4897 23.0354 75.4128 23.8381 75.4693 24.2379L75.469 24.238Z" fill="#F9603E"/>
<path fill-rule="evenodd" clip-rule="evenodd" d="M97.3551 11.5419L99.2775 11.5233C102.781 11.6051 106.619 11.6352 110.157 11.6494L117.847 11.7046C118.953 11.7173 120.48 11.7998 121.518 11.7706L124.474 11.6833C124.477 19.7876 124.452 27.9257 124.527 36.0342C124.536 37.0181 124.797 37.6305 125.29 38.1588C125.685 38.5825 126.389 39.0412 127.152 39.2258C128.576 39.5703 130.486 39.0037 130.768 37.2509C130.992 35.8609 130.818 13.5965 130.812 11.6936C133.689 11.672 135.609 11.9199 138.529 11.4461C139.742 11.2493 140.556 10.8898 140.926 9.90428C141.623 8.04682 139.931 5.28349 137.859 5.29304L120.163 5.26289C113.539 5.14039 106.8 5.10059 100.151 5.04874L98.928 5.00964C97.1254 5.01005 95.2943 5.06622 93.511 5.17245C92.6826 5.22189 92.1481 5.25294 91.4421 5.90546C91.0207 6.29488 90.5893 6.89112 90.345 7.61087C90.0826 8.38409 90.1516 9.26292 90.5486 9.8876C91.5439 11.4538 95.6301 11.5417 97.3551 11.5417V11.5419Z" fill="#F9603E"/>
<path fill-rule="evenodd" clip-rule="evenodd" d="M112.497 13.7498C111.182 14.0074 110.344 14.6298 109.851 15.6238C109.558 16.2154 109.599 19.0353 109.581 19.8627C109.521 22.6766 109.359 27.3439 108.342 29.8859C107.646 31.6233 106.826 32.5457 104.927 33.2874C102.288 34.3177 99.4284 33.593 98.1668 31.9432C97.4112 30.9551 97.175 30.1911 96.9008 28.709C96.4576 26.313 96.1829 22.8465 96.1741 20.3866C96.1708 19.4374 96.3096 16.6779 96.0177 15.9974C95.6397 15.1158 94.6401 14.2796 93.4953 14.0115C92.2418 13.7178 91.0806 14.4049 90.4951 15.4483C89.8941 16.519 89.852 17.875 89.8111 19.2503C89.7685 20.6824 89.8054 22.2671 89.8871 23.6968C90.0494 26.5388 90.3247 28.9836 91.0949 31.4959C91.8173 33.8522 92.9704 36.0073 94.3892 37.2512C95.2045 37.9659 95.9872 38.5062 97.1698 38.9739C98.2418 39.3979 99.5522 39.7174 100.801 39.8827C105.571 40.5141 111.039 38.5898 113.141 34.2973C115.172 30.1483 115.723 23.6239 116.011 19.0771C116.058 18.3389 116.058 17.6346 116.066 16.8904C116.076 15.9941 116.097 15.6395 115.621 15.0533C115.281 14.635 114.984 14.2774 114.393 14.0055C113.878 13.7681 113.133 13.6254 112.497 13.7498Z" fill="#F9603E"/>
<path fill-rule="evenodd" clip-rule="evenodd" d="M75.0267 25.6166L75.4208 26.174C75.4847 26.0145 75.4871 25.7633 75.4689 25.573C75.4062 25.7054 75.4203 25.9203 75.4011 26.1082C75.3957 26.1019 75.3869 26.0831 75.385 26.0888L75.0267 25.6165V25.6166Z" fill="#E3CC8B"/>
<path d="M22.2414 40.1956C32.0175 40.1956 39.9426 31.4215 39.9426 20.5978C39.9426 9.77425 32.0175 1 22.2414 1C12.4652 1 4.5401 9.77425 4.5401 20.5978C4.5401 31.4215 12.4652 40.1956 22.2414 40.1956Z" fill="white"/>
<path d="M9.64904 14.389C9.36211 14.8618 9.04244 15.5124 8.81708 16.0241H8.81208L8.68521 16.3339C8.4946 16.7992 8.33143 17.2724 8.19679 17.7527L8.01921 18.3861H8.67709H9.45425H9.46685H9.47954H9.49214H9.50483H9.51743H9.53012H9.54272H9.5554H9.56801H9.58069H9.59329H9.60598H9.61858H9.63127H9.64387H9.65655H9.66916H9.68184H9.69444H9.70713H9.71973H9.73242H9.74502H9.75771H9.77031H9.78291H9.7956H9.80828H9.82088H9.83349H9.84617H9.85877H9.87146H9.88406H9.89675H9.90935H9.92204H9.93464H9.94732H9.95993H9.97261H9.98521H9.9979H10.0105H10.0232H10.0358H10.0485H10.0611H10.0738H10.0864H10.0991H10.1117H10.1243H10.1369H10.1496H10.1622H10.1749H10.1875H10.2002H10.2128H10.2255H10.2381H10.2508H10.2634H10.2761H10.2887H10.3014H10.314H10.3266H10.3392H10.3519H10.3645H10.3772H10.3898H10.4024H10.4151H10.4277H10.4404H10.453H10.4657H10.4783H10.491H10.5036H10.5163H10.5289H10.5415H10.5542H10.5668H10.5794H10.5921H10.6047H10.6174H10.63H10.6427H10.6553H10.668H10.6806H10.6933H10.7059H10.7186H10.7312H10.7439H10.7565H10.7691H10.7817H10.7944H10.807H10.8197H10.8323H10.845H10.8576H10.8703H10.8829H10.8956H10.9082H10.9209H10.9335H10.9462H10.9588H10.9714H10.984H10.9966H11.0093H11.022H11.0346H11.0473H11.0599H11.0725H11.0852H11.0978H11.1105H11.1231H11.1358H11.1484H11.1611H11.1737H11.1863H11.199H11.2116H11.2242H11.2369H11.2495H11.2622H11.2748H11.2875H11.3001H11.3128H11.3254H11.3381H11.3507H11.3634H11.376H11.3887H11.4013H11.4139H11.4265H11.4392H11.4518H11.4645H11.4771H11.4898H11.5024H11.5151H11.5277H11.5404H11.553H11.5657H11.5783H11.5909H11.6036H11.6162H11.6289H11.6414H11.6541H11.6668H11.6795H11.692H11.7047H11.7174H11.7301H11.7426H11.7553H11.768H11.7807H11.7932H11.8059H11.8185H11.8311H11.8438H11.8564H11.8691H11.8817H11.8943H11.907H11.9197H11.9323H11.9449H11.9576H11.9703H11.9829H11.9955H12.0082H12.0208H12.0335H12.0461H12.0587H12.0713H12.084H12.0966H12.1093H12.1219H12.1346H12.1473H12.1599H12.1725H12.1852H12.1979H12.2105H12.2231H12.2358H12.2484H12.261H12.2736H12.2863H12.299H12.3115H12.3242H12.3369H12.3496H12.3621H12.3748H12.3875H12.4002H12.4127H12.4254H12.4381H12.4507H12.4633H12.4759H12.4886H12.5012H12.5138H12.5265H12.5392H12.5518H12.5644H12.5771H12.5898H12.6024H12.615H12.6277H12.6404H12.653H12.6657H12.6783H12.6909H12.7035H12.7162H12.7288H12.7414H12.7541H12.7668H12.7794H12.792H12.8047H12.8174H12.83H12.8426H12.8553H12.868H12.8806H12.8932H12.9058H12.9185H12.9312H12.9437H12.9564H12.9691H12.9818H12.9943H13.007H13.0197H13.0322H13.0449H13.0576H13.0703H13.0828H13.0955H13.1081H13.1208H13.1334H13.146H13.1587H13.1714H13.184H13.1966H13.2093H13.222H13.2346H13.2472H13.2599H13.2725H13.2852H13.2978H13.3105H13.3231H13.3357H13.3483H13.361H13.3736H13.3863H13.3989H13.4116H13.4242H13.4369H13.4496H13.4622H13.4748H13.4875H13.5002H13.5127H13.5254H13.538H13.5507H13.5632H13.5759H13.5886H13.6013H13.6138H13.6265H13.6392H13.6519H13.6644H13.6771H13.6898H13.7025H13.715H13.7277H13.7403H13.753H13.7655H13.7782H13.7909H13.8035H13.8161H13.8288H13.8415H13.8541H13.8667H13.8794H13.8921H13.9047H13.9173H13.93H13.9426H13.9552H13.9679H13.9805H13.9932H14.0058H14.0185H14.0311H14.0437H14.0564H14.0691H14.0817H14.0943H14.107H14.1197H14.1323H14.1449H14.1576H14.1702H14.1828H14.1954H14.2081H14.2208H14.2335H14.246H14.2587H14.2714H14.2841H14.2966H14.3093H14.322H14.3345H14.3472H14.3599H14.3725H14.3851H14.3977H14.4104H14.4231H14.4356H14.4483H14.461H14.4737H14.4863H14.4989H14.5116H14.5243H14.5369H14.5495H14.5622H14.5748H14.5874H14.6H14.6127H14.6253H14.638H14.6506H14.6633H14.6759H14.6886H14.7012H14.7139H14.7265H14.7392H14.7519H14.7645H14.7771H14.7898H14.8024H14.815H14.8276H14.8403H14.853H14.8656H14.8782H14.8909H14.9036H14.9161H14.9288H14.9415H14.9542H14.9667H14.9794H14.9921H15.0047H15.0173H15.0299H15.0426H15.0553H15.0678H15.0805H15.0932H15.1059H15.1184H15.1311H15.1438H15.1564H15.169H15.1817H15.1944H15.207H15.2196H15.2322H15.2449H15.2575H15.2702H15.2828H15.2955H15.3081H15.3208H15.3334H15.3461H15.3587H15.3714H15.384H15.3967H15.4093H15.4219H15.4346H15.4472H15.4598H15.4725H15.4851H15.4977H15.5104H15.5231H15.5358H15.5483H15.561H15.5737H15.5864H15.5989H15.6116H15.6243H15.6369H15.6495H15.6621H15.6748H15.6875H15.7H15.7127H15.7254H15.7379H15.7506H15.7633H15.776H15.7886H15.8012H15.8139H15.8266H15.8392H15.8518H15.8644H15.8771H15.8897H15.9023H15.915H15.9277C22.3701 18.3859 28.8129 18.3859 35.2548 18.3865H35.9126L35.7352 17.7532C35.4597 16.7705 35.0688 15.8326 34.5837 14.9414C34.2762 14.3766 33.9676 13.9045 33.5729 13.49L33.5728 13.4899C33.1761 13.0736 32.7069 12.7308 32.0934 12.4052L32.0932 12.4051C31.0318 11.8425 29.7438 11.515 28.3644 11.515H23.7979L24.874 1.27114C35.0762 2.68671 42.9314 11.443 42.9314 22.035C42.9311 33.6135 33.5446 43 21.9658 43C10.3869 43 1 33.6135 1 22.0346C1 11.4427 8.85548 2.68633 19.0576 1.27075L20.1335 11.5146H15.5671C14.2378 11.5146 12.9936 11.8185 11.9551 12.3445H11.9526L11.8432 12.4025C10.9101 12.8963 10.1418 13.5774 9.64913 14.389H9.64904ZM22.0724 37.526C22.9147 37.5389 23.7206 37.1996 24.6168 36.5826C28.1581 34.1449 31.0627 30.7665 32.622 26.7077C33.3498 24.8136 33.7603 22.8166 33.8328 20.7983L33.8514 20.2816H33.3344H10.8969H10.38L10.3984 20.7981C10.5039 23.7497 11.3328 26.6173 12.7908 29.2203H12.7909C14.3905 32.0753 16.7161 34.5742 19.5536 36.5401C20.4355 37.1511 21.2332 37.5129 22.0724 37.526Z" fill="#F9603E" stroke="#F9603E"/>
<path d="M24.2736 25.2895C24.2736 22.9684 23.1428 20.9694 22.2815 20.3206C22.2815 20.3206 22.2153 20.2841 22.2221 20.3777C22.1513 24.8624 19.8599 26.0778 18.601 27.7135C15.6951 31.4922 18.3955 35.634 21.1506 36.3994C22.6858 36.8289 20.7943 35.6409 20.5498 33.1348C20.2505 30.1101 24.2736 27.7981 24.2736 25.2895Z" fill="#1B2143"/>
<path d="M25.5943 26.8178C25.576 26.8063 25.5509 26.7972 25.5349 26.8269C25.4869 27.3911 24.9112 28.5974 24.1801 29.7077C21.7013 33.468 23.1133 35.282 23.9083 36.2575C24.3698 36.8218 23.9083 36.2575 25.0597 35.6795C26.4829 34.8159 27.406 33.3219 27.5431 31.6632C27.7691 28.9903 26.1655 27.3066 25.5943 26.8178Z" fill="#2CA6E0"/>
</svg>
