<svg width="303" height="227" viewBox="0 0 303 227" fill="none" xmlns="http://www.w3.org/2000/svg">
<path d="M66.2686 176.267V192.047H105.16C109.517 192.047 113.049 188.515 113.049 184.157C113.049 179.8 109.517 176.268 105.16 176.268H66.2686V176.267Z" fill="url(#paint0_linear)"/>
<path d="M108.014 191.485C112.088 189.94 114.139 185.385 112.595 181.31L102.3 154.147C100.755 150.072 96.1995 148.022 92.1249 149.565C88.0502 151.11 85.9997 155.665 87.5433 159.74L97.839 186.903C99.3838 190.978 103.939 193.029 108.014 191.485Z" fill="url(#paint1_linear)"/>
<path d="M57.6177 184.545C57.706 181.024 59.9823 177.91 63.3331 176.825C64.4656 176.458 65.6598 176.267 66.8781 176.267V192.047H49.3814C48.4507 192.047 47.6953 191.293 47.6953 190.361C47.6953 187.149 50.2982 184.546 53.5103 184.546H56.0729H57.6177V184.545Z" fill="#FF265D"/>
<rect x="66.2695" y="176.267" width="3.57399" height="15.7803" fill="#FF679F"/>
<path d="M50.6074 176.267V192.047H89.4988C93.856 192.047 97.3883 188.515 97.3883 184.157C97.3883 179.8 93.856 176.268 89.4988 176.268H50.6074V176.267Z" fill="url(#paint2_linear)"/>
<path d="M92.3515 191.485C96.4262 189.94 98.4767 185.385 96.9331 181.31L86.6374 154.147C85.0925 150.072 80.5374 148.022 76.4628 149.565C72.3881 151.11 70.3375 155.665 71.8811 159.74L82.1769 186.903C83.723 190.978 88.2781 193.029 92.3515 191.485Z" fill="url(#paint3_linear)"/>
<path d="M41.9564 184.545C42.0447 181.024 44.321 177.91 47.6717 176.825C48.8042 176.458 49.9985 176.267 51.2167 176.267V192.047H31.6998C30.7691 192.047 30.0137 191.293 30.0137 190.361C30.0137 187.149 32.6166 184.546 35.8287 184.546H40.4115H41.9564V184.545Z" fill="#FF3C82"/>
<rect x="50.6084" y="176.267" width="4.74934" height="15.7803" fill="#FF7FAD"/>
<path d="M54.0115 103.047L57.6259 60.2559C58.1341 54.2454 63.4169 49.7849 69.4286 50.2918C75.4391 50.8001 79.8996 56.0841 79.3927 62.0946L76.3698 97.8811C75.3546 109.902 64.7865 118.824 52.7656 117.809L49.0264 117.494C52.4806 116.344 53.7051 106.291 54.0115 103.047Z" fill="url(#paint4_linear)"/>
<path d="M64.9638 176.248H110.77C111.958 176.248 112.921 175.284 112.921 174.096L109.927 160.039C108.673 154.147 108.395 154.847 107.425 148.902C105.483 136.997 95.1523 127.912 82.6988 127.912C82.5261 127.912 82.3533 127.913 82.1818 127.917C66.7218 128.23 55.4664 142.736 58.6873 157.861L62.8124 174.098C62.8124 175.286 63.7759 176.248 64.9638 176.248Z" fill="url(#paint5_linear)"/>
<path d="M66.528 136.316H104.945C106.278 136.316 107.36 135.235 107.36 133.901V120.652C107.36 109.002 97.9158 99.5571 86.2657 99.5571H85.2089C73.5587 99.5571 64.1143 109.002 64.1143 120.652V133.902C64.1143 135.235 65.195 136.316 66.528 136.316Z" fill="white"/>
<path d="M85.7366 129.367C95.3324 129.367 103.464 123.114 106.29 114.462C106.981 116.577 107.36 118.835 107.36 121.18V134.238C107.36 135.385 106.429 136.317 105.28 136.317H66.1919C65.0443 136.317 64.1123 135.387 64.1123 134.238V121.18C64.1123 118.835 64.4906 116.577 65.1817 114.462C68.0091 123.115 76.1408 129.367 85.7366 129.367Z" fill="url(#paint6_linear)"/>
<circle cx="88.0592" cy="114.252" r="1.19301" fill="#FFE6F2"/>
<circle cx="88.0582" cy="118.988" r="1.19301" fill="#FFE6F2"/>
<path d="M87.6644 109.907C92.7996 109.907 96.9626 105.744 96.9626 100.609V94.3324C96.9626 89.1971 92.7996 85.0342 87.6644 85.0342C82.5291 85.0342 78.3662 89.1971 78.3662 94.3324V100.609C78.3662 105.744 82.5291 109.907 87.6644 109.907Z" fill="#FF958E"/>
<circle cx="88.8211" cy="74.7032" r="27.0887" fill="url(#paint7_linear)"/>
<ellipse opacity="0.29" cx="74.5702" cy="56.4973" rx="3.54996" ry="1.93451" transform="rotate(-37.5036 74.5702 56.4973)" fill="white"/>
<path d="M105.567 85.83C105.315 88.815 107.531 91.4381 110.515 91.6903C113.5 91.9426 116.123 89.7268 116.375 86.743C116.627 83.7579 114.413 81.1348 111.428 80.8826C108.444 80.6304 105.82 82.8449 105.567 85.83Z" fill="url(#paint8_linear)"/>
<path d="M62.3575 82.1803C62.1052 85.1653 64.321 87.7885 67.3048 88.0407C70.2898 88.2929 72.913 86.0771 73.1652 83.0933C73.4174 80.1083 71.2016 77.4852 68.2178 77.233C65.2341 76.9807 62.6097 79.1952 62.3575 82.1803Z" fill="url(#paint9_linear)"/>
<path d="M87.2295 106.674C99.2176 107.686 109.755 98.7891 110.768 86.801L111.139 82.4161C112.152 70.428 103.254 59.8902 91.2663 58.8775C79.2782 57.8648 68.7403 66.762 67.7276 78.7501L67.3569 83.135C66.3442 95.1218 75.2413 105.661 87.2295 106.674Z" fill="url(#paint10_linear)"/>
<circle cx="111.54" cy="92.0686" r="1.6798" fill="#FFE6F2"/>
<circle cx="66.3986" cy="88.255" r="1.6798" fill="#FFE6F2"/>
<path d="M66.6396 77.0993L70.172 77.3981C80.5157 78.2721 89.6083 70.5957 90.4822 60.2521L90.5995 58.8611L87.0671 58.5622C76.7235 57.6882 67.6309 65.3646 66.7569 75.7083L66.6396 77.0993Z" fill="url(#paint11_linear)"/>
<path d="M90.6025 86.4113C91.88 86.5198 93.0037 85.5701 93.1121 84.2926L93.266 82.4779C93.3744 81.2004 92.4248 80.0767 91.1473 79.9683C89.8698 79.8598 88.7462 80.8094 88.6377 82.0869L88.4838 83.9017C88.3767 85.1804 89.325 86.3041 90.6025 86.4113Z" fill="url(#paint12_linear)"/>
<path d="M85.1178 87.7557C84.6903 87.7191 84.322 88.0709 84.3447 88.4997C84.4923 91.423 86.7812 93.8594 89.7789 94.1129C92.7765 94.3664 95.4413 92.3474 96.0781 89.491C96.1714 89.0723 95.8675 88.6649 95.44 88.6284L85.1178 87.7557Z" fill="#CF1138"/>
<path d="M89.7793 94.1129C87.5068 93.9212 85.6441 92.4722 84.8105 90.5099C85.6858 90.2665 86.6442 90.1656 87.6405 90.2501C90.0921 90.4569 92.1389 91.7029 93.1604 93.384C92.1641 93.9363 91.0001 94.215 89.7793 94.1129Z" fill="#FF2C60"/>
<path d="M98.6497 83.5688C99.5463 83.6444 100.333 82.9798 100.409 82.0832L100.519 80.7855C100.594 79.8889 99.9297 79.1019 99.033 79.0263C98.1364 78.9506 97.3495 79.6152 97.2738 80.5118L97.1641 81.8095C97.0884 82.7062 97.753 83.4931 98.6497 83.5688Z" fill="url(#paint13_linear)"/>
<path d="M83.0735 82.2535C83.9701 82.3291 84.7571 81.6645 84.8327 80.7679L84.9424 79.4702C85.0181 78.5735 84.3535 77.7866 83.4569 77.7109C82.5602 77.6353 81.7733 78.2999 81.6976 79.1965L81.5879 80.4942C81.5122 81.3909 82.1781 82.1778 83.0735 82.2535Z" fill="url(#paint14_linear)"/>
<path d="M101.8 75.8117C102.032 75.8319 102.273 75.7764 102.483 75.6389C102.984 75.311 103.125 74.6401 102.798 74.1382C102.017 72.9439 100.638 72.1545 99.1075 72.0259C98.1957 71.9489 97.2928 72.1078 96.4957 72.4862C95.9547 72.7422 95.7239 73.3891 95.9812 73.9301C96.2385 74.4711 96.8842 74.7019 97.4252 74.4447C97.8767 74.2303 98.3962 74.1407 98.9259 74.1861C99.7961 74.2593 100.565 74.6855 100.983 75.3249C101.173 75.615 101.48 75.7852 101.8 75.8117Z" fill="#FF8011"/>
<path d="M80.0853 73.978C79.8533 73.9578 79.625 73.8645 79.4409 73.693C79.002 73.2857 78.9755 72.5996 79.3829 72.1608C80.3527 71.1153 81.8446 70.568 83.3743 70.6966C84.2861 70.7735 85.1499 71.0825 85.8725 71.5882C86.3631 71.9312 86.4817 72.6072 86.1386 73.0978C85.7944 73.5883 85.1184 73.7069 84.6291 73.3639C84.2192 73.0776 83.7236 72.9023 83.1927 72.8569C82.3225 72.7838 81.4927 73.0738 80.9731 73.6337C80.736 73.8897 80.4069 74.0045 80.0853 73.978Z" fill="#FF8011"/>
<path d="M108.807 88.8403C109.012 86.4202 106.821 84.2599 103.914 84.014C101.007 83.7681 98.4851 85.5311 98.2808 87.9512C98.0765 90.3712 100.267 92.5315 103.174 92.7774C106.081 93.0234 108.602 91.2603 108.807 88.8403Z" fill="url(#paint15_radial)"/>
<ellipse opacity="0.2" cx="101.96" cy="86.5598" rx="0.392226" ry="0.467896" transform="rotate(-85.1702 101.96 86.5598)" fill="white"/>
<path d="M83.0358 86.6635C83.2401 84.2434 81.0495 82.0831 78.1427 81.8372C75.2358 81.5913 72.7136 83.3543 72.5093 85.7744C72.305 88.1945 74.4955 90.3548 77.4024 90.6007C80.3093 90.8466 82.8315 89.0836 83.0358 86.6635Z" fill="url(#paint16_radial)"/>
<ellipse opacity="0.2" cx="76.1887" cy="84.3844" rx="0.392226" ry="0.467896" transform="rotate(-85.1702 76.1887 84.3844)" fill="white"/>
<path d="M79.7133 118.111C79.7133 112.216 76.8746 106.985 72.4909 103.709C67.3179 107.553 63.9658 113.711 63.9658 120.651V134.436C63.9658 135.474 64.807 136.316 65.8461 136.316H79.7133V118.111Z" fill="url(#paint17_linear)"/>
<path d="M201.771 113.07L181.52 131.021L168.871 116.751L189.122 98.8005C193.062 95.3072 199.089 95.6704 202.581 99.6102C206.074 103.552 205.711 109.578 201.771 113.07Z" fill="url(#paint18_linear)"/>
<rect x="170.378" y="115.405" width="19.0672" height="5.70252" transform="rotate(48.4459 170.378 115.405)" fill="#A2E2FF"/>
<path d="M140.076 100.888C140.211 99.5142 141.433 98.5104 142.806 98.6453L149.586 99.2179C150.959 99.3528 151.963 100.575 151.828 101.948C151.693 103.322 150.471 104.325 149.098 104.19L142.318 103.618C140.945 103.483 139.941 102.26 140.076 100.888Z" fill="url(#paint19_linear)"/>
<path d="M141.037 92.7421C141.852 91.6286 143.416 91.3877 144.529 92.2024L150.429 96.5229C151.542 97.3376 151.783 98.9014 150.969 100.015C150.154 101.129 148.59 101.369 147.477 100.555L141.577 96.2342C140.464 95.4195 140.223 93.8557 141.037 92.7421Z" fill="url(#paint20_linear)"/>
<path d="M145.346 87.6384C146.452 86.8123 148.017 87.0393 148.843 88.1453L153.217 94.0045C154.043 95.1105 153.816 96.6755 152.71 97.5003C151.604 98.3263 150.039 98.0993 149.215 96.9933L144.84 91.1342C144.014 90.0294 144.241 88.4644 145.346 87.6384Z" fill="url(#paint21_linear)"/>
<path d="M151.558 84.7063C152.834 84.183 154.293 84.7933 154.817 86.0696L157.591 92.8354C158.115 94.1117 157.504 95.5708 156.228 96.0942C154.952 96.6175 153.493 96.0071 152.969 94.7309L150.195 87.965C149.67 86.6888 150.282 85.2297 151.558 84.7063Z" fill="url(#paint22_linear)"/>
<path d="M160.693 86.0695C162.056 86.2852 162.985 87.5652 162.77 88.9285L161.626 96.1509C161.41 97.5141 160.13 98.4436 158.768 98.2279C157.405 98.0123 156.476 96.7322 156.691 95.3702L157.835 88.1478C158.051 86.7833 159.329 85.8539 160.693 86.0695Z" fill="url(#paint23_linear)"/>
<path d="M166.472 131.834L147.645 106.622C144.495 102.403 145.361 96.4283 149.58 93.278C153.798 90.1278 159.773 90.9942 162.924 95.2126L181.751 120.425C184.901 124.643 184.035 130.618 179.816 133.769C175.596 136.919 169.623 136.052 166.472 131.834Z" fill="url(#paint24_linear)"/>
<path d="M248.488 188.14V191.611H202.866C197.132 191.611 192.483 186.962 192.483 181.228C192.483 175.494 197.132 170.845 202.866 170.845H231.192C240.745 170.844 248.488 178.587 248.488 188.14Z" fill="#000002"/>
<path d="M197.439 191.024C191.837 189.798 188.29 184.263 189.514 178.662L195.931 149.332C197.157 143.73 202.692 140.182 208.293 141.407C213.895 142.633 217.443 148.168 216.218 153.77L209.802 183.099C208.576 188.701 203.041 192.25 197.439 191.024Z" fill="#000002"/>
<path d="M249.159 181.727C249.043 177.089 246.042 172.985 241.627 171.555C240.135 171.072 238.561 170.819 236.956 170.819V191.611H258.192C259.419 191.611 260.413 190.617 260.413 189.39C260.413 185.158 256.983 181.727 252.75 181.727H251.191H249.159Z" fill="#1B123F"/>
<path d="M240.961 170.746V191.611H232.953V170.746C232.953 169.993 233.564 169.381 234.318 169.381H239.598C240.351 169.381 240.961 169.993 240.961 170.746Z" fill="#402291"/>
<path d="M268.871 188.14V191.611H223.249C217.515 191.611 212.866 186.962 212.866 181.228C212.866 175.494 217.515 170.845 223.249 170.845H251.575C261.128 170.844 268.871 178.587 268.871 188.14Z" fill="#251364"/>
<path d="M218.067 191.076C212.453 189.906 208.851 184.406 210.021 178.793L216.148 149.401C217.318 143.787 222.818 140.185 228.431 141.355C234.044 142.526 237.647 148.025 236.477 153.639L230.351 183.03C229.18 188.645 223.682 192.246 218.067 191.076Z" fill="#251364"/>
<path d="M269.543 181.727C269.427 177.089 266.427 172.985 262.012 171.555C260.52 171.072 258.946 170.819 257.341 170.819V191.611H278.577C279.804 191.611 280.797 190.617 280.797 189.39C280.797 185.158 277.367 181.727 273.135 181.727H271.576H269.543Z" fill="#322358"/>
<path d="M261.345 170.746V191.611H253.337V170.746C253.337 169.993 253.947 169.381 254.701 169.381H259.982C260.735 169.381 261.345 169.993 261.345 170.746Z" fill="#5832AD"/>
<path d="M222.289 162.734H208.406C198.344 162.734 190.188 154.577 190.188 144.516V138.905H240.506V144.516C240.507 154.577 232.35 162.734 222.289 162.734Z" fill="#251364"/>
<path d="M240.725 153.592H190.918C189.299 153.592 187.986 152.279 187.986 150.66V113.124C187.986 100.225 198.443 89.7683 211.342 89.7683H220.3C233.198 89.7683 243.656 100.225 243.656 113.124V150.661C243.657 152.28 242.344 153.592 240.725 153.592Z" fill="url(#paint25_linear)"/>
<path d="M215.481 129.222L212.834 131.543C212.499 131.836 212 131.839 211.662 131.549L209.068 129.323C208.874 129.157 208.76 128.914 208.757 128.658L208.386 105.337L215.415 105.224L215.786 128.535C215.79 128.798 215.677 129.049 215.481 129.222Z" fill="#FF2D2D"/>
<path d="M208.447 109.269C208.51 109.337 208.571 109.408 208.638 109.473C210.452 111.231 213.348 111.185 215.106 109.37C215.241 109.231 215.361 109.085 215.474 108.933L215.421 105.603L208.392 105.715L208.447 109.269Z" fill="#FF1F0C"/>
<path d="M214.843 101.389C216.58 103.072 216.624 105.844 214.942 107.582C213.26 109.318 210.488 109.362 208.75 107.68C207.013 105.998 206.969 103.226 208.651 101.488C210.335 99.7513 213.107 99.7071 214.843 101.389Z" fill="#FF2D2D"/>
<path d="M207.419 105.889L212.395 100.366L217.087 106.672C221.27 105.16 224.404 101.323 224.786 96.6011C225.308 90.1543 220.504 84.5045 214.056 83.9824C207.61 83.4603 201.96 88.2639 201.438 94.712C201.058 99.4336 203.535 103.725 207.419 105.889Z" fill="#89DAFB"/>
<path d="M212.821 100.71C207.176 100.71 202.6 96.1332 202.6 90.4885V83.6432C202.6 77.9984 207.176 73.4219 212.821 73.4219C218.466 73.4219 223.042 77.9984 223.042 83.6432V90.4885C223.042 96.1332 218.466 100.71 212.821 100.71Z" fill="#FF958E"/>
<path d="M133.173 56.0892H120.287V45.1238C120.287 39.068 125.197 34.1584 131.252 34.1584H133.173C139.229 34.1584 144.139 39.068 144.139 45.1238C144.139 51.1797 139.229 56.0892 133.173 56.0892Z" fill="#FF4974"/>
<path d="M132.03 50.0801C131.89 50.0813 131.756 50.0258 131.656 49.9275L127.572 45.8377C126.505 44.7607 126.505 43.0241 127.572 41.9471C128.647 40.8752 130.386 40.8752 131.462 41.9471L132.03 42.5146L132.597 41.9471C133.673 40.8752 135.412 40.8752 136.488 41.9471C137.555 43.0241 137.555 44.7607 136.488 45.8377L132.403 49.9275C132.303 50.0258 132.17 50.0813 132.03 50.0801Z" fill="white"/>
<path d="M160.405 194.444C158.104 194.444 156.239 192.579 156.239 190.279V165.116C156.239 162.816 158.104 160.951 160.405 160.951C162.705 160.951 164.57 162.816 164.57 165.116V190.279C164.57 192.579 162.706 194.444 160.405 194.444Z" fill="#FFC200"/>
<circle cx="158.47" cy="122.923" r="52.3815" fill="#FF9D00"/>
<path d="M141.932 194.444C139.632 194.444 137.767 192.579 137.767 190.279V165.116C137.767 162.816 139.632 160.951 141.932 160.951C144.232 160.951 146.098 162.816 146.098 165.116V190.279C146.098 192.579 144.232 194.444 141.932 194.444Z" fill="#FFC200"/>
<path d="M87.2714 165.522C85.0771 165.248 83.6344 163.101 84.2006 160.963C84.7946 158.723 85.772 155.714 87.3408 152.326C89.2476 148.208 91.6513 144.339 94.485 140.827C98.0262 136.436 102.25 132.594 107.037 129.41C108.713 128.295 110.975 128.751 112.09 130.427C113.205 132.103 112.75 134.365 111.074 135.48C106.957 138.218 103.324 141.508 100.273 145.261C97.8231 148.275 95.7373 151.597 94.0739 155.136C92.6349 158.195 91.761 160.899 91.2465 162.836C90.7786 164.599 89.0824 165.748 87.2714 165.522Z" fill="#FFD300"/>
<circle cx="147.284" cy="122.894" r="52.3815" fill="#FFD000"/>
<path opacity="0.8" d="M101.304 148.003C106.072 156.716 113.244 163.925 121.932 168.739L193.263 97.7827C188.494 89.0697 181.322 81.8599 172.635 77.0463L101.304 148.003Z" fill="#FFEB64"/>
<circle cx="147.284" cy="122.894" r="39.2786" fill="#FFC200"/>
<path d="M163.491 123.463C164.761 123.467 165.753 124.594 165.579 125.851C164.394 134.423 157.026 141.014 148.132 140.991C139.237 140.967 131.905 134.339 130.764 125.761C130.596 124.502 131.595 123.38 132.865 123.383L163.491 123.463Z" fill="#E70000"/>
<path d="M148.131 140.991C154.875 141.009 160.735 137.22 163.693 131.652C161.176 130.712 158.381 130.168 155.423 130.16C148.147 130.142 141.8 133.287 138.357 137.974C141.151 139.861 144.507 140.981 148.131 140.991Z" fill="#FF0040"/>
<path d="M134.819 118.471C132.984 118.466 131.501 116.976 131.506 115.141L131.511 113.333C131.516 111.499 133.007 110.015 134.842 110.021C136.676 110.026 138.159 111.516 138.154 113.351L138.149 115.158C138.144 116.993 136.652 118.476 134.819 118.471Z" fill="url(#paint26_linear)"/>
<path d="M161.035 118.541C159.2 118.536 157.717 117.045 157.722 115.21L157.727 113.403C157.732 111.568 159.222 110.085 161.057 110.09C162.892 110.095 164.375 111.586 164.37 113.42L164.365 115.228C164.36 117.063 162.868 118.546 161.035 118.541Z" fill="url(#paint27_linear)"/>
<path d="M203.768 131.124C204.714 129.099 207.245 128.389 209.099 129.637C210.927 130.868 213.253 132.656 215.624 135.07C218.599 138.1 221.065 141.516 222.952 145.223C225.298 149.831 226.745 154.89 227.254 160.257C227.443 162.256 226.023 164.083 224.026 164.3C221.999 164.519 220.191 163.038 220.003 161.015C219.594 156.6 218.427 152.454 216.537 148.69C215.018 145.667 213.028 142.871 210.62 140.379C208.571 138.261 206.558 136.715 205.033 135.688C203.546 134.685 203.01 132.75 203.768 131.124Z" fill="#FFD300"/>
<path opacity="0.8" d="M111.823 125.487C111.88 103.794 129.513 86.2549 151.205 86.3117C158.761 86.3318 165.812 88.4858 171.792 92.1985C165.1 86.8489 156.621 83.6381 147.388 83.6142C125.696 83.5574 108.063 101.096 108.006 122.789C107.968 136.926 115.406 149.337 126.595 156.284C117.564 149.066 111.791 137.947 111.823 125.487Z" fill="#FFAF00"/>
<path d="M178.219 154.042C176.881 153.708 176.066 152.351 176.4 151.013L177.96 144.391C178.294 143.053 179.651 142.238 180.989 142.572C182.327 142.906 183.142 144.263 182.808 145.601L181.248 152.224C180.914 153.563 179.557 154.376 178.219 154.042Z" fill="url(#paint28_linear)"/>
<path d="M170.303 151.897C169.322 150.927 169.312 149.346 170.281 148.363L175.421 143.161C176.39 142.18 177.972 142.17 178.953 143.14C179.934 144.11 179.944 145.691 178.974 146.672L173.835 151.874C172.867 152.857 171.285 152.867 170.303 151.897Z" fill="url(#paint29_linear)"/>
<path d="M165.886 146.885C165.232 145.671 165.686 144.155 166.9 143.5L173.337 140.032C174.551 139.378 176.067 139.832 176.722 141.046C177.376 142.261 176.922 143.777 175.708 144.43L169.271 147.898C168.056 148.554 166.541 148.1 165.886 146.885Z" fill="url(#paint30_linear)"/>
<path d="M163.897 140.311C163.566 138.972 164.383 137.617 165.724 137.287L172.823 135.535C174.162 135.205 175.516 136.023 175.847 137.363C176.177 138.702 175.36 140.056 174.02 140.387L166.921 142.138C165.581 142.469 164.227 141.65 163.897 140.311Z" fill="url(#paint31_linear)"/>
<path d="M166.585 131.476C166.999 130.159 168.401 129.428 169.718 129.84L176.694 132.031C178.011 132.444 178.742 133.847 178.329 135.162C177.915 136.479 176.513 137.21 175.197 136.796L168.221 134.606C166.904 134.193 166.172 132.791 166.585 131.476Z" fill="url(#paint32_linear)"/>
<path d="M212.702 132.47L185.002 147.396C180.366 149.894 174.583 148.162 172.086 143.526C169.588 138.89 171.321 133.108 175.957 130.611L203.657 115.684C208.293 113.186 214.075 114.919 216.572 119.555C219.069 124.19 217.336 129.973 212.702 132.47Z" fill="url(#paint33_linear)"/>
<path d="M235.582 120.141L211.76 132.978L202.715 116.191L226.537 103.354C231.173 100.856 236.955 102.589 239.452 107.225C241.949 111.861 240.217 117.643 235.582 120.141Z" fill="url(#paint34_linear)"/>
<rect x="204.501" y="115.233" width="19.0678" height="5.7027" transform="rotate(61.6795 204.501 115.233)" fill="#A2E2FF"/>
<rect x="185.365" y="125.546" width="19.0678" height="5.4366" transform="rotate(61.6795 185.365 125.546)" fill="#32003D"/>
<circle cx="187.599" cy="135.169" r="4.13518" fill="#D6C0E7"/>
<path d="M212.796 91.9514L208.225 92.6399C194.818 94.6602 182.311 85.4289 180.291 72.022L179.528 66.9574C177.431 53.0372 187.015 40.0516 200.936 37.9544L203.482 37.571C217.494 35.4599 230.565 45.1074 232.676 59.1208L233.414 64.019C235.436 77.4246 226.204 89.9311 212.796 91.9514Z" fill="url(#paint35_linear)"/>
<path d="M228.662 73.7725C231.002 73.4193 232.615 71.2364 232.262 68.8945L232.194 68.4443C231.841 66.1036 229.658 64.4907 227.316 64.8438C226.634 64.9459 226.165 65.5828 226.267 66.2651L227.24 72.7232C227.344 73.4055 227.979 73.8759 228.662 73.7725Z" fill="url(#paint36_linear)"/>
<path d="M183.248 71.4457C180.907 71.7988 179.294 73.9818 179.647 76.3237L179.715 76.7739C180.068 79.1145 182.251 80.7275 184.593 80.3744C185.275 80.2722 185.745 79.6354 185.642 78.9531L184.669 72.495C184.565 71.8127 183.93 71.3436 183.248 71.4457Z" fill="url(#paint37_linear)"/>
<path d="M210.125 98.5356C222.276 96.7045 230.642 85.3708 228.812 73.2188L227.616 65.2801C225.785 53.1293 214.452 44.7631 202.3 46.5929C190.149 48.4241 181.783 59.7577 183.612 71.9097L184.808 79.8484C186.639 92.0005 197.974 100.367 210.125 98.5356Z" fill="url(#paint38_linear)"/>
<path d="M212.38 44.8615L190.248 48.1858C187.749 48.5603 186.026 50.8921 186.403 53.3916C186.779 55.8899 189.11 57.61 191.608 57.233L218.399 53.1962C219.197 53.0763 219.943 53.6262 220.064 54.4245L220.679 58.5079C221.3 62.6242 225.14 65.4592 229.256 64.8387C230.054 64.7189 230.604 63.9736 230.484 63.1741L229.647 57.6163C228.398 49.3271 220.669 43.618 212.38 44.8615Z" fill="url(#paint39_linear)"/>
<ellipse opacity="0.29" cx="219.34" cy="44.4642" rx="1.76679" ry="3.24227" transform="rotate(-56.2337 219.34 44.4642)" fill="white"/>
<path d="M205.424 77.9315C207.052 77.6869 208.172 76.1685 207.927 74.5404L207.628 72.5554C207.384 70.9273 205.865 69.8074 204.237 70.0521C202.609 70.2968 201.489 71.8151 201.734 73.4432L202.033 75.4282C202.277 77.0563 203.796 78.1774 205.424 77.9315Z" fill="url(#paint40_linear)"/>
<path d="M198.202 81.2105C197.938 81.2509 197.766 81.5056 197.822 81.7667C198.702 85.9018 202.666 88.6864 206.902 88.0483C211.138 87.4101 214.104 83.5814 213.728 79.3705C213.704 79.1045 213.465 78.9115 213.201 78.9506L198.202 81.2105Z" fill="#CF1138"/>
<path d="M211.084 83.8726L206.43 84.5738C204.71 84.8336 203.385 86.077 202.931 87.6458C204.16 88.0973 205.516 88.2575 206.903 88.0481C209.488 87.6585 211.6 86.0795 212.767 83.9521C212.231 83.8196 211.663 83.7856 211.084 83.8726Z" fill="#FF2C60"/>
<path d="M201.216 83.2876L213.65 81.4148C213.761 80.7527 213.792 80.0667 213.729 79.3705C213.705 79.1045 213.466 78.9115 213.202 78.9506L199.521 81.0113L199.696 82.1639C199.805 82.8954 200.486 83.3973 201.216 83.2876Z" fill="white"/>
<path d="M196.724 74.5781C195.77 74.7219 194.879 74.0649 194.736 73.1102L194.528 71.7268C194.384 70.7721 195.041 69.8818 195.995 69.738C196.95 69.5942 197.84 70.2513 197.984 71.2059L198.192 72.5894C198.336 73.544 197.679 74.4344 196.724 74.5781Z" fill="url(#paint41_linear)"/>
<path d="M213.434 72.0611C212.48 72.2048 211.589 71.5478 211.446 70.5931L211.238 69.2097C211.094 68.255 211.751 67.3647 212.705 67.2209C213.66 67.0771 214.55 67.7342 214.694 68.6888L214.902 70.0723C215.046 71.0257 214.389 71.9173 213.434 72.0611Z" fill="url(#paint42_linear)"/>
<path d="M191.913 66.7871C191.665 66.825 191.404 66.7821 191.169 66.6497C190.609 66.3344 190.411 65.6244 190.728 65.0645C191.481 63.7315 192.903 62.7881 194.533 62.5422C195.504 62.3959 196.482 62.5031 197.364 62.8525C197.962 63.0896 198.254 63.7655 198.017 64.3633C197.78 64.961 197.104 65.2536 196.506 65.0165C196.007 64.8185 195.446 64.7593 194.88 64.845C193.953 64.985 193.158 65.4945 192.755 66.2095C192.57 66.5324 192.255 66.7354 191.913 66.7871Z" fill="#BF0C01"/>
<path d="M215.051 63.3014C215.299 63.2636 215.536 63.1463 215.722 62.9508C216.163 62.4842 216.143 61.7477 215.676 61.3051C214.564 60.2521 212.927 59.7703 211.296 60.0162C210.325 60.1625 209.421 60.5535 208.682 61.1462C208.182 61.5485 208.101 62.2812 208.503 62.7818C208.905 63.2838 209.638 63.3632 210.14 62.9609C210.559 62.6255 211.078 62.4023 211.643 62.3178C212.57 62.1778 213.479 62.4313 214.075 62.995C214.347 63.251 214.708 63.3519 215.051 63.3014Z" fill="#BF0C01"/>
<path d="M123.969 133.535C124.622 137.368 122.044 141.005 118.212 141.658L92.392 146.058C88.5595 146.711 84.9224 144.134 84.2692 140.301C83.6159 136.469 86.1936 132.831 90.0261 132.178L115.846 127.778C119.68 127.125 123.316 129.703 123.969 133.535Z" fill="url(#paint43_linear)"/>
<rect x="110.372" y="128.797" width="14.0805" height="4.86921" transform="rotate(80.3286 110.372 128.797)" fill="#FF8011"/>
<circle cx="109.055" cy="135.56" r="3.70262" fill="#FFCD5C"/>
<path d="M122.105 123.294C123.09 123.883 123.411 125.159 122.822 126.144L119.982 131.038C119.393 132.023 118.116 132.343 117.131 131.754C116.147 131.166 115.826 129.889 116.415 128.904L119.255 124.01C119.844 123.025 121.12 122.705 122.105 123.294Z" fill="url(#paint44_linear)"/>
<path d="M127.887 126.912C128.434 127.921 128.06 129.182 127.051 129.729L121.705 132.628C120.696 133.176 119.435 132.801 118.888 131.792C118.34 130.783 118.715 129.522 119.724 128.975L125.07 126.076C126.078 125.528 127.34 125.903 127.887 126.912Z" fill="url(#paint45_linear)"/>
<path d="M130.192 131.966C130.421 133.091 129.693 134.187 128.568 134.415L122.608 135.622C121.483 135.85 120.387 135.123 120.159 133.998C119.931 132.873 120.658 131.777 121.783 131.549L127.743 130.342C128.868 130.115 129.965 130.841 130.192 131.966Z" fill="url(#paint46_linear)"/>
<path d="M130.189 137.679C130.129 138.825 129.151 139.706 128.005 139.645L121.933 139.326C120.786 139.266 119.907 138.288 119.967 137.142C120.027 135.996 121.005 135.117 122.151 135.176L128.223 135.495C129.37 135.555 130.25 136.533 130.189 137.679Z" fill="url(#paint47_linear)"/>
<path d="M125.917 144.062C125.27 145.01 123.978 145.253 123.029 144.606L118.006 141.179C117.058 140.532 116.815 139.239 117.462 138.292C118.109 137.344 119.401 137.1 120.348 137.747L125.371 141.175C126.32 141.822 126.564 143.115 125.917 144.062Z" fill="url(#paint48_linear)"/>
<path d="M65.8873 125.275L85.2441 144.377C85.6061 144.712 86.171 144.691 86.5065 144.329L98.1503 131.777C98.4858 131.415 98.4643 130.85 98.1024 130.515L78.7469 111.413C74.9194 107.861 68.938 108.086 65.3867 111.913C61.8354 115.742 62.0599 121.724 65.8873 125.275Z" fill="white"/>
<path d="M62.8025 122.255L83.5062 143.666C83.6979 143.86 84.0106 143.862 84.2036 143.671L98.497 129.584C98.6925 129.391 98.6937 129.076 98.4983 128.883L77.4995 107.642C73.4715 103.628 66.9617 103.609 62.911 107.6C58.8338 111.617 58.7859 118.179 62.8025 122.255Z" fill="url(#paint49_linear)"/>
<defs>
<linearGradient id="paint0_linear" x1="-43.9001" y1="99.9038" x2="-43.9001" y2="190.009" gradientUnits="userSpaceOnUse">
<stop stop-color="#FFDDCD"/>
<stop offset="0.7106" stop-color="#FFCBC6"/>
<stop offset="0.9999" stop-color="#FFB2A1"/>
</linearGradient>
<linearGradient id="paint1_linear" x1="72.711" y1="99.9038" x2="72.711" y2="190.009" gradientUnits="userSpaceOnUse">
<stop stop-color="#FFDDCD"/>
<stop offset="0.7106" stop-color="#FFCBC6"/>
<stop offset="0.9999" stop-color="#FFB2A1"/>
</linearGradient>
<linearGradient id="paint2_linear" x1="114.946" y1="172.096" x2="43.4394" y2="172.096" gradientUnits="userSpaceOnUse">
<stop stop-color="#FFDDCD"/>
<stop offset="0.7106" stop-color="#FFCBC6"/>
<stop offset="0.9999" stop-color="#FFB2A1"/>
</linearGradient>
<linearGradient id="paint3_linear" x1="60.3157" y1="181.413" x2="106.754" y2="226.596" gradientUnits="userSpaceOnUse">
<stop stop-color="#FFDDCD"/>
<stop offset="0.7106" stop-color="#FFCBC6"/>
<stop offset="0.9999" stop-color="#FFB2A1"/>
</linearGradient>
<linearGradient id="paint4_linear" x1="42.1958" y1="52.2872" x2="72.8436" y2="122.484" gradientUnits="userSpaceOnUse">
<stop stop-color="#FFC310"/>
<stop offset="0.1821" stop-color="#FFBD10"/>
<stop offset="0.4229" stop-color="#FFAC11"/>
<stop offset="0.6966" stop-color="#FF9111"/>
<stop offset="0.9928" stop-color="#FF6B12"/>
<stop offset="1" stop-color="#FF6A12"/>
</linearGradient>
<linearGradient id="paint5_linear" x1="62.7305" y1="135.158" x2="62.7305" y2="175.384" gradientUnits="userSpaceOnUse">
<stop stop-color="#110242"/>
<stop offset="1" stop-color="#140148"/>
</linearGradient>
<linearGradient id="paint6_linear" x1="64.1135" y1="114.462" x2="64.1135" y2="136.317" gradientUnits="userSpaceOnUse">
<stop stop-color="#FFE6F2" stop-opacity="0.5"/>
<stop offset="1" stop-color="#FFE6F2"/>
</linearGradient>
<linearGradient id="paint7_linear" x1="57.4549" y1="22.2978" x2="51.4492" y2="93.3751" gradientUnits="userSpaceOnUse">
<stop stop-color="#FFC310"/>
<stop offset="1" stop-color="#FF9710"/>
</linearGradient>
<linearGradient id="paint8_linear" x1="102.251" y1="92.1356" x2="115.317" y2="93.2397" gradientUnits="userSpaceOnUse">
<stop stop-color="#FF9CA4"/>
<stop offset="0.2883" stop-color="#FFA0A6"/>
<stop offset="0.5933" stop-color="#FFADAC"/>
<stop offset="0.905" stop-color="#FFC2B6"/>
<stop offset="1" stop-color="#FFCABA"/>
</linearGradient>
<linearGradient id="paint9_linear" x1="73.6198" y1="77.6933" x2="62.8109" y2="76.78" gradientUnits="userSpaceOnUse">
<stop stop-color="#FF9CA4"/>
<stop offset="0.2883" stop-color="#FFA0A6"/>
<stop offset="0.5933" stop-color="#FFADAC"/>
<stop offset="0.905" stop-color="#FFC2B6"/>
<stop offset="1" stop-color="#FFCABA"/>
</linearGradient>
<linearGradient id="paint10_linear" x1="69.5943" y1="57.6377" x2="64.8589" y2="104.691" gradientUnits="userSpaceOnUse">
<stop stop-color="#FFDDCD"/>
<stop offset="0.7106" stop-color="#FFCBC6"/>
<stop offset="0.9999" stop-color="#FFB2A1"/>
</linearGradient>
<linearGradient id="paint11_linear" x1="37.4167" y1="22.0193" x2="33.6451" y2="93.215" gradientUnits="userSpaceOnUse">
<stop stop-color="#FFC310"/>
<stop offset="1" stop-color="#FF9710"/>
</linearGradient>
<linearGradient id="paint12_linear" x1="93.2923" y1="88.048" x2="94.432" y2="80.6044" gradientUnits="userSpaceOnUse">
<stop stop-color="#FF9CA4"/>
<stop offset="0.2883" stop-color="#FFA0A6"/>
<stop offset="0.5933" stop-color="#FFADAC"/>
<stop offset="0.905" stop-color="#FFC2B6"/>
<stop offset="1" stop-color="#FFCABA"/>
</linearGradient>
<linearGradient id="paint13_linear" x1="97.2605" y1="79.268" x2="96.5448" y2="83.8953" gradientUnits="userSpaceOnUse">
<stop stop-color="#3D3C3E"/>
<stop offset="0.0787" stop-color="#313032"/>
<stop offset="0.2595" stop-color="#1B1B1C"/>
<stop offset="0.4575" stop-color="#0C0C0C"/>
<stop offset="0.6836" stop-color="#030303"/>
<stop offset="1"/>
</linearGradient>
<linearGradient id="paint14_linear" x1="81.6844" y1="77.9519" x2="80.9687" y2="82.5792" gradientUnits="userSpaceOnUse">
<stop stop-color="#3D3C3E"/>
<stop offset="0.0787" stop-color="#313032"/>
<stop offset="0.2595" stop-color="#1B1B1C"/>
<stop offset="0.4575" stop-color="#0C0C0C"/>
<stop offset="0.6836" stop-color="#030303"/>
<stop offset="1"/>
</linearGradient>
<radialGradient id="paint15_radial" cx="0" cy="0" r="1" gradientUnits="userSpaceOnUse" gradientTransform="translate(103.542 88.3976) rotate(-175.17) scale(5.28242 4.42321)">
<stop stop-color="#FF9E88" stop-opacity="0.8"/>
<stop offset="0.2951" stop-color="#FFA28C" stop-opacity="0.5639"/>
<stop offset="0.6073" stop-color="#FFAF98" stop-opacity="0.3142"/>
<stop offset="0.9263" stop-color="#FFC4AC" stop-opacity="0.059"/>
<stop offset="1" stop-color="#FFCAB2" stop-opacity="0.01"/>
</radialGradient>
<radialGradient id="paint16_radial" cx="0" cy="0" r="1" gradientUnits="userSpaceOnUse" gradientTransform="translate(77.7708 86.22) rotate(-175.17) scale(5.28242 4.42321)">
<stop stop-color="#FF9E88" stop-opacity="0.8"/>
<stop offset="0.2951" stop-color="#FFA28C" stop-opacity="0.5639"/>
<stop offset="0.6073" stop-color="#FFAF98" stop-opacity="0.3142"/>
<stop offset="0.9263" stop-color="#FFC4AC" stop-opacity="0.059"/>
<stop offset="1" stop-color="#FFCAB2" stop-opacity="0.01"/>
</radialGradient>
<linearGradient id="paint17_linear" x1="55.2327" y1="67.2093" x2="55.2327" y2="135.981" gradientUnits="userSpaceOnUse">
<stop stop-color="#5E52CD"/>
<stop offset="0.0615" stop-color="#584BC4"/>
<stop offset="0.2596" stop-color="#4937AD"/>
<stop offset="0.4714" stop-color="#3E299C"/>
<stop offset="0.7045" stop-color="#382192"/>
<stop offset="1" stop-color="#361E8F"/>
</linearGradient>
<linearGradient id="paint18_linear" x1="192.051" y1="66.192" x2="148.697" y2="110.409" gradientUnits="userSpaceOnUse">
<stop stop-color="#6BCCF6"/>
<stop offset="0.2833" stop-color="#68C6F7"/>
<stop offset="0.6617" stop-color="#60B5F9"/>
<stop offset="1" stop-color="#55A0FB"/>
</linearGradient>
<linearGradient id="paint19_linear" x1="237.224" y1="127.922" x2="226.242" y2="62.1621" gradientUnits="userSpaceOnUse">
<stop stop-color="#FFCDC3"/>
<stop offset="0.6791" stop-color="#FFBFBA"/>
<stop offset="0.9999" stop-color="#FFAFAD"/>
</linearGradient>
<linearGradient id="paint20_linear" x1="209.51" y1="125.326" x2="181.046" y2="56.536" gradientUnits="userSpaceOnUse">
<stop stop-color="#FFCDC3"/>
<stop offset="0.6791" stop-color="#FFBFBA"/>
<stop offset="0.9999" stop-color="#FFAFAD"/>
</linearGradient>
<linearGradient id="paint21_linear" x1="204.907" y1="113.733" x2="156.399" y2="57.4912" gradientUnits="userSpaceOnUse">
<stop stop-color="#FFCDC3"/>
<stop offset="0.6791" stop-color="#FFBFBA"/>
<stop offset="0.9999" stop-color="#FFAFAD"/>
</linearGradient>
<linearGradient id="paint22_linear" x1="204.302" y1="99.2739" x2="145.224" y2="63.5477" gradientUnits="userSpaceOnUse">
<stop stop-color="#FFCDC3"/>
<stop offset="0.6791" stop-color="#FFBFBA"/>
<stop offset="0.9999" stop-color="#FFAFAD"/>
</linearGradient>
<linearGradient id="paint23_linear" x1="202.972" y1="85.159" x2="144.462" y2="65.3751" gradientUnits="userSpaceOnUse">
<stop stop-color="#FFCDC3"/>
<stop offset="0.6791" stop-color="#FFBFBA"/>
<stop offset="0.9999" stop-color="#FFAFAD"/>
</linearGradient>
<linearGradient id="paint24_linear" x1="206.07" y1="108.249" x2="153.152" y2="56.3479" gradientUnits="userSpaceOnUse">
<stop stop-color="#FFCDC3"/>
<stop offset="0.6791" stop-color="#FFBFBA"/>
<stop offset="0.9999" stop-color="#FFAFAD"/>
</linearGradient>
<linearGradient id="paint25_linear" x1="181.426" y1="76.5571" x2="181.426" y2="155.426" gradientUnits="userSpaceOnUse">
<stop stop-color="#6BCCF6"/>
<stop offset="0.2833" stop-color="#68C6F7"/>
<stop offset="0.6617" stop-color="#60B5F9"/>
<stop offset="1" stop-color="#55A0FB"/>
</linearGradient>
<linearGradient id="paint26_linear" x1="131.416" y1="110.944" x2="131.379" y2="119.643" gradientUnits="userSpaceOnUse">
<stop stop-color="#3B393C"/>
<stop offset="0.0673" stop-color="#312F32"/>
<stop offset="0.2504" stop-color="#1B1A1C"/>
<stop offset="0.4508" stop-color="#0C0C0C"/>
<stop offset="0.6797" stop-color="#030303"/>
<stop offset="1"/>
</linearGradient>
<linearGradient id="paint27_linear" x1="157.632" y1="111.014" x2="157.595" y2="119.712" gradientUnits="userSpaceOnUse">
<stop stop-color="#3B393C"/>
<stop offset="0.0673" stop-color="#312F32"/>
<stop offset="0.2504" stop-color="#1B1A1C"/>
<stop offset="0.4508" stop-color="#0C0C0C"/>
<stop offset="0.6797" stop-color="#030303"/>
<stop offset="1"/>
</linearGradient>
<linearGradient id="paint28_linear" x1="186.885" y1="228.221" x2="278.55" y2="209.653" gradientUnits="userSpaceOnUse">
<stop stop-color="#FFDDCF"/>
<stop offset="0.6791" stop-color="#FFBFBA"/>
<stop offset="0.9999" stop-color="#FFAFAD"/>
</linearGradient>
<linearGradient id="paint29_linear" x1="196.638" y1="193.045" x2="281.476" y2="139.765" gradientUnits="userSpaceOnUse">
<stop stop-color="#FFDDCF"/>
<stop offset="0.6791" stop-color="#FFBFBA"/>
<stop offset="0.9999" stop-color="#FFAFAD"/>
</linearGradient>
<linearGradient id="paint30_linear" x1="203.669" y1="177.768" x2="266.283" y2="105.112" gradientUnits="userSpaceOnUse">
<stop stop-color="#FFDDCF"/>
<stop offset="0.6791" stop-color="#FFBFBA"/>
<stop offset="0.9999" stop-color="#FFAFAD"/>
</linearGradient>
<linearGradient id="paint31_linear" x1="212.802" y1="165.758" x2="250.373" y2="89.0052" gradientUnits="userSpaceOnUse">
<stop stop-color="#FFDDCF"/>
<stop offset="0.6791" stop-color="#FFBFBA"/>
<stop offset="0.9999" stop-color="#FFAFAD"/>
</linearGradient>
<linearGradient id="paint32_linear" x1="207.659" y1="164.785" x2="251.246" y2="87.8287" gradientUnits="userSpaceOnUse">
<stop stop-color="#FFDDCF"/>
<stop offset="0.6791" stop-color="#FFBFBA"/>
<stop offset="0.9999" stop-color="#FFAFAD"/>
</linearGradient>
<linearGradient id="paint33_linear" x1="205.344" y1="178.779" x2="266.291" y2="105.419" gradientUnits="userSpaceOnUse">
<stop stop-color="#FFDDCF"/>
<stop offset="0.6791" stop-color="#FFBFBA"/>
<stop offset="0.9999" stop-color="#FFAFAD"/>
</linearGradient>
<linearGradient id="paint34_linear" x1="203.905" y1="88.0892" x2="164.852" y2="139.649" gradientUnits="userSpaceOnUse">
<stop stop-color="#59D3F7"/>
<stop offset="0.2175" stop-color="#5EC7F9"/>
<stop offset="0.6813" stop-color="#65B4FE"/>
<stop offset="1" stop-color="#68ADFF"/>
</linearGradient>
<linearGradient id="paint35_linear" x1="177.011" y1="41.3346" x2="185.109" y2="92.8148" gradientUnits="userSpaceOnUse">
<stop stop-color="#C11601"/>
<stop offset="0.2888" stop-color="#B11901"/>
<stop offset="0.8487" stop-color="#882100"/>
<stop offset="1" stop-color="#7C2300"/>
</linearGradient>
<linearGradient id="paint36_linear" x1="233.444" y1="63.8797" x2="227.274" y2="64.3017" gradientUnits="userSpaceOnUse">
<stop stop-color="#FFC9C0"/>
<stop offset="0.6563" stop-color="#FF9FA1"/>
<stop offset="1" stop-color="#FF878F"/>
</linearGradient>
<linearGradient id="paint37_linear" x1="179.953" y1="80.6052" x2="185.457" y2="80.2286" gradientUnits="userSpaceOnUse">
<stop stop-color="#FFC9C0"/>
<stop offset="0.6563" stop-color="#FF9FA1"/>
<stop offset="1" stop-color="#FF878F"/>
</linearGradient>
<linearGradient id="paint38_linear" x1="179.144" y1="50.3264" x2="189.533" y2="102.684" gradientUnits="userSpaceOnUse">
<stop stop-color="#FFDDCD"/>
<stop offset="0.7106" stop-color="#FFCBC6"/>
<stop offset="0.9999" stop-color="#FFB2A1"/>
</linearGradient>
<linearGradient id="paint39_linear" x1="149.019" y1="38.7087" x2="150.655" y2="90.4135" gradientUnits="userSpaceOnUse">
<stop stop-color="#C11601"/>
<stop offset="0.2888" stop-color="#B11901"/>
<stop offset="0.8487" stop-color="#882100"/>
<stop offset="1" stop-color="#7C2300"/>
</linearGradient>
<linearGradient id="paint40_linear" x1="200.693" y1="69.9708" x2="202.745" y2="78.422" gradientUnits="userSpaceOnUse">
<stop stop-color="#FFC9C0"/>
<stop offset="0.3224" stop-color="#FFB7B3"/>
<stop offset="0.9638" stop-color="#FF8A91"/>
<stop offset="1" stop-color="#FF878F"/>
</linearGradient>
<linearGradient id="paint41_linear" x1="194.254" y1="70.2828" x2="195.426" y2="74.7616" gradientUnits="userSpaceOnUse">
<stop stop-color="#3D3C3E"/>
<stop offset="0.0787" stop-color="#313032"/>
<stop offset="0.2595" stop-color="#1B1B1C"/>
<stop offset="0.4575" stop-color="#0C0C0C"/>
<stop offset="0.6836" stop-color="#030303"/>
<stop offset="1"/>
</linearGradient>
<linearGradient id="paint42_linear" x1="210.964" y1="67.7649" x2="212.136" y2="72.2437" gradientUnits="userSpaceOnUse">
<stop stop-color="#3D3C3E"/>
<stop offset="0.0787" stop-color="#313032"/>
<stop offset="0.2595" stop-color="#1B1B1C"/>
<stop offset="0.4575" stop-color="#0C0C0C"/>
<stop offset="0.6836" stop-color="#030303"/>
<stop offset="1"/>
</linearGradient>
<linearGradient id="paint43_linear" x1="118.531" y1="125.493" x2="94.7925" y2="144.35" gradientUnits="userSpaceOnUse">
<stop stop-color="#FFDDCD"/>
<stop offset="0.7106" stop-color="#FFCBC6"/>
<stop offset="0.9999" stop-color="#FFB2A1"/>
</linearGradient>
<linearGradient id="paint44_linear" x1="126.04" y1="98.0528" x2="82.6233" y2="102.474" gradientUnits="userSpaceOnUse">
<stop stop-color="#FFDDCD"/>
<stop offset="0.7106" stop-color="#FFCBC6"/>
<stop offset="0.9999" stop-color="#FFB2A1"/>
</linearGradient>
<linearGradient id="paint45_linear" x1="124.34" y1="112.335" x2="82.9089" y2="125.14" gradientUnits="userSpaceOnUse">
<stop stop-color="#FFDDCD"/>
<stop offset="0.7106" stop-color="#FFCBC6"/>
<stop offset="0.9999" stop-color="#FFB2A1"/>
</linearGradient>
<linearGradient id="paint46_linear" x1="123.01" y1="120.737" x2="88.2249" y2="141.829" gradientUnits="userSpaceOnUse">
<stop stop-color="#FFDDCD"/>
<stop offset="0.7106" stop-color="#FFCBC6"/>
<stop offset="0.9999" stop-color="#FFB2A1"/>
</linearGradient>
<linearGradient id="paint47_linear" x1="122.273" y1="127.022" x2="94.5693" y2="151.685" gradientUnits="userSpaceOnUse">
<stop stop-color="#FFDDCD"/>
<stop offset="0.7106" stop-color="#FFCBC6"/>
<stop offset="0.9999" stop-color="#FFB2A1"/>
</linearGradient>
<linearGradient id="paint48_linear" x1="126.752" y1="121.744" x2="84.4372" y2="132.31" gradientUnits="userSpaceOnUse">
<stop stop-color="#FFDDCD"/>
<stop offset="0.7106" stop-color="#FFCBC6"/>
<stop offset="0.9999" stop-color="#FFB2A1"/>
</linearGradient>
<linearGradient id="paint49_linear" x1="47.9464" y1="121.661" x2="76.8686" y2="150.459" gradientUnits="userSpaceOnUse">
<stop stop-color="#5E52CD"/>
<stop offset="0.0615" stop-color="#584BC4"/>
<stop offset="0.2596" stop-color="#4937AD"/>
<stop offset="0.4714" stop-color="#3E299C"/>
<stop offset="0.7045" stop-color="#382192"/>
<stop offset="1" stop-color="#361E8F"/>
</linearGradient>
</defs>
</svg>
