<svg width="257" height="198" viewBox="0 0 257 198" fill="none" xmlns="http://www.w3.org/2000/svg">
<path d="M83.8121 59.5546L68.9204 78.8279C68.7393 79.0625 68.4023 79.1051 68.1692 78.924L58.012 71.0757C57.7773 70.8946 57.7348 70.5575 57.9159 70.3244L72.8075 51.0512C72.9887 50.8165 73.3257 50.774 73.5588 50.9551L83.716 58.8033C83.9507 58.9829 83.9932 59.3199 83.8121 59.5546Z" fill="#008095"/>
<path d="M81.8387 59.7058L68.5693 76.8781C68.4166 77.0749 68.1346 77.1112 67.9378 76.9584L59.9698 70.8017C59.773 70.6489 59.7367 70.367 59.8895 70.1701L73.1589 52.9979C73.3117 52.801 73.5936 52.7648 73.7905 52.9176L81.7584 59.0743C81.9552 59.227 81.9915 59.509 81.8387 59.7058Z" fill="#00CFCE"/>
<path d="M58.0123 71.0758L60.8379 73.2588C60.8867 73.2021 60.934 73.1454 60.9812 73.0855C62.3357 71.331 62.0129 68.811 60.2599 67.4565C60.2331 67.436 60.2063 67.4171 60.1796 67.3966L57.9178 70.3245C57.7336 70.5576 57.7777 70.8947 58.0123 71.0758Z" fill="#008095"/>
<path d="M72.8079 51.0496L70.625 53.8752C70.6817 53.924 70.7384 53.9713 70.7982 54.0185C72.5528 55.373 75.0728 55.0501 76.4273 53.2972C76.4478 53.2704 76.4667 53.2436 76.4871 53.2168L73.5592 50.9551C73.3245 50.7724 72.9891 50.8165 72.8079 51.0496Z" fill="#008095"/>
<path d="M83.7164 58.8018L80.8909 56.6189C80.842 56.6756 80.7948 56.7323 80.7475 56.7921C79.393 58.5467 79.7159 61.0667 81.4689 62.4212C81.4957 62.4417 81.5224 62.4606 81.5492 62.481L83.8109 59.5531C83.9936 59.32 83.9511 58.983 83.7164 58.8018Z" fill="#008095"/>
<path d="M68.9204 78.828L71.1034 76.0024C71.0467 75.9536 70.99 75.9064 70.9301 75.8591C69.1756 74.5046 66.6556 74.8275 65.3011 76.5805C65.2806 76.6072 65.2617 76.634 65.2412 76.6608L68.1691 78.9225C68.4022 79.1052 68.7393 79.0611 68.9204 78.828Z" fill="#008095"/>
<ellipse cx="70.8947" cy="64.9616" rx="3.47287" ry="3.47287" fill="#008095"/>
<path d="M68.055 69.5118L67.2013 70.6159C67.0155 70.8553 66.6721 70.8994 66.4327 70.7151C66.1933 70.5292 66.1492 70.1859 66.3335 69.9465L67.1872 68.8424C67.373 68.603 67.7164 68.5589 67.9558 68.7432C68.1967 68.9275 68.2408 69.2724 68.055 69.5118Z" fill="#008095"/>
<path d="M75.7024 59.6146L74.8488 60.7186C74.6629 60.958 74.3196 61.0021 74.0802 60.8179C73.8408 60.632 73.7967 60.2887 73.981 60.0493L74.8346 58.9452C75.0205 58.7058 75.3638 58.6617 75.6032 58.846C75.8442 59.0302 75.8883 59.3736 75.7024 59.6146Z" fill="#008095"/>
<path d="M112.948 28.4767L97.7448 9.44759C97.5606 9.21606 97.5984 8.87901 97.8283 8.69474L107.856 0.68271C108.088 0.498435 108.425 0.536235 108.609 0.766185L123.813 19.7953C123.997 20.0269 123.959 20.3639 123.729 20.5482L113.701 28.5602C113.471 28.7445 113.134 28.7083 112.948 28.4767Z" fill="#008095"/>
<path d="M113.268 26.5222L99.7216 9.56734C99.5657 9.37362 99.5988 9.09012 99.7925 8.9342L107.66 2.64837C107.853 2.49245 108.137 2.52552 108.293 2.71925L121.839 19.6741C121.995 19.8678 121.962 20.1513 121.768 20.3073L113.901 26.5931C113.706 26.749 113.423 26.7175 113.268 26.5222Z" fill="#00CFCE"/>
<path d="M107.858 0.682768L105.068 2.91139C105.111 2.97282 105.157 3.03267 105.204 3.09094C106.587 4.82187 109.113 5.10537 110.844 3.72095C110.871 3.70047 110.894 3.67842 110.921 3.65637L108.612 0.766243C108.426 0.534718 108.089 0.496918 107.858 0.682768Z" fill="#008095"/>
<path d="M123.814 19.7954L121.585 17.0061C121.524 17.0486 121.464 17.0943 121.406 17.1416C119.675 18.5244 119.391 21.0507 120.776 22.7816C120.796 22.8084 120.818 22.832 120.84 22.8588L123.73 20.5499C123.962 20.364 124 20.027 123.814 19.7954Z" fill="#008095"/>
<path d="M113.703 28.5602L116.492 26.3316C116.45 26.2702 116.404 26.2104 116.357 26.1521C114.974 24.4212 112.448 24.1377 110.717 25.5221C110.69 25.5426 110.666 25.5646 110.64 25.5867L112.949 28.4768C113.134 28.7083 113.472 28.7445 113.703 28.5602Z" fill="#008095"/>
<path d="M97.7448 9.44765L99.9735 12.237C100.035 12.1945 100.095 12.1488 100.153 12.1015C101.884 10.7187 102.167 8.19238 100.783 6.46145C100.763 6.43468 100.74 6.41105 100.718 6.38428L97.8283 8.69323C97.5984 8.87908 97.5606 9.21613 97.7448 9.44765Z" fill="#008095"/>
<circle cx="110.751" cy="14.6451" r="3.47288" fill="#008095"/>
<path d="M107.001 10.81L106.13 9.72014C105.941 9.4839 105.979 9.13897 106.217 8.94997C106.453 8.76097 106.798 8.79877 106.987 9.0366L107.858 10.1265C108.047 10.3627 108.009 10.7077 107.771 10.8967C107.535 11.0857 107.19 11.0463 107.001 10.81Z" fill="#008095"/>
<path d="M114.808 20.5829L113.938 19.493C113.749 19.2567 113.786 18.9118 114.024 18.7228C114.26 18.5338 114.605 18.5716 114.794 18.8094L115.665 19.8993C115.854 20.1356 115.816 20.4805 115.579 20.6695C115.344 20.8569 114.999 20.8191 114.808 20.5829Z" fill="#008095"/>
<path d="M23.2712 92.1824L0.576976 89.3033C0.301351 89.2687 0.106051 89.0167 0.140701 88.741L1.65743 76.7805C1.69208 76.5048 1.94408 76.3095 2.2197 76.3442L24.9139 79.2233C25.1895 79.2579 25.3848 79.5099 25.3502 79.7856L23.8334 91.7461C23.7988 92.0218 23.5468 92.2171 23.2712 92.1824Z" fill="#008095"/>
<path d="M22.2082 90.6578L1.98833 88.0921C1.7568 88.0622 1.593 87.8511 1.62135 87.6196L2.81205 78.2374C2.84198 78.0058 3.05303 77.842 3.28455 77.8704L23.5044 80.436C23.7359 80.466 23.8997 80.677 23.8714 80.9085L22.6807 90.2908C22.6523 90.5223 22.4397 90.6861 22.2082 90.6578Z" fill="#00CFCE"/>
<path d="M1.65843 76.7805L1.23633 80.1084C1.30563 80.121 1.37493 80.1321 1.4458 80.1415C3.51063 80.403 5.39748 78.9414 5.65893 76.8765C5.66366 76.845 5.66523 76.8135 5.66838 76.7836L2.2207 76.3458C1.94508 76.3095 1.69308 76.5048 1.65843 76.7805Z" fill="#008095"/>
<path d="M24.9157 79.2234L21.5878 78.8013C21.5752 78.8706 21.5641 78.9399 21.5547 79.0107C21.2932 81.0756 22.7548 82.9624 24.8197 83.2239C24.8512 83.2286 24.8827 83.2302 24.9126 83.2333L25.3504 79.7856C25.3867 79.51 25.1914 79.258 24.9157 79.2234Z" fill="#008095"/>
<path d="M23.8332 91.7462L24.2553 88.4182C24.186 88.4056 24.1167 88.3946 24.0458 88.3851C21.981 88.1237 20.0941 89.5853 19.8327 91.6501C19.828 91.6816 19.8264 91.7131 19.8232 91.743L23.2709 92.1809C23.5465 92.2171 23.7985 92.0218 23.8332 91.7462Z" fill="#008095"/>
<path d="M0.576721 89.3033L3.90469 89.7254C3.91729 89.6561 3.92832 89.5868 3.93777 89.5159C4.19922 87.4511 2.73762 85.5642 0.672796 85.3028C0.641296 85.2981 0.609796 85.2965 0.579871 85.2933L0.142022 88.741C0.105797 89.0166 0.301096 89.2686 0.576721 89.3033Z" fill="#008095"/>
<ellipse cx="12.7423" cy="84.298" rx="3.26183" ry="3.26182" fill="#008095"/>
<path d="M7.70501 84.1672L6.40406 84.0019C6.12214 83.9656 5.92211 83.7089 5.95834 83.4254C5.99456 83.1435 6.25129 82.9435 6.53479 82.9797L7.83574 83.1451C8.11766 83.1813 8.31769 83.438 8.28146 83.7215C8.24524 84.0034 7.98851 84.2019 7.70501 84.1672Z" fill="#008095"/>
<path d="M19.3622 85.6461L18.0613 85.4807C17.7794 85.4445 17.5793 85.1878 17.6156 84.9043C17.6518 84.6224 17.9085 84.4224 18.192 84.4586L19.493 84.624C19.7749 84.6602 19.9749 84.9169 19.9387 85.2004C19.9009 85.4807 19.6442 85.6808 19.3622 85.6461Z" fill="#008095"/>
<path d="M32.0049 46.8523L13.1458 33.9027C12.9175 33.7452 12.8592 33.4317 13.0151 33.2034L19.8396 23.2651C19.9971 23.0367 20.3105 22.9785 20.5389 23.1344L39.3979 36.084C39.6263 36.2415 39.6846 36.555 39.5287 36.7833L32.7042 46.7216C32.5483 46.9515 32.2348 47.0098 32.0049 46.8523Z" fill="#008095"/>
<path d="M31.7573 45.0096L14.9536 33.4727C14.7615 33.3404 14.7126 33.0774 14.8449 32.8837L20.1984 25.0874C20.3307 24.8953 20.5937 24.8464 20.7874 24.9787L37.5911 36.5156C37.7832 36.6479 37.8321 36.9109 37.6998 37.1047L32.3463 44.9009C32.214 45.0931 31.951 45.1419 31.7573 45.0096Z" fill="#00CFCE"/>
<path d="M19.8412 23.2651L17.9434 26.0292C17.9985 26.0718 18.0552 26.1143 18.1135 26.1537C19.8302 27.3318 22.1754 26.8955 23.3551 25.1803C23.3724 25.1551 23.3897 25.1283 23.407 25.1016L20.5421 23.1344C20.3122 22.9769 19.9987 23.0352 19.8412 23.2651Z" fill="#008095"/>
<path d="M39.3993 36.084L36.6352 34.1862C36.5926 34.2413 36.5501 34.298 36.5107 34.3563C35.3326 36.073 35.7689 38.4182 37.4841 39.5979C37.5093 39.6152 37.5361 39.6325 37.5628 39.6498L39.53 36.7849C39.6859 36.5534 39.6277 36.24 39.3993 36.084Z" fill="#008095"/>
<path d="M32.7039 46.7215L34.6033 43.9574C34.5482 43.9149 34.4915 43.8724 34.4332 43.833C32.7165 42.6549 30.3713 43.0912 29.1916 44.8063C29.1743 44.8315 29.157 44.8583 29.1396 44.8851L32.0046 46.8523C32.2345 47.0098 32.548 46.9515 32.7039 46.7215Z" fill="#008095"/>
<path d="M13.1458 33.9027L15.91 35.8006C15.9525 35.7455 15.995 35.6888 16.0344 35.6305C17.2125 33.9137 16.7762 31.5686 15.061 30.3889C15.0358 30.3716 15.0091 30.3542 14.9823 30.3369L13.0151 33.2018C12.8592 33.4318 12.9175 33.7452 13.1458 33.9027Z" fill="#008095"/>
<ellipse cx="26.253" cy="35.0224" rx="3.26183" ry="3.26183" fill="#008095"/>
<path d="M21.8363 32.6002L20.7559 31.8583C20.5212 31.6977 20.4613 31.3764 20.6236 31.1417C20.7842 30.907 21.1055 30.8472 21.3402 31.0094L22.4206 31.7512C22.6553 31.9119 22.7152 32.2332 22.5529 32.4679C22.3907 32.701 22.071 32.7608 21.8363 32.6002Z" fill="#008095"/>
<path d="M31.5209 39.2498L30.4404 38.508C30.2057 38.3474 30.1459 38.0261 30.3081 37.7914C30.4688 37.5567 30.7901 37.4969 31.0247 37.6591L32.1052 38.4009C32.3399 38.5616 32.3997 38.8829 32.2375 39.1175C32.0753 39.3522 31.7555 39.4105 31.5209 39.2498Z" fill="#008095"/>
<path d="M62.6825 128.848L42.6359 117.828C42.3918 117.694 42.3036 117.389 42.4375 117.145L48.2445 106.58C48.3784 106.335 48.6839 106.247 48.928 106.381L68.9746 117.401C69.2188 117.535 69.307 117.841 69.1731 118.085L63.3661 128.65C63.2322 128.893 62.9251 128.982 62.6825 128.848Z" fill="#008095"/>
<path d="M62.254 127.039L44.3919 117.22C44.1871 117.108 44.1131 116.85 44.2249 116.645L48.7814 108.358C48.8932 108.153 49.1515 108.079 49.3563 108.191L67.2184 118.009C67.4231 118.121 67.4971 118.379 67.3853 118.584L62.8288 126.872C62.7154 127.077 62.4587 127.151 62.254 127.039Z" fill="#00CFCE"/>
<path d="M48.2449 106.58L46.6289 109.518C46.6888 109.556 46.7486 109.591 46.8116 109.626C48.6355 110.629 50.9271 109.963 51.9304 108.139C51.9461 108.11 51.9587 108.084 51.9729 108.055L48.9284 106.381C48.6843 106.247 48.3787 106.335 48.2449 106.58Z" fill="#008095"/>
<path d="M68.9751 117.401L66.0361 115.785C65.9983 115.845 65.9637 115.905 65.929 115.968C64.9258 117.792 65.592 120.084 67.4158 121.087C67.4442 121.103 67.471 121.115 67.4993 121.129L69.1735 118.085C69.3074 117.841 69.2192 117.535 68.9751 117.401Z" fill="#008095"/>
<path d="M63.3667 128.648L64.9827 125.709C64.9228 125.672 64.863 125.637 64.8 125.602C62.9761 124.599 60.6845 125.265 59.6812 127.089C59.6654 127.118 59.6528 127.144 59.6387 127.173L62.6832 128.847C62.9257 128.982 63.2328 128.893 63.3667 128.648Z" fill="#008095"/>
<path d="M42.6346 117.828L45.5736 119.444C45.6114 119.384 45.646 119.324 45.6807 119.261C46.6839 117.438 46.0177 115.146 44.1939 114.143C44.1655 114.127 44.1387 114.114 44.1104 114.1L42.4362 117.145C42.3023 117.387 42.3921 117.694 42.6346 117.828Z" fill="#008095"/>
<ellipse cx="55.7916" cy="117.646" rx="3.26187" ry="3.26188" transform="rotate(-85.9344 55.7916 117.646)" fill="#008095"/>
<path d="M51.1543 115.672L50.0062 115.04C49.7573 114.903 49.666 114.59 49.803 114.341C49.94 114.092 50.2534 114.001 50.5023 114.138L51.6505 114.77C51.8993 114.907 51.9907 115.22 51.8536 115.469C51.7166 115.718 51.4032 115.809 51.1543 115.672Z" fill="#008095"/>
<path d="M61.4493 121.331L60.3011 120.699C60.0522 120.562 59.9609 120.249 60.0979 120C60.2349 119.751 60.5484 119.66 60.7972 119.797L61.9454 120.429C62.1942 120.566 62.2856 120.879 62.1486 121.128C62.0115 121.377 61.6981 121.468 61.4493 121.331Z" fill="#008095"/>
<path d="M50.6694 131.172L31.1142 119.301C30.8764 119.156 30.8008 118.847 30.9457 118.609L37.2016 108.304C37.3465 108.066 37.6552 107.991 37.893 108.136L57.4482 120.006C57.686 120.151 57.7616 120.46 57.6167 120.698L51.3608 131.003C51.2159 131.239 50.9072 131.315 50.6694 131.172Z" fill="#008095"/>
<path d="M50.32 129.345L32.8958 118.768C32.6958 118.647 32.6328 118.387 32.754 118.187L37.6617 110.103C37.783 109.903 38.0429 109.84 38.2429 109.961L55.6671 120.537C55.8672 120.658 55.9302 120.918 55.8089 121.118L50.9012 129.203C50.7799 129.403 50.52 129.466 50.32 129.345Z" fill="#00CFCE"/>
<path d="M37.2023 108.303L35.4619 111.169C35.5202 111.208 35.5785 111.248 35.6399 111.284C37.4196 112.364 39.738 111.797 40.8185 110.018C40.8342 109.991 40.85 109.963 40.8657 109.936L37.8953 108.132C37.6559 107.991 37.3456 108.066 37.2023 108.303Z" fill="#008095"/>
<path d="M57.4483 120.005L54.5818 118.264C54.5424 118.323 54.503 118.381 54.4668 118.442C53.3864 120.222 53.9534 122.541 55.7331 123.621C55.7599 123.637 55.7882 123.652 55.815 123.668L57.6184 120.698C57.7617 120.458 57.6861 120.15 57.4483 120.005Z" fill="#008095"/>
<path d="M51.3617 131.001L53.1021 128.135C53.0438 128.096 52.9855 128.056 52.9241 128.02C51.1443 126.94 48.8259 127.507 47.7455 129.286C47.7297 129.313 47.714 129.341 47.6982 129.368L50.6687 131.172C50.9081 131.315 51.2168 131.239 51.3617 131.001Z" fill="#008095"/>
<path d="M31.1147 119.301L33.9812 121.041C34.0205 120.983 34.0599 120.925 34.0961 120.863C35.1766 119.083 34.6096 116.765 32.8298 115.685C32.8031 115.669 32.7747 115.653 32.7479 115.637L30.9446 118.608C30.8012 118.847 30.8768 119.156 31.1147 119.301Z" fill="#008095"/>
<ellipse cx="44.2628" cy="119.682" rx="3.26182" ry="3.26182" fill="#008095"/>
<path d="M39.7171 117.512L38.5957 116.831C38.3532 116.683 38.2744 116.367 38.4225 116.124C38.5705 115.882 38.8871 115.803 39.1297 115.951L40.2511 116.631C40.4936 116.779 40.5724 117.096 40.4243 117.338C40.2778 117.583 39.9597 117.66 39.7171 117.512Z" fill="#008095"/>
<path d="M49.7611 123.608L48.6397 122.928C48.3971 122.78 48.3184 122.463 48.4664 122.221C48.6145 121.978 48.9311 121.9 49.1736 122.048L50.295 122.728C50.5376 122.876 50.6163 123.193 50.4683 123.435C50.3202 123.679 50.0036 123.756 49.7611 123.608Z" fill="#008095"/>
<path d="M80.3452 112.357L63.8801 128.236C63.6801 128.429 63.3619 128.423 63.1682 128.223L54.7987 119.545C54.6049 119.345 54.6112 119.027 54.8113 118.833L71.2779 102.952C71.4779 102.759 71.7961 102.765 71.9898 102.965L80.3593 111.643C80.5515 111.845 80.5452 112.163 80.3452 112.357Z" fill="#008095"/>
<path d="M78.4915 112.229L63.8204 126.379C63.6519 126.541 63.3841 126.536 63.2219 126.368L56.6557 119.561C56.4935 119.392 56.4982 119.124 56.6667 118.962L71.3379 104.812C71.5064 104.65 71.7741 104.655 71.9364 104.823L78.5025 111.63C78.6648 111.799 78.66 112.067 78.4915 112.229Z" fill="#00CFCE"/>
<path d="M54.7982 119.545L57.1261 121.959C57.1797 121.914 57.2316 121.866 57.282 121.818C58.7799 120.372 58.824 117.986 57.3781 116.488C57.3561 116.466 57.334 116.444 57.3104 116.422L54.8093 118.835C54.6108 119.027 54.6061 119.345 54.7982 119.545Z" fill="#008095"/>
<path d="M71.2778 102.954L68.8633 105.282C68.909 105.335 68.9562 105.387 69.005 105.438C70.4509 106.935 72.837 106.98 74.3348 105.534C74.3569 105.512 74.3789 105.49 74.401 105.466L71.9881 102.965C71.7959 102.766 71.4778 102.76 71.2778 102.954Z" fill="#008095"/>
<path d="M80.359 111.645L78.0311 109.23C77.9776 109.276 77.9256 109.323 77.8752 109.372C76.3774 110.818 76.3333 113.204 77.7791 114.702C77.8012 114.724 77.8232 114.746 77.8468 114.768L80.348 112.355C80.5448 112.163 80.5511 111.845 80.359 111.645Z" fill="#008095"/>
<path d="M63.8801 128.236L66.2945 125.908C66.2489 125.854 66.2016 125.802 66.1528 125.752C64.7069 124.254 62.3208 124.21 60.823 125.656C60.8009 125.678 60.7789 125.7 60.7568 125.724L63.1697 128.225C63.3603 128.423 63.6785 128.429 63.8801 128.236Z" fill="#008095"/>
<circle cx="67.6036" cy="115.62" r="3.26183" fill="#008095"/>
<path d="M64.3447 119.461L63.4013 120.372C63.1966 120.569 62.8706 120.564 62.6737 120.359C62.4768 120.154 62.4815 119.828 62.6863 119.632L63.6297 118.721C63.8344 118.524 64.1605 118.529 64.3573 118.734C64.5558 118.939 64.5495 119.265 64.3447 119.461Z" fill="#008095"/>
<path d="M72.8008 111.306L71.8574 112.216C71.6526 112.413 71.3266 112.409 71.1297 112.204C70.9329 111.999 70.9376 111.673 71.1423 111.476L72.0858 110.566C72.2905 110.369 72.6165 110.374 72.8134 110.578C73.0118 110.783 73.0055 111.109 72.8008 111.306Z" fill="#008095"/>
<path d="M81.3937 167.672H29.4045C26.6168 167.672 24.5425 165.099 25.1347 162.375L33.1829 125.316H77.6153L85.6635 162.375C86.2557 165.099 84.1799 167.672 81.3937 167.672Z" fill="black"/>
<path d="M79.7272 135.035L77.5537 125.023H33.1214L30.9463 135.035H79.7272Z" fill="#FF0000"/>
<path d="M83.1908 125.316H27.4847C25.3584 125.316 23.6338 123.591 23.6338 121.465C23.6338 119.339 25.3584 117.614 27.4847 117.614H83.1908C85.3171 117.614 87.0417 119.339 87.0417 121.465C87.0417 123.591 85.3171 125.316 83.1908 125.316Z" fill="black"/>
<path opacity="0.2" d="M85.6653 162.375L77.617 125.316H65.5557L73.6039 162.375C74.1961 165.099 72.1203 167.672 69.3341 167.672H81.3939C84.1816 167.672 86.2559 165.099 85.6653 162.375Z" fill="black"/>
<path opacity="0.2" d="M32.8645 157.035C32.1967 156.927 31.7415 156.299 31.8486 155.63L34.082 142.156C34.1891 141.488 34.8175 141.033 35.4869 141.14C36.1547 141.247 36.6098 141.875 36.5027 142.545L34.2694 156.019C34.1607 156.686 33.5323 157.142 32.8645 157.035Z" fill="white"/>
<ellipse opacity="0.2" cx="32.2517" cy="160.133" rx="1.24582" ry="1.24582" fill="white"/>
<circle cx="162.236" cy="109.589" r="58.086" fill="#FF8D00"/>
<path d="M162.869 188.9C160.318 188.9 158.25 186.832 158.25 184.282V156.379C158.25 153.828 160.318 151.761 162.869 151.761C165.421 151.761 167.489 153.829 167.489 156.379V184.282C167.489 186.832 165.421 188.9 162.869 188.9Z" fill="#FFD400"/>
<path d="M142.385 188.9C139.834 188.9 137.766 186.832 137.766 184.282V156.379C137.766 153.828 139.834 151.761 142.385 151.761C144.937 151.761 147.005 153.829 147.005 156.379V184.282C147.005 186.832 144.937 188.9 142.385 188.9Z" fill="#FFD400"/>
<path d="M75.942 146.258C75.2679 148.519 76.95 150.804 79.3093 150.812C79.3361 150.812 79.3613 150.812 79.3881 150.812C81.2938 150.812 83.6862 150.558 86.3842 149.72C90.0618 148.578 93.5883 146.573 96.8643 143.76C100.78 140.399 104.35 135.86 107.481 130.271C108.56 128.344 107.948 125.868 106.045 124.749C104.084 123.593 101.567 124.282 100.463 126.259C92.4873 140.544 83.85 142.671 79.6432 142.741C78.0619 142.768 76.6743 143.798 76.2223 145.313L75.942 146.258Z" fill="#FFD400"/>
<ellipse cx="149.831" cy="109.558" rx="58.086" ry="58.086" fill="#FFE700"/>
<path d="M98.8457 137.401C104.133 147.062 112.087 155.058 121.719 160.396L200.818 81.7134C195.53 72.0523 187.576 64.0561 177.944 58.7184L98.8457 137.401Z" fill="#FFEE72"/>
<circle cx="149.831" cy="109.558" r="43.5551" fill="#FFCE00"/>
<path d="M165.565 110.189C166.974 110.193 168.073 111.443 167.881 112.839C166.566 122.344 158.396 129.652 148.533 129.626C138.671 129.601 130.539 122.249 129.274 112.738C129.088 111.342 130.196 110.098 131.604 110.101L165.565 110.189Z" fill="#DC1000"/>
<path d="M148.532 129.625C156.01 129.645 162.508 125.443 165.789 119.269C162.998 118.225 159.899 117.623 156.618 117.614C148.551 117.594 141.511 121.081 137.694 126.278C140.792 128.373 144.514 129.614 148.532 129.625Z" fill="#FF0021"/>
<path d="M133.77 104.653C131.735 104.649 130.09 102.995 130.097 100.96L130.101 98.9565C130.106 96.9216 131.76 95.2773 133.795 95.2836C135.83 95.2883 137.474 96.9421 137.468 98.977L137.463 100.98C137.458 103.014 135.805 104.66 133.77 104.653Z" fill="url(#paint0_linear)"/>
<path d="M162.841 104.73C160.806 104.726 159.162 103.072 159.168 101.037L159.173 99.0336C159.177 96.9987 160.831 95.3544 162.866 95.3607C164.901 95.3655 166.545 97.0192 166.539 99.0541L166.534 101.058C166.53 103.091 164.876 104.735 162.841 104.73Z" fill="url(#paint1_linear)"/>
<path opacity="0.8" d="M110.51 112.434C110.573 88.3787 130.125 68.9291 154.18 68.9936C162.559 69.0157 170.377 71.4034 177.008 75.522C169.588 69.589 160.186 66.0295 149.947 66.0027C125.892 65.9397 106.34 85.3878 106.277 109.443C106.236 125.119 114.482 138.881 126.89 146.586C116.876 138.579 110.474 126.25 110.51 112.434Z" fill="#FF9F00"/>
<path d="M211.265 119.294C210.53 121.729 212.199 124.237 214.73 124.482C215.705 124.577 219.396 124.742 220.583 124.742C221.845 124.742 223.21 124.671 224.647 124.492C230.882 123.711 239.771 120.696 246.698 110.767C247.976 108.937 247.527 106.417 245.697 105.14C243.866 103.863 241.346 104.311 240.069 106.142C235.938 112.062 230.514 115.524 223.946 116.431C221.69 116.743 217.066 116.592 215.501 116.439C213.592 116.253 211.82 117.458 211.265 119.294Z" fill="#FFD400"/>
<rect x="230.04" y="65.9011" width="4.235" height="58.6191" transform="rotate(-11.438 230.04 65.9011)" fill="black"/>
<rect width="4.23502" height="8.37236" transform="matrix(0.98014 -0.198308 0.198309 0.98014 229.224 61.8633)" fill="#CBCBCB"/>
<rect width="4.23501" height="8.37236" transform="matrix(0.98014 -0.198307 0.198309 0.98014 240.521 117.7)" fill="#CBCBCB"/>
<path d="M159.316 160.717L156.202 159.555C154.038 158.747 152.617 156.773 152.617 154.578C152.617 152.382 154.038 150.409 156.202 149.601L159.316 148.438C161.905 147.471 164.712 149.271 164.712 151.899V157.257C164.712 159.884 161.905 161.684 159.316 160.717Z" fill="#FC0000"/>
<path d="M144.282 160.717L147.395 159.555C149.56 158.747 150.98 156.773 150.98 154.578C150.98 152.382 149.56 150.409 147.395 149.601L144.282 148.438C141.692 147.471 138.886 149.271 138.886 151.899V157.257C138.886 159.884 141.692 161.684 144.282 160.717Z" fill="#FC0000"/>
<path d="M150.668 151.138H152.87C154.161 151.138 155.209 152.185 155.209 153.477V155.679C155.209 156.97 154.161 158.017 152.87 158.017H150.668C149.376 158.017 148.329 156.97 148.329 155.679V153.477C148.328 152.185 149.375 151.138 150.668 151.138Z" fill="#FF0202"/>
<path d="M197.271 197.142H109.34C107.142 197.142 105.36 195.361 105.36 193.162C105.36 190.963 107.142 189.182 109.34 189.182H197.271C199.47 189.182 201.251 190.963 201.251 193.162C201.251 195.361 199.47 197.142 197.271 197.142Z" fill="#18002E"/>
<path d="M213.818 43.2739C212.69 49.9897 206.147 50.9442 206.147 50.9442C206.147 50.9442 212.69 51.8971 213.818 58.6144C214.945 51.8986 221.488 50.9442 221.488 50.9442C221.488 50.9442 214.945 49.9913 213.818 43.2739Z" fill="white"/>
<path d="M247.426 34.8634C246.664 39.3994 242.246 40.0436 242.246 40.0436C242.246 40.0436 246.666 40.6878 247.426 45.2238C248.189 40.6878 252.606 40.0436 252.606 40.0436C252.606 40.0436 248.187 39.3994 247.426 34.8634Z" fill="white"/>
<path opacity="0.6" d="M252.262 65.5491C251.695 68.9306 248.4 69.411 248.4 69.411C248.4 69.411 251.695 69.8913 252.262 73.2729C252.829 69.8913 256.124 69.411 256.124 69.411C256.124 69.411 252.829 68.9306 252.262 65.5491Z" fill="white"/>
<defs>
<linearGradient id="paint0_linear" x1="129.998" y1="96.3071" x2="129.957" y2="105.952" gradientUnits="userSpaceOnUse">
<stop stop-color="#3B393C"/>
<stop offset="0.0673" stop-color="#312F32"/>
<stop offset="0.2504" stop-color="#1B1A1C"/>
<stop offset="0.4508" stop-color="#0C0C0C"/>
<stop offset="0.6797" stop-color="#030303"/>
<stop offset="1"/>
</linearGradient>
<linearGradient id="paint1_linear" x1="159.069" y1="96.3836" x2="159.028" y2="106.029" gradientUnits="userSpaceOnUse">
<stop stop-color="#3B393C"/>
<stop offset="0.0673" stop-color="#312F32"/>
<stop offset="0.2504" stop-color="#1B1A1C"/>
<stop offset="0.4508" stop-color="#0C0C0C"/>
<stop offset="0.6797" stop-color="#030303"/>
<stop offset="1"/>
</linearGradient>
</defs>
</svg>
