<svg width="152" height="153" viewBox="0 0 152 153" fill="none" xmlns="http://www.w3.org/2000/svg">
<g filter="url(#filter0_d)">
<path d="M71.8964 128.787C103.067 128.787 128.336 103.539 128.336 72.3927C128.336 41.2468 103.067 15.998 71.8964 15.998C40.7256 15.998 15.4567 41.2468 15.4567 72.3927C15.4567 103.539 40.7256 128.787 71.8964 128.787Z" fill="#1D1E1D"/>
<path d="M131.796 66.1262C128.658 35.8382 103.04 12.2191 71.8964 12.2191C40.7523 12.2191 15.1371 35.8382 12 66.1262H131.796Z" fill="white" fill-opacity="0.8"/>
<path d="M12 78.6589C15.1371 108.947 40.7552 132.566 71.8964 132.566C103.038 132.566 128.658 108.947 131.793 78.6589H12Z" fill="#E7E7E9"/>
<path d="M71.8961 91.3529C82.3759 91.3529 90.8715 82.8641 90.8715 72.3927C90.8715 61.9213 82.3759 53.4325 71.8961 53.4325C61.4163 53.4325 52.9207 61.9213 52.9207 72.3927C52.9207 82.8641 61.4163 91.3529 71.8961 91.3529Z" fill="#1D1E1D"/>
<path d="M85.6777 77.8711C88.7047 70.2692 84.991 61.6547 77.383 58.6301C69.775 55.6055 61.1536 59.3162 58.1266 66.9182C55.0996 74.5201 58.8133 83.1346 66.4213 86.1592C74.0293 89.1837 82.6507 85.473 85.6777 77.8711Z" fill="#F7F7F7"/>
<path d="M71.8971 82.3864C77.4207 82.3864 81.8985 77.9122 81.8985 72.3929C81.8985 66.8737 77.4207 62.3995 71.8971 62.3995C66.3735 62.3995 61.8957 66.8737 61.8957 72.3929C61.8957 77.9122 66.3735 82.3864 71.8971 82.3864Z" fill="#B8B5B5"/>
<path d="M71.8971 81.6504C77.0138 81.6504 81.1617 77.5058 81.1617 72.3932C81.1617 67.2806 77.0138 63.136 71.8971 63.136C66.7803 63.136 62.6324 67.2806 62.6324 72.3932C62.6324 77.5058 66.7803 81.6504 71.8971 81.6504Z" fill="#F7F7F7"/>
<path d="M72.8541 97.1099C85.3525 97.1099 95.4844 85.8925 95.4844 72.055C95.4844 58.2175 85.3525 47 72.8541 47C60.3557 47 50.2238 58.2175 50.2238 72.055C50.2238 85.8925 60.3557 97.1099 72.8541 97.1099Z" fill="white"/>
<path d="M56.7553 64.1173C56.3885 64.7218 55.9798 65.5535 55.6917 66.2078H55.6853L55.5231 66.6038C55.2794 67.1987 55.0708 67.8036 54.8987 68.4176L54.6717 69.2274H55.5127H56.5063H56.5224H56.5386H56.5547H56.571H56.5871H56.6033H56.6194H56.6356H56.6517H56.6679H56.6841H56.7003H56.7164H56.7326H56.7487H56.7649H56.781H56.7973H56.8134H56.8296H56.8457H56.8619H56.878H56.8942H56.9104H56.9265H56.9427H56.9589H56.975H56.9911H57.0073H57.0235H57.0397H57.0558H57.072H57.0881H57.1043H57.1204H57.1367H57.1528H57.169H57.1851H57.2013H57.2174H57.2337H57.2498H57.266H57.2821H57.2983H57.3144H57.3306H57.3468H57.363H57.3791H57.3953H57.4114H57.4276H57.4437H57.46H57.4761H57.4923H57.5084H57.5246H57.5407H57.557H57.5731H57.5893H57.6054H57.6216H57.6377H57.6539H57.6701H57.6863H57.7024H57.7185H57.7347H57.7508H57.767H57.7832H57.7994H57.8155H57.8317H57.8478H57.864H57.8801H57.8964H57.9125H57.9287H57.9448H57.961H57.9771H57.9933H58.0095H58.0257H58.0418H58.058H58.0741H58.0903H58.1064H58.1227H58.1388H58.155H58.1711H58.1873H58.2034H58.2197H58.2358H58.252H58.2681H58.2843H58.3004H58.3166H58.3328H58.349H58.3651H58.3813H58.3974H58.4136H58.4297H58.446H58.4621H58.4782H58.4944H58.5106H58.5267H58.5429H58.5591H58.5752H58.5914H58.6075H58.6237H58.6398H58.656H58.6722H58.6884H58.7045H58.7207H58.7368H58.753H58.7691H58.7854H58.8015H58.8177H58.8338H58.85H58.8661H58.8824H58.8985H58.9147H58.9308H58.947H58.9631H58.9793H58.9955H59.0117H59.0278H59.044H59.0601H59.0763H59.0924H59.1087H59.1248H59.141H59.1571H59.1733H59.1894H59.2057H59.2218H59.2379H59.2541H59.2703H59.2865H59.3025H59.3188H59.335H59.3512H59.3672H59.3834H59.3996H59.4158H59.4319H59.4481H59.4643H59.4805H59.4965H59.5127H59.5289H59.545H59.5612H59.5774H59.5936H59.6097H59.6258H59.642H59.6583H59.6744H59.6905H59.7067H59.7229H59.739H59.7551H59.7714H59.7876H59.8037H59.8198H59.836H59.8521H59.8684H59.8845H59.9007H59.9168H59.933H59.9492H59.9653H59.9815H59.9977H60.0139H60.03H60.0461H60.0623H60.0785H60.0946H60.1108H60.127H60.1432H60.1592H60.1754H60.1916H60.2079H60.2239H60.2401H60.2563H60.2725H60.2885H60.3047H60.321H60.3372H60.3532H60.3694H60.3856H60.4017H60.4178H60.4341H60.4503H60.4664H60.4825H60.4987H60.5149H60.5311H60.5472H60.5634H60.5796H60.5957H60.6119H60.628H60.6443H60.6604H60.6766H60.6927H60.7088H60.725H60.7413H60.7574H60.7735H60.7897H60.8059H60.822H60.8381H60.8544H60.8706H60.8867H60.9028H60.919H60.9352H60.9514H60.9675H60.9837H60.9999H61.0161H61.0321H61.0483H61.0645H61.0806H61.0968H61.113H61.1292H61.1452H61.1614H61.1776H61.1939H61.2099H61.2261H61.2423H61.2585H61.2746H61.2907H61.307H61.3232H61.3393H61.3554H61.3716H61.3877H61.404H61.4201H61.4363H61.4524H61.4686H61.4847H61.5009H61.5171H61.5333H61.5494H61.5656H61.5817H61.5979H61.6141H61.6303H61.6464H61.6626H61.6788H61.6948H61.711H61.7272H61.7435H61.7595H61.7757H61.7919H61.8081H61.8241H61.8403H61.8566H61.8728H61.8888H61.905H61.9212H61.9374H61.9534H61.9697H61.9859H62.0021H62.0181H62.0343H62.0505H62.0667H62.0828H62.099H62.1152H62.1313H62.1474H62.1636H62.1799H62.196H62.2121H62.2283H62.2445H62.2606H62.2768H62.293H62.3092H62.3253H62.3415H62.3576H62.3737H62.39H62.4062H62.4223H62.4384H62.4546H62.4708H62.4869H62.503H62.5193H62.5355H62.5516H62.5677H62.5839H62.6001H62.6164H62.6324H62.6486H62.6648H62.681H62.697H62.7132H62.7295H62.7455H62.7617H62.7779H62.7941H62.8101H62.8263H62.8426H62.8588H62.8748H62.891H62.9072H62.9234H62.9396H62.9557H62.9719H62.9881H63.0042H63.0203H63.0365H63.0528H63.0689H63.085H63.1012H63.1173H63.1335H63.1496H63.1659H63.182H63.1982H63.2143H63.2305H63.2466H63.2628H63.2791H63.2952H63.3113H63.3275H63.3437H63.3598H63.3759H63.3922H63.4084H63.4245H63.4406H63.4568H63.473H63.489H63.5053H63.5215H63.5377H63.5537H63.5699H63.5861H63.6024H63.6184H63.6346H63.6508H63.667H63.683H63.6992H63.7155H63.7317H63.7477H63.7639H63.7801H63.7962H63.8123H63.8286H63.8448H63.8609H63.877H63.8932H63.9094H63.9256H63.9418H63.9579H63.9741H63.9902H64.0064H64.0225H64.0388H64.0549H64.0711H64.0872H64.1034H64.1195H64.1357H64.1519H64.168H64.1842H64.2004H64.2165H64.2326H64.2488H64.2651H64.2813H64.2973H64.3135H64.3297H64.3459H64.3619H64.3782H64.3944H64.4106H64.4266H64.4428H64.459H64.4753H64.4913H64.5075H64.5237H64.5397H64.5559H64.5721H64.5884H64.6045H64.6206H64.6368H64.653H64.6691H64.6852H64.7015H64.7177H64.7338H64.7499H64.7661H64.7823C73.0187 69.2272 81.2556 69.2272 89.4912 69.228H90.3322L90.1053 68.4182C89.7532 67.162 89.2534 65.9629 88.6332 64.8236C88.2401 64.1014 87.8456 63.4978 87.341 62.968L87.3409 62.9679C86.8336 62.4355 86.2338 61.9973 85.4494 61.5811L85.4492 61.581C84.0922 60.8618 82.4456 60.4431 80.6822 60.4431H74.8441L76.2197 47.3467C89.2628 49.1564 99.3055 60.351 99.3055 73.8924C99.305 88.695 87.3048 100.695 72.5017 100.695C57.6986 100.695 45.6979 88.695 45.6979 73.8918C45.6979 60.3506 55.7408 49.1559 68.7838 47.3462L70.1593 60.4425H64.3213C62.6219 60.4425 61.0311 60.831 59.7035 61.5034H59.7003L59.5604 61.5776C58.3675 62.2089 57.3853 63.0797 56.7554 64.1173H56.7553ZM72.6381 93.6969C73.7149 93.7135 74.7452 93.2797 75.891 92.4909C80.4184 89.3744 84.1317 85.0552 86.1253 79.8663C87.0558 77.4447 87.5805 74.8916 87.6732 72.3113L87.697 71.6507H87.036H58.3507H57.6898L57.7134 72.3111C57.8482 76.0846 58.908 79.7506 60.772 83.0785H60.7721C62.8171 86.7285 65.7902 89.9232 69.4178 92.4366C70.5453 93.2177 71.5651 93.6802 72.6381 93.6969Z" fill="#F9603E" stroke="#F9603E"/>
<path d="M75.4522 78.0531C75.4522 75.0857 74.0065 72.5301 72.9054 71.7006C72.9054 71.7006 72.8207 71.6539 72.8294 71.7736C72.7389 77.507 69.8094 79.0608 68.2001 81.1521C64.485 85.983 67.9373 91.2781 71.4596 92.2566C73.4223 92.8057 71.004 91.287 70.6915 88.0829C70.3089 84.216 75.4522 81.2602 75.4522 78.0531Z" fill="#1B2143"/>
<path d="M77.1406 80.0069C77.1173 79.9923 77.0851 79.9805 77.0648 80.0185C77.0034 80.7399 76.2673 82.282 75.3327 83.7015C72.1637 88.5089 73.9688 90.8281 74.9852 92.0752C75.5752 92.7967 74.9852 92.0752 76.4572 91.3362C78.2768 90.2322 79.4568 88.3221 79.6321 86.2016C79.9211 82.7844 77.8709 80.6318 77.1406 80.0069Z" fill="#2CA6E0"/>
</g>
<defs>
<filter id="filter0_d" x="0" y="-3" width="155" height="155.566" filterUnits="userSpaceOnUse" color-interpolation-filters="sRGB">
<feFlood flood-opacity="0" result="BackgroundImageFix"/>
<feColorMatrix in="SourceAlpha" type="matrix" values="0 0 0 0 0 0 0 0 0 0 0 0 0 0 0 0 0 0 127 0"/>
<feOffset dx="4" dy="4"/>
<feGaussianBlur stdDeviation="8"/>
<feColorMatrix type="matrix" values="0 0 0 0 0.00392157 0 0 0 0 0.109804 0 0 0 0 0.25098 0 0 0 0.2 0"/>
<feBlend mode="normal" in2="BackgroundImageFix" result="effect1_dropShadow"/>
<feBlend mode="normal" in="SourceGraphic" in2="effect1_dropShadow" result="shape"/>
</filter>
</defs>
</svg>
